<svg xmlns="http://www.w3.org/2000/svg" xmlns:xlink="http://www.w3.org/1999/xlink" id="processonSvg1000" viewBox="288.0 109.0 523.0 357.0" width="523.0" height="357.0"><defs id="ProcessOnDefs1001"/><g id="ProcessOnG1002"><path id="ProcessOnPath1003" d="M288.0 109.0H811.0V466.0H288.0V109.0Z" fill="none"/><g id="ProcessOnG1004"><g id="ProcessOnG1005" transform="matrix(1.0,0.0,0.0,1.0,308.0,129.0)" opacity="1.0"><path id="ProcessOnPath1006" d="M0.0 0.0L483.0 0.0L483.0 317.0L0.0 317.0Z" stroke="#323232" stroke-width="2.0" stroke-dasharray="none" opacity="1.0" fill="#99ff99"/></g><g id="ProcessOnG1007" transform="matrix(1.0,0.0,0.0,1.0,510.0,238.0)" opacity="1.0"><path id="ProcessOnPath1008" d="M0.0 0.0L229.0 0.0L229.0 148.0L0.0 148.0Z" stroke="#323232" stroke-width="2.0" stroke-dasharray="none" opacity="1.0" fill="#99ffff"/></g><g id="ProcessOnG1009" transform="matrix(1.0,0.0,0.0,1.0,330.0,150.0)" opacity="1.0"><path id="ProcessOnPath1010" d="M0.0 0.0L222.0 0.0L222.0 64.0L0.0 64.0Z" stroke="#323232" stroke-width="0.0" stroke-dasharray="none" opacity="1.0" fill="none"/><g id="ProcessOnG1011" transform="matrix(1.0,0.0,0.0,1.0,0.0,17.0)"><text id="ProcessOnText1012" fill="#000000" font-weight="bold" font-style="normal" text-decoration="blink" font-family="微软雅黑" text-anchor="middle" font-size="24" x="111.0" y="24.6">spring-web容器</text></g></g><g id="ProcessOnG1013" transform="matrix(1.0,0.0,0.0,1.0,525.0,288.0)" opacity="1.0"><path id="ProcessOnPath1014" d="M0.0 0.0L199.0 0.0L199.0 68.0L0.0 68.0Z" stroke="#323232" stroke-width="0.0" stroke-dasharray="none" opacity="1.0" fill="none"/><g id="ProcessOnG1015" transform="matrix(1.0,0.0,0.0,1.0,0.0,19.625)"><text id="ProcessOnText1016" fill="#000000" font-weight="bold" font-style="normal" text-decoration="blink" font-family="微软雅黑" text-anchor="middle" font-size="23" x="99.5" y="23.575000000000003">IOC容器</text></g></g><g id="ProcessOnG1017" transform="matrix(1.0,0.0,0.0,1.0,545.0,250.0)" opacity="1.0"><path id="ProcessOnPath1018" d="M0.0 0.0L165.0 0.0L165.0 64.0L0.0 64.0Z" stroke="#323232" stroke-width="0.0" stroke-dasharray="none" opacity="1.0" fill="none"/><g id="ProcessOnG1019" transform="matrix(1.0,0.0,0.0,1.0,0.0,15.75)"><text id="ProcessOnText1020" fill="#000000" font-weight="normal" font-style="normal" text-decoration="blink" font-family="微软雅黑" text-anchor="middle" font-size="13" x="82.5" y="13.325">(repository、service)</text><text id="ProcessOnText1021" fill="#000000" font-weight="normal" font-style="normal" text-decoration="blink" font-family="微软雅黑" text-anchor="middle" font-size="13" x="82.5" y="29.575">你的事务是配在这里面的</text></g></g></g></g></svg>