<svg xmlns="http://www.w3.org/2000/svg" xmlns:xlink="http://www.w3.org/1999/xlink" id="processonSvg1000" viewBox="322.09375 27.18750762939453 533.0 476.72726249694824" width="533.0" height="476.72726249694824"><defs id="ProcessOnDefs1001"><marker id="ProcessOnMarker1025" markerUnits="userSpaceOnUse" orient="auto" markerWidth="33.180339887498945" markerHeight="21.561891914301487" viewBox="-5.0 -6.881909602355868 33.180339887498945 21.561891914301487" refX="28.180339887498945" refY="3.8990363547948754"><path id="ProcessOnPath1026" d="M12.0 3.8990363547948754L0.0 7.798072709589751V0.0Z" stroke="#323232" stroke-width="10.0" fill="#323232" transform="matrix(-1.0,1.2246467991473532E-16,-1.2246467991473532E-16,-1.0,23.180339887498945,7.79807270958975)"/></marker><marker id="ProcessOnMarker1027" markerUnits="userSpaceOnUse" orient="auto" markerWidth="33.180339887498945" markerHeight="21.561891914301487" viewBox="-5.0 -6.881909602355868 33.180339887498945 21.561891914301487" refX="-5.0" refY="3.8990363547948754"><path id="ProcessOnPath1028" d="M12.0 3.8990363547948754L0.0 7.798072709589751V0.0Z" stroke="#323232" stroke-width="10.0" fill="#323232" transform="matrix(1.0,0.0,0.0,1.0,0.0,0.0)"/></marker><marker id="ProcessOnMarker1031" markerUnits="userSpaceOnUse" orient="auto" markerWidth="33.180339887498945" markerHeight="21.561891914301487" viewBox="-5.0 -6.881909602355868 33.180339887498945 21.561891914301487" refX="28.180339887498945" refY="3.8990363547948754"><path id="ProcessOnPath1032" d="M12.0 3.8990363547948754L0.0 7.798072709589751V0.0Z" stroke="#323232" stroke-width="10.0" fill="#323232" transform="matrix(-1.0,1.2246467991473532E-16,-1.2246467991473532E-16,-1.0,23.180339887498945,7.79807270958975)"/></marker><marker id="ProcessOnMarker1033" markerUnits="userSpaceOnUse" orient="auto" markerWidth="33.180339887498945" markerHeight="21.561891914301487" viewBox="-5.0 -6.881909602355868 33.180339887498945 21.561891914301487" refX="-5.0" refY="3.8990363547948754"><path id="ProcessOnPath1034" d="M12.0 3.8990363547948754L0.0 7.798072709589751V0.0Z" stroke="#323232" stroke-width="10.0" fill="#323232" transform="matrix(1.0,0.0,0.0,1.0,0.0,0.0)"/></marker><marker id="ProcessOnMarker1037" markerUnits="userSpaceOnUse" orient="auto" markerWidth="22.590169943749473" markerHeight="14.679982311945619" viewBox="-2.5 -3.440954801177934 22.590169943749473 14.679982311945619" refX="20.090169943749473" refY="3.8990363547948754"><path id="ProcessOnPath1038" d="M12.0 3.8990363547948754L0.0 7.798072709589751V0.0Z" stroke="#000000" stroke-width="5.0" fill="#000000" transform="matrix(-1.0,1.2246467991473532E-16,-1.2246467991473532E-16,-1.0,17.590169943749473,7.79807270958975)"/></marker><marker id="ProcessOnMarker1039" markerUnits="userSpaceOnUse" orient="auto" markerWidth="22.590169943749473" markerHeight="14.679982311945619" viewBox="-2.5 -3.440954801177934 22.590169943749473 14.679982311945619" refX="-2.5" refY="3.8990363547948754"><path id="ProcessOnPath1040" d="M12.0 3.8990363547948754L0.0 7.798072709589751V0.0Z" stroke="#000000" stroke-width="5.0" fill="#000000" transform="matrix(1.0,0.0,0.0,1.0,0.0,0.0)"/></marker><marker id="ProcessOnMarker1043" markerUnits="userSpaceOnUse" orient="auto" markerWidth="22.590169943749473" markerHeight="14.679982311945619" viewBox="-2.5 -3.440954801177934 22.590169943749473 14.679982311945619" refX="20.090169943749473" refY="3.8990363547948754"><path id="ProcessOnPath1044" d="M12.0 3.8990363547948754L0.0 7.798072709589751V0.0Z" stroke="#323232" stroke-width="5.0" fill="#323232" transform="matrix(-1.0,1.2246467991473532E-16,-1.2246467991473532E-16,-1.0,17.590169943749473,7.79807270958975)"/></marker><marker id="ProcessOnMarker1045" markerUnits="userSpaceOnUse" orient="auto" markerWidth="22.590169943749473" markerHeight="14.679982311945619" viewBox="-2.5 -3.440954801177934 22.590169943749473 14.679982311945619" refX="-2.5" refY="3.8990363547948754"><path id="ProcessOnPath1046" d="M12.0 3.8990363547948754L0.0 7.798072709589751V0.0Z" stroke="#323232" stroke-width="5.0" fill="#323232" transform="matrix(1.0,0.0,0.0,1.0,0.0,0.0)"/></marker></defs><g id="ProcessOnG1002"><path id="ProcessOnPath1003" d="M322.09375 27.18750762939453H855.09375V503.9147701263428H322.09375V27.18750762939453Z" fill="none"/><g id="ProcessOnG1004"><g id="ProcessOnG1005" transform="matrix(1.0,0.0,0.0,1.0,342.09375,375.36932373046875)" opacity="1.0"><path id="ProcessOnPath1006" d="M0.0 0.0L493.0 0.0L493.0 108.54544639587402L0.0 108.54544639587402Z" stroke="#323232" stroke-width="2.0" stroke-dasharray="none" opacity="1.0" fill="#ffcc99"/></g><g id="ProcessOnG1007" transform="matrix(1.0,0.0,0.0,1.0,529.09375,382.46023082733154)" opacity="1.0"><path id="ProcessOnPath1008" d="M0.0 0.0L93.0 0.0L93.0 35.0L0.0 35.0Z" stroke="#323232" stroke-width="0.0" stroke-dasharray="none" opacity="1.0" fill="none"/><g id="ProcessOnG1009" transform="matrix(1.0,0.0,0.0,1.0,0.0,4.375)"><text id="ProcessOnText1010" fill="#000000" font-weight="bold" font-style="normal" text-decoration="blink" font-family="微软雅黑" text-anchor="middle" font-size="21" x="46.5" y="21.525">主内存</text></g></g><g id="ProcessOnG1011" transform="matrix(1.0,0.0,0.0,1.0,342.09375,173.0056915283203)" opacity="1.0"><path id="ProcessOnPath1012" d="M0.0 0.0L147.0 0.0L147.0 105.0L0.0 105.0Z" stroke="#323232" stroke-width="2.0" stroke-dasharray="none" opacity="1.0" fill="#ff9999"/></g><g id="ProcessOnG1013" transform="matrix(1.0,0.0,0.0,1.0,676.09375,173.0056915283203)" opacity="1.0"><path id="ProcessOnPath1014" d="M0.0 0.0L147.0 0.0L147.0 105.0L0.0 105.0Z" stroke="#323232" stroke-width="2.0" stroke-dasharray="none" opacity="1.0" fill="#ff9999"/></g><g id="ProcessOnG1015" transform="matrix(1.0,0.0,0.0,1.0,367.09375,47.18750762939453)" opacity="1.0"><path id="ProcessOnPath1016" d="M0.0 0.0L97.0 0.0L97.0 52.0L0.0 52.0Z" stroke="#323232" stroke-width="2.0" stroke-dasharray="none" opacity="1.0" fill="#ffcccc"/><g id="ProcessOnG1017" transform="matrix(1.0,0.0,0.0,1.0,10.0,17.875)"><text id="ProcessOnText1018" fill="#000000" font-weight="normal" font-style="normal" text-decoration="blink" font-family="微软雅黑" text-anchor="middle" font-size="13" x="38.5" y="13.325">线程A</text></g></g><g id="ProcessOnG1019" transform="matrix(1.0,0.0,0.0,1.0,701.09375,50.18750762939453)" opacity="1.0"><path id="ProcessOnPath1020" d="M0.0 0.0L97.0 0.0L97.0 46.0L0.0 46.0Z" stroke="#323232" stroke-width="2.0" stroke-dasharray="none" opacity="1.0" fill="#ffcccc"/><g id="ProcessOnG1021" transform="matrix(1.0,0.0,0.0,1.0,10.0,14.875)"><text id="ProcessOnText1022" fill="#000000" font-weight="normal" font-style="normal" text-decoration="blink" font-family="微软雅黑" text-anchor="middle" font-size="13" x="38.5" y="13.325">线程B</text></g></g><g id="ProcessOnG1023"><path id="ProcessOnPath1024" d="M415.59375 306.18603141581923L415.59375 326.77841567993164L416.09375 326.77841567993164L416.09375 347.37079994404405" stroke="#323232" stroke-width="10.0" stroke-dasharray="none" fill="none" marker-start="url(#ProcessOnMarker1025)" marker-end="url(#ProcessOnMarker1027)"/></g><g id="ProcessOnG1029"><path id="ProcessOnPath1030" d="M749.738195333842 306.1856612181638L749.949304666158 347.3711701416995" stroke="#323232" stroke-width="10.0" stroke-dasharray="none" fill="none" marker-start="url(#ProcessOnMarker1031)" marker-end="url(#ProcessOnMarker1033)"/></g><g id="ProcessOnG1035"><path id="ProcessOnPath1036" d="M415.59375 119.277677573144L415.59375 152.91552158457083" stroke="#000000" stroke-width="5.0" stroke-dasharray="none" fill="none" marker-start="url(#ProcessOnMarker1037)" marker-end="url(#ProcessOnMarker1039)"/></g><g id="ProcessOnG1041"><path id="ProcessOnPath1042" d="M749.59375 116.277677573144L749.59375 152.91552158457085" stroke="#323232" stroke-width="5.0" stroke-dasharray="none" fill="none" marker-start="url(#ProcessOnMarker1043)" marker-end="url(#ProcessOnMarker1045)"/></g><g id="ProcessOnG1047" transform="matrix(1.0,0.0,0.0,1.0,367.09375,178.18750762939453)" opacity="1.0"><path id="ProcessOnPath1048" d="M0.0 0.0L88.0 0.0L88.0 26.0L0.0 26.0Z" stroke="#323232" stroke-width="0.0" stroke-dasharray="none" opacity="1.0" fill="none"/><g id="ProcessOnG1049" transform="matrix(1.0,0.0,0.0,1.0,0.0,4.875)"><text id="ProcessOnText1050" fill="#000000" font-weight="normal" font-style="normal" text-decoration="blink" font-family="微软雅黑" text-anchor="middle" font-size="13" x="44.0" y="13.325">本地内存A</text></g></g><g id="ProcessOnG1051" transform="matrix(1.0,0.0,0.0,1.0,705.59375,178.18750762939453)" opacity="1.0"><path id="ProcessOnPath1052" d="M0.0 0.0L88.0 0.0L88.0 26.0L0.0 26.0Z" stroke="#323232" stroke-width="0.0" stroke-dasharray="none" opacity="1.0" fill="none"/><g id="ProcessOnG1053" transform="matrix(1.0,0.0,0.0,1.0,0.0,4.875)"><text id="ProcessOnText1054" fill="#000000" font-weight="normal" font-style="normal" text-decoration="blink" font-family="微软雅黑" text-anchor="middle" font-size="13" x="44.0" y="13.325">本地内存B</text></g></g><g id="ProcessOnG1055" transform="matrix(1.0,0.0,0.0,1.0,368.09375,218.0056915283203)" opacity="1.0"><path id="ProcessOnPath1056" d="M0.0 24.0C0.0 -8.0 95.0 -8.0 95.0 24.0C95.0 56.0 0.0 56.0 0.0 24.0Z" stroke="#000000" stroke-width="2.0" stroke-dasharray="none" opacity="1.0" fill="#ff6666"/><g id="ProcessOnG1057" transform="matrix(1.0,0.0,0.0,1.0,10.0,7.75)"><text id="ProcessOnText1058" fill="#000000" font-weight="normal" font-style="normal" text-decoration="blink" font-family="微软雅黑" text-anchor="middle" font-size="13" x="37.5" y="13.325">共享变量的</text><text id="ProcessOnText1059" fill="#000000" font-weight="normal" font-style="normal" text-decoration="blink" font-family="微软雅黑" text-anchor="middle" font-size="13" x="37.5" y="29.575">副本</text></g></g><g id="ProcessOnG1060" transform="matrix(1.0,0.0,0.0,1.0,705.59375,213.0056915283203)" opacity="1.0"><path id="ProcessOnPath1061" d="M0.0 24.0C0.0 -8.0 95.0 -8.0 95.0 24.0C95.0 56.0 0.0 56.0 0.0 24.0Z" stroke="#323232" stroke-width="2.0" stroke-dasharray="none" opacity="1.0" fill="#ff6666"/><g id="ProcessOnG1062" transform="matrix(1.0,0.0,0.0,1.0,10.0,7.75)"><text id="ProcessOnText1063" fill="#000000" font-weight="normal" font-style="normal" text-decoration="blink" font-family="微软雅黑" text-anchor="middle" font-size="13" x="37.5" y="13.325">共享变量的</text><text id="ProcessOnText1064" fill="#000000" font-weight="normal" font-style="normal" text-decoration="blink" font-family="微软雅黑" text-anchor="middle" font-size="13" x="37.5" y="29.575">副本</text></g></g><g id="ProcessOnG1065" transform="matrix(1.0,0.0,0.0,1.0,426.09375,408.36932373046875)" opacity="1.0"><path id="ProcessOnPath1066" d="M0.0 18.0C0.0 -6.0 95.0 -6.0 95.0 18.0C95.0 42.0 0.0 42.0 0.0 18.0Z" stroke="#323232" stroke-width="2.0" stroke-dasharray="none" opacity="1.0" fill="#ff6666"/><g id="ProcessOnG1067" transform="matrix(1.0,0.0,0.0,1.0,10.0,9.875)"><text id="ProcessOnText1068" fill="#000000" font-weight="normal" font-style="normal" text-decoration="blink" font-family="微软雅黑" text-anchor="middle" font-size="13" x="37.5" y="13.325">共享变量</text></g></g><g id="ProcessOnG1069" transform="matrix(1.0,0.0,0.0,1.0,588.09375,412.36932373046875)" opacity="1.0"><path id="ProcessOnPath1070" d="M0.0 18.0C0.0 -6.0 95.0 -6.0 95.0 18.0C95.0 42.0 0.0 42.0 0.0 18.0Z" stroke="#323232" stroke-width="2.0" stroke-dasharray="none" opacity="1.0" fill="#ff6666"/><g id="ProcessOnG1071" transform="matrix(1.0,0.0,0.0,1.0,10.0,9.875)"><text id="ProcessOnText1072" fill="#000000" font-weight="normal" font-style="normal" text-decoration="blink" font-family="微软雅黑" text-anchor="middle" font-size="13" x="37.5" y="13.325">共享变量</text></g></g><g id="ProcessOnG1073" transform="matrix(1.0,0.0,0.0,1.0,717.09375,404.36932373046875)" opacity="1.0"><path id="ProcessOnPath1074" d="M0.0 18.0C0.0 -6.0 95.0 -6.0 95.0 18.0C95.0 42.0 0.0 42.0 0.0 18.0Z" stroke="#323232" stroke-width="2.0" stroke-dasharray="none" opacity="1.0" fill="#ff6666"/><g id="ProcessOnG1075" transform="matrix(1.0,0.0,0.0,1.0,10.0,9.875)"><text id="ProcessOnText1076" fill="#000000" font-weight="normal" font-style="normal" text-decoration="blink" font-family="微软雅黑" text-anchor="middle" font-size="13" x="37.5" y="13.325">共享变量</text></g></g></g></g></svg>