<svg xmlns="http://www.w3.org/2000/svg" xmlns:xlink="http://www.w3.org/1999/xlink" id="processonSvg1000" viewBox="317.5028533935547 197.73295402526855 452.5 343.454553604126" width="452.5" height="343.454553604126"><defs id="ProcessOnDefs1001"><marker id="ProcessOnMarker1042" markerUnits="userSpaceOnUse" orient="auto" markerWidth="16.23606797749979" markerHeight="10.550836550532098" viewBox="-1.0 -1.3763819204711736 16.23606797749979 10.550836550532098" refX="-1.0" refY="3.8990363547948754"><path id="ProcessOnPath1043" d="M12.0 3.8990363547948754L0.0 7.798072709589751V0.0Z" stroke="#323232" stroke-width="2.0" fill="#323232" transform="matrix(1.0,0.0,0.0,1.0,0.0,0.0)"/></marker><marker id="ProcessOnMarker1049" markerUnits="userSpaceOnUse" orient="auto" markerWidth="16.23606797749979" markerHeight="10.550836550532098" viewBox="-1.0 -1.3763819204711736 16.23606797749979 10.550836550532098" refX="-1.0" refY="3.8990363547948754"><path id="ProcessOnPath1050" d="M12.0 3.8990363547948754L0.0 7.798072709589751V0.0Z" stroke="#323232" stroke-width="2.0" fill="#323232" transform="matrix(1.0,0.0,0.0,1.0,0.0,0.0)"/></marker><marker id="ProcessOnMarker1056" markerUnits="userSpaceOnUse" orient="auto" markerWidth="16.23606797749979" markerHeight="10.550836550532098" viewBox="-1.0 -1.3763819204711736 16.23606797749979 10.550836550532098" refX="-1.0" refY="3.8990363547948754"><path id="ProcessOnPath1057" d="M12.0 3.8990363547948754L0.0 7.798072709589751V0.0Z" stroke="#323232" stroke-width="2.0" fill="#323232" transform="matrix(1.0,0.0,0.0,1.0,0.0,0.0)"/></marker><marker id="ProcessOnMarker1063" markerUnits="userSpaceOnUse" orient="auto" markerWidth="16.23606797749979" markerHeight="10.550836550532098" viewBox="-1.0 -1.3763819204711736 16.23606797749979 10.550836550532098" refX="-1.0" refY="3.8990363547948754"><path id="ProcessOnPath1064" d="M12.0 3.8990363547948754L0.0 7.798072709589751V0.0Z" stroke="#323232" stroke-width="2.0" fill="#323232" transform="matrix(1.0,0.0,0.0,1.0,0.0,0.0)"/></marker><marker id="ProcessOnMarker1070" markerUnits="userSpaceOnUse" orient="auto" markerWidth="16.23606797749979" markerHeight="10.550836550532098" viewBox="-1.0 -1.3763819204711736 16.23606797749979 10.550836550532098" refX="-1.0" refY="3.8990363547948754"><path id="ProcessOnPath1071" d="M12.0 3.8990363547948754L0.0 7.798072709589751V0.0Z" stroke="#323232" stroke-width="2.0" fill="#323232" transform="matrix(1.0,0.0,0.0,1.0,0.0,0.0)"/></marker><marker id="ProcessOnMarker1077" markerUnits="userSpaceOnUse" orient="auto" markerWidth="16.23606797749979" markerHeight="10.550836550532098" viewBox="-1.0 -1.3763819204711736 16.23606797749979 10.550836550532098" refX="-1.0" refY="3.8990363547948754"><path id="ProcessOnPath1078" d="M12.0 3.8990363547948754L0.0 7.798072709589751V0.0Z" stroke="#323232" stroke-width="2.0" fill="#323232" transform="matrix(1.0,0.0,0.0,1.0,0.0,0.0)"/></marker></defs><g id="ProcessOnG1002"><path id="ProcessOnPath1003" d="M317.5028533935547 197.73295402526855H770.0028533935547V541.1875076293945H317.5028533935547V197.73295402526855Z" fill="none"/><g id="ProcessOnG1004"><g id="ProcessOnG1005" transform="matrix(1.0,0.0,0.0,1.0,344.0028533935547,461.18750762939453)" opacity="1.0"><path id="ProcessOnPath1006" d="M0.0 0.0L406.0 0.0L406.0 60.0L0.0 60.0Z" stroke="#323232" stroke-width="2.0" stroke-dasharray="none" opacity="1.0" fill="#ff6666"/></g><g id="ProcessOnG1007" transform="matrix(1.0,0.0,0.0,1.0,344.0028533935547,333.73295402526855)" opacity="1.0"><path id="ProcessOnPath1008" d="M0.0 0.0L109.0 0.0L109.0 74.0L0.0 74.0Z" stroke="#323232" stroke-width="2.0" stroke-dasharray="none" opacity="1.0" fill="#ff9999"/></g><g id="ProcessOnG1009" transform="matrix(1.0,0.0,0.0,1.0,638.0028533935547,333.73295402526855)" opacity="1.0"><path id="ProcessOnPath1010" d="M0.0 0.0L109.0 0.0L109.0 74.0L0.0 74.0Z" stroke="#000000" stroke-width="2.0" stroke-dasharray="none" opacity="1.0" fill="#ff9999"/></g><g id="ProcessOnG1011" transform="matrix(1.0,0.0,0.0,1.0,348.5028533935547,217.73295402526855)" opacity="1.0"><path id="ProcessOnPath1012" d="M0.0 0.0L100.0 0.0L100.0 45.0L0.0 45.0Z" stroke="#323232" stroke-width="2.0" stroke-dasharray="none" opacity="1.0" fill="#ccffcc"/><g id="ProcessOnG1013" transform="matrix(1.0,0.0,0.0,1.0,10.0,14.375)"><text id="ProcessOnText1014" fill="#000000" font-weight="normal" font-style="normal" text-decoration="blink" font-family="微软雅黑" text-anchor="middle" font-size="13" x="40.0" y="13.325">处理器A</text></g></g><g id="ProcessOnG1015" transform="matrix(1.0,0.0,0.0,1.0,642.5028533935547,217.73295402526855)" opacity="1.0"><path id="ProcessOnPath1016" d="M0.0 0.0L100.0 0.0L100.0 45.0L0.0 45.0Z" stroke="#323232" stroke-width="2.0" stroke-dasharray="none" opacity="1.0" fill="#ccffcc"/><g id="ProcessOnG1017" transform="matrix(1.0,0.0,0.0,1.0,10.0,14.375)"><text id="ProcessOnText1018" fill="#000000" font-weight="normal" font-style="normal" text-decoration="blink" font-family="微软雅黑" text-anchor="middle" font-size="13" x="40.0" y="13.325">处理器B</text></g></g><g id="ProcessOnG1019" transform="matrix(1.0,0.0,0.0,1.0,337.5028533935547,329.36932373046875)" opacity="1.0"><path id="ProcessOnPath1020" d="M0.0 0.0L113.0 0.0L113.0 46.0L0.0 46.0Z" stroke="#323232" stroke-width="0.0" stroke-dasharray="none" opacity="1.0" fill="none"/><g id="ProcessOnG1021" transform="matrix(1.0,0.0,0.0,1.0,0.0,14.875)"><text id="ProcessOnText1022" fill="#000000" font-weight="normal" font-style="normal" text-decoration="blink" font-family="微软雅黑" text-anchor="middle" font-size="13" x="56.5" y="13.325">写缓冲区A</text></g></g><g id="ProcessOnG1023" transform="matrix(1.0,0.0,0.0,1.0,636.0028533935547,329.36932373046875)" opacity="1.0"><path id="ProcessOnPath1024" d="M0.0 0.0L113.0 0.0L113.0 46.0L0.0 46.0Z" stroke="#323232" stroke-width="0.0" stroke-dasharray="none" opacity="1.0" fill="none"/><g id="ProcessOnG1025" transform="matrix(1.0,0.0,0.0,1.0,0.0,14.875)"><text id="ProcessOnText1026" fill="#000000" font-weight="normal" font-style="normal" text-decoration="blink" font-family="微软雅黑" text-anchor="middle" font-size="13" x="56.5" y="13.325">写缓冲区B</text></g></g><g id="ProcessOnG1027" transform="matrix(1.0,0.0,0.0,1.0,364.5028533935547,375.36932373046875)" opacity="1.0"><path id="ProcessOnPath1028" d="M0.0 0.0L68.0 0.0L68.0 28.0L0.0 28.0Z" stroke="#323232" stroke-width="0.0" stroke-dasharray="none" opacity="1.0" fill="none"/><g id="ProcessOnG1029" transform="matrix(1.0,0.0,0.0,1.0,0.0,5.875)"><text id="ProcessOnText1030" fill="#000000" font-weight="normal" font-style="normal" text-decoration="blink" font-family="微软雅黑" text-anchor="middle" font-size="13" x="34.0" y="13.325">a=1</text></g></g><g id="ProcessOnG1031" transform="matrix(1.0,0.0,0.0,1.0,662.0028533935547,375.36932373046875)" opacity="1.0"><path id="ProcessOnPath1032" d="M0.0 0.0L68.0 0.0L68.0 28.0L0.0 28.0Z" stroke="#323232" stroke-width="0.0" stroke-dasharray="none" opacity="1.0" fill="none"/><g id="ProcessOnG1033" transform="matrix(1.0,0.0,0.0,1.0,0.0,5.875)"><text id="ProcessOnText1034" fill="#000000" font-weight="normal" font-style="normal" text-decoration="blink" font-family="微软雅黑" text-anchor="middle" font-size="13" x="34.0" y="13.325">b=2</text></g></g><g id="ProcessOnG1035" transform="matrix(1.0,0.0,0.0,1.0,506.0028533935547,476.36932373046875)" opacity="1.0"><path id="ProcessOnPath1036" d="M0.0 0.0L82.0 0.0L82.0 36.0L0.0 36.0Z" stroke="#323232" stroke-width="0.0" stroke-dasharray="none" opacity="1.0" fill="none"/><g id="ProcessOnG1037" transform="matrix(1.0,0.0,0.0,1.0,0.0,1.75)"><text id="ProcessOnText1038" fill="#000000" font-weight="normal" font-style="normal" text-decoration="blink" font-family="微软雅黑" text-anchor="middle" font-size="13" x="41.0" y="13.325">内存</text><text id="ProcessOnText1039" fill="#000000" font-weight="normal" font-style="normal" text-decoration="blink" font-family="微软雅黑" text-anchor="middle" font-size="13" x="41.0" y="29.575">a=b=0</text></g></g><g id="ProcessOnG1040"><path id="ProcessOnPath1041" d="M398.5028533935547 262.73295402526855L398.5028533935547 298.23295402526855L398.5028533935547 298.23295402526855L398.5028533935547 318.4968860477688" stroke="#323232" stroke-width="2.0" stroke-dasharray="none" fill="none" marker-end="url(#ProcessOnMarker1042)"/><g id="ProcessOnG1044" transform="matrix(1.0,0.0,0.0,1.0,398.5028533935547,282.4899200365187)"><path id="ProcessOnPath1045" d="M0 0H13.0V16.25H0Z" fill="#fff" transform="matrix(1.0,0.0,0.0,1.0,-6.5,0.0)"/><text id="ProcessOnText1046" fill="#000000" font-weight="normal" font-style="normal" text-decoration="blink" font-family="微软雅黑" text-anchor="middle" font-size="13" x="0.0" y="13.325">写</text></g></g><g id="ProcessOnG1047"><path id="ProcessOnPath1048" d="M692.5028533935547 262.73295402526855L692.5028533935547 298.23295402526855L692.5028533935547 298.23295402526855L692.5028533935547 318.4968860477688" stroke="#323232" stroke-width="2.0" stroke-dasharray="none" fill="none" marker-end="url(#ProcessOnMarker1049)"/><g id="ProcessOnG1051" transform="matrix(1.0,0.0,0.0,1.0,692.5028533935547,282.4899200365187)"><path id="ProcessOnPath1052" d="M0 0H13.0V16.25H0Z" fill="#fff" transform="matrix(1.0,0.0,0.0,1.0,-6.5,0.0)"/><text id="ProcessOnText1053" fill="#000000" font-weight="normal" font-style="normal" text-decoration="blink" font-family="微软雅黑" text-anchor="middle" font-size="13" x="0.0" y="13.325">写</text></g></g><g id="ProcessOnG1054"><path id="ProcessOnPath1055" d="M398.5028533935547 407.73295402526855L398.5028533935547 434.46023082733154L398.5028533935547 434.46023082733154L398.5028533935547 445.95143965189476" stroke="#323232" stroke-width="2.0" stroke-dasharray="none" fill="none" marker-end="url(#ProcessOnMarker1056)"/><g id="ProcessOnG1058" transform="matrix(1.0,0.0,0.0,1.0,398.5028533935547,418.7171968385817)"><path id="ProcessOnPath1059" d="M0 0H26.0V16.25H0Z" fill="#fff" transform="matrix(1.0,0.0,0.0,1.0,-13.0,0.0)"/><text id="ProcessOnText1060" fill="#000000" font-weight="normal" font-style="normal" text-decoration="blink" font-family="微软雅黑" text-anchor="middle" font-size="13" x="0.0" y="13.325">刷新</text></g></g><g id="ProcessOnG1061"><path id="ProcessOnPath1062" d="M692.5028533935547 407.73295402526855L692.5028533935547 434.46023082733154L692.5028533935547 434.46023082733154L692.5028533935547 445.95143965189476" stroke="#323232" stroke-width="2.0" stroke-dasharray="none" fill="none" marker-end="url(#ProcessOnMarker1063)"/><g id="ProcessOnG1065" transform="matrix(1.0,0.0,0.0,1.0,692.5028533935547,418.7171968385817)"><path id="ProcessOnPath1066" d="M0 0H26.0V16.25H0Z" fill="#fff" transform="matrix(1.0,0.0,0.0,1.0,-13.0,0.0)"/><text id="ProcessOnText1067" fill="#000000" font-weight="normal" font-style="normal" text-decoration="blink" font-family="微软雅黑" text-anchor="middle" font-size="13" x="0.0" y="13.325">刷新</text></g></g><g id="ProcessOnG1068"><path id="ProcessOnPath1069" d="M448.5028533935547 240.23295402526855C492.0028533935547 369.36932373046875 495.0028533935547 376.36932373046875 514.8627708081772 446.70653124058987" stroke="#323232" stroke-width="2.0" stroke-dasharray="none" fill="none" marker-end="url(#ProcessOnMarker1070)"/><g id="ProcessOnG1072" transform="matrix(1.0,0.0,0.0,1.0,490.5478430703825,357.39442845608386)"><path id="ProcessOnPath1073" d="M0 0H13.0V16.25H0Z" fill="#fff" transform="matrix(1.0,0.0,0.0,1.0,-6.5,0.0)"/><text id="ProcessOnText1074" fill="#000000" font-weight="normal" font-style="normal" text-decoration="blink" font-family="微软雅黑" text-anchor="middle" font-size="13" x="0.0" y="13.325">读</text></g></g><g id="ProcessOnG1075"><path id="ProcessOnPath1076" d="M642.5028533935547 240.23295402526855C607.0028533935547 338.36932373046875 601.0028533935547 365.36932373046875 578.1279514080891 446.7023085676799" stroke="#323232" stroke-width="2.0" stroke-dasharray="none" fill="none" marker-end="url(#ProcessOnMarker1077)"/><g id="ProcessOnG1079" transform="matrix(1.0,0.0,0.0,1.0,605.5809906453715,341.64390062197015)"><path id="ProcessOnPath1080" d="M0 0H13.0V16.25H0Z" fill="#fff" transform="matrix(1.0,0.0,0.0,1.0,-6.5,0.0)"/><text id="ProcessOnText1081" fill="#000000" font-weight="normal" font-style="normal" text-decoration="blink" font-family="微软雅黑" text-anchor="middle" font-size="13" x="0.0" y="13.325">读</text></g></g><g id="ProcessOnG1082" transform="matrix(1.0,0.0,0.0,1.0,348.5028533935547,286.36932373046875)" opacity="1.0"><path id="ProcessOnPath1083" d="M0.0 0.0L41.0 0.0L41.0 28.0L0.0 28.0Z" stroke="#323232" stroke-width="0.0" stroke-dasharray="none" opacity="1.0" fill="none"/><g id="ProcessOnG1084" transform="matrix(1.0,0.0,0.0,1.0,0.0,5.875)"><text id="ProcessOnText1085" fill="#000000" font-weight="normal" font-style="normal" text-decoration="blink" font-family="微软雅黑" text-anchor="middle" font-size="13" x="20.5" y="13.325">A1</text></g></g><g id="ProcessOnG1086" transform="matrix(1.0,0.0,0.0,1.0,490.0028533935547,329.36932373046875)" opacity="1.0"><path id="ProcessOnPath1087" d="M0.0 0.0L41.0 0.0L41.0 28.0L0.0 28.0Z" stroke="#323232" stroke-width="0.0" stroke-dasharray="none" opacity="1.0" fill="none"/><g id="ProcessOnG1088" transform="matrix(1.0,0.0,0.0,1.0,0.0,5.875)"><text id="ProcessOnText1089" fill="#000000" font-weight="normal" font-style="normal" text-decoration="blink" font-family="微软雅黑" text-anchor="middle" font-size="13" x="20.5" y="13.325">A2</text></g></g><g id="ProcessOnG1090" transform="matrix(1.0,0.0,0.0,1.0,352.0028533935547,422.36932373046875)" opacity="1.0"><path id="ProcessOnPath1091" d="M0.0 0.0L41.0 0.0L41.0 28.0L0.0 28.0Z" stroke="#323232" stroke-width="0.0" stroke-dasharray="none" opacity="1.0" fill="none"/><g id="ProcessOnG1092" transform="matrix(1.0,0.0,0.0,1.0,0.0,5.875)"><text id="ProcessOnText1093" fill="#000000" font-weight="normal" font-style="normal" text-decoration="blink" font-family="微软雅黑" text-anchor="middle" font-size="13" x="20.5" y="13.325">A3</text></g></g><g id="ProcessOnG1094" transform="matrix(1.0,0.0,0.0,1.0,694.5028533935547,287.36932373046875)" opacity="1.0"><path id="ProcessOnPath1095" d="M0.0 0.0L48.0 0.0L48.0 26.0L0.0 26.0Z" stroke="#323232" stroke-width="0.0" stroke-dasharray="none" opacity="1.0" fill="none"/><g id="ProcessOnG1096" transform="matrix(1.0,0.0,0.0,1.0,0.0,4.875)"><text id="ProcessOnText1097" fill="#000000" font-weight="normal" font-style="normal" text-decoration="blink" font-family="微软雅黑" text-anchor="middle" font-size="13" x="24.0" y="13.325">B1</text></g></g><g id="ProcessOnG1098" transform="matrix(1.0,0.0,0.0,1.0,570.0028533935547,325.36932373046875)" opacity="1.0"><path id="ProcessOnPath1099" d="M0.0 0.0L48.0 0.0L48.0 26.0L0.0 26.0Z" stroke="#323232" stroke-width="0.0" stroke-dasharray="none" opacity="1.0" fill="none"/><g id="ProcessOnG1100" transform="matrix(1.0,0.0,0.0,1.0,0.0,4.875)"><text id="ProcessOnText1101" fill="#000000" font-weight="normal" font-style="normal" text-decoration="blink" font-family="微软雅黑" text-anchor="middle" font-size="13" x="24.0" y="13.325">B2</text></g></g><g id="ProcessOnG1102" transform="matrix(1.0,0.0,0.0,1.0,701.0028533935547,424.36932373046875)" opacity="1.0"><path id="ProcessOnPath1103" d="M0.0 0.0L48.0 0.0L48.0 26.0L0.0 26.0Z" stroke="#323232" stroke-width="0.0" stroke-dasharray="none" opacity="1.0" fill="none"/><g id="ProcessOnG1104" transform="matrix(1.0,0.0,0.0,1.0,0.0,4.875)"><text id="ProcessOnText1105" fill="#000000" font-weight="normal" font-style="normal" text-decoration="blink" font-family="微软雅黑" text-anchor="middle" font-size="13" x="24.0" y="13.325">B3</text></g></g></g></g></svg>