<svg xmlns="http://www.w3.org/2000/svg" xmlns:xlink="http://www.w3.org/1999/xlink" id="processonSvg1000" viewBox="68.0 50.75 963.0 552.75" width="963.0" height="552.75"><defs id="ProcessOnDefs1001"><marker id="ProcessOnMarker1025" markerUnits="userSpaceOnUse" orient="auto" markerWidth="16.23606797749979" markerHeight="10.550836550532098" viewBox="-1.0 -1.3763819204711736 16.23606797749979 10.550836550532098" refX="-1.0" refY="3.8990363547948754"><path id="ProcessOnPath1026" d="M12.0 3.8990363547948754L0.0 7.798072709589751V0.0Z" stroke="#323232" stroke-width="2.0" fill="#fff" transform="matrix(1.0,0.0,0.0,1.0,0.0,0.0)"/></marker><marker id="ProcessOnMarker1053" markerUnits="userSpaceOnUse" orient="auto" markerWidth="16.23606797749979" markerHeight="10.550836550532098" viewBox="-1.0 -1.3763819204711736 16.23606797749979 10.550836550532098" refX="-1.0" refY="3.8990363547948754"><path id="ProcessOnPath1054" d="M12.0 3.8990363547948754L0.0 7.798072709589751V0.0Z" stroke="#323232" stroke-width="2.0" fill="#fff" transform="matrix(1.0,0.0,0.0,1.0,0.0,0.0)"/></marker><marker id="ProcessOnMarker1081" markerUnits="userSpaceOnUse" orient="auto" markerWidth="14.289086868996552" markerHeight="19.055054660878554" viewBox="-0.5877852522924731 -0.8090169943749475 14.289086868996552 19.055054660878554" refX="12.0" refY="8.71851033606433"><path id="ProcessOnPath1082" d="M0 0L12.0 8.71851033606433L0 17.43702067212866" stroke="#323232" stroke-width="2.0" fill="none" transform="matrix(1.0,0.0,0.0,1.0,0.0,0.0)"/></marker><marker id="ProcessOnMarker1109" markerUnits="userSpaceOnUse" orient="auto" markerWidth="20.609529741924973" markerHeight="10.888175666885001" viewBox="-2.3047648709624866 -1.5914908829822711 20.609529741924973 10.888175666885001" refX="16.0" refY="3.8525969504602293"><path id="ProcessOnPath1110" d="M0 3.8525969504602293L8.0 0L16.0 3.8525969504602293L8.0 7.705193900920459Z" stroke="#323232" stroke-width="2.0" fill="#fff"/></marker><marker id="ProcessOnMarker1111" markerUnits="userSpaceOnUse" orient="auto" markerWidth="14.289086868996552" markerHeight="19.055054660878554" viewBox="-0.5877852522924731 -0.8090169943749475 14.289086868996552 19.055054660878554" refX="12.0" refY="8.71851033606433"><path id="ProcessOnPath1112" d="M0 0L12.0 8.71851033606433L0 17.43702067212866" stroke="#323232" stroke-width="2.0" fill="none" transform="matrix(1.0,0.0,0.0,1.0,0.0,0.0)"/></marker><marker id="ProcessOnMarker1139" markerUnits="userSpaceOnUse" orient="auto" markerWidth="20.609529741924973" markerHeight="10.888175666885001" viewBox="-2.3047648709624866 -1.5914908829822711 20.609529741924973 10.888175666885001" refX="16.0" refY="3.8525969504602293"><path id="ProcessOnPath1140" d="M0 3.8525969504602293L8.0 0L16.0 3.8525969504602293L8.0 7.705193900920459Z" stroke="#323232" stroke-width="2.0" fill="#323232"/></marker><marker id="ProcessOnMarker1141" markerUnits="userSpaceOnUse" orient="auto" markerWidth="14.289086868996552" markerHeight="19.055054660878554" viewBox="-0.5877852522924731 -0.8090169943749475 14.289086868996552 19.055054660878554" refX="12.0" refY="8.71851033606433"><path id="ProcessOnPath1142" d="M0 0L12.0 8.71851033606433L0 17.43702067212866" stroke="#323232" stroke-width="2.0" fill="none" transform="matrix(1.0,0.0,0.0,1.0,0.0,0.0)"/></marker><marker id="ProcessOnMarker1187" markerUnits="userSpaceOnUse" orient="auto" markerWidth="14.289086868996552" markerHeight="19.055054660878554" viewBox="-0.5877852522924731 -0.8090169943749475 14.289086868996552 19.055054660878554" refX="12.0" refY="8.71851033606433"><path id="ProcessOnPath1188" d="M0 0L12.0 8.71851033606433L0 17.43702067212866" stroke="#323232" stroke-width="2.0" fill="none" transform="matrix(1.0,0.0,0.0,1.0,0.0,0.0)"/></marker><marker id="ProcessOnMarker1191" markerUnits="userSpaceOnUse" orient="auto" markerWidth="14.289086868996552" markerHeight="19.055054660878554" viewBox="-0.5877852522924731 -0.8090169943749475 14.289086868996552 19.055054660878554" refX="12.0" refY="8.71851033606433"><path id="ProcessOnPath1192" d="M0 0L12.0 8.71851033606433L0 17.43702067212866" stroke="#323232" stroke-width="2.0" fill="none" transform="matrix(1.0,0.0,0.0,1.0,0.0,0.0)"/></marker></defs><g id="ProcessOnG1002"><path id="ProcessOnPath1003" d="M68.0 50.75H1031.0V603.5H68.0V50.75Z" fill="#ffffff"/><g id="ProcessOnG1004"><g id="ProcessOnG1005" transform="matrix(1.0,0.0,0.0,1.0,112.0,79.0)" opacity="1.0"><path id="ProcessOnPath1006" d="M0.0 4.0Q0.0 0.0 4.0 0.0L105.0 0.0Q109.0 0.0 109.0 4.0L109.0 46.0Q109.0 50.0 105.0 50.0L4.0 50.0Q0.0 50.0 0.0 46.0Z" stroke="#323232" stroke-width="2.0" stroke-dasharray="none" opacity="1.0" fill="#ffffff"/><path id="ProcessOnPath1007" d="M0.0 30.0L109.0 30.0" stroke="#323232" stroke-width="2.0" stroke-dasharray="none" opacity="1.0" fill="none"/><path id="ProcessOnPath1008" d="M0.0 0.0L109.0 0.0L109.0 50.0L0.0 50.0Z" stroke="#323232" stroke-width="0.0" stroke-dasharray="none" opacity="1.0" fill="none"/><g id="ProcessOnG1009" transform="matrix(1.0,0.0,0.0,1.0,10.0,6.875)"><text id="ProcessOnText1010" fill="#000000" font-weight="bold" font-style="normal" text-decoration="blink" font-family="微软雅黑" text-anchor="middle" font-size="13" x="44.5" y="13.325">动物</text></g><g id="ProcessOnG1011" transform="matrix(1.0,0.0,0.0,1.0,10.0,31.875)"><text id="ProcessOnText1012" fill="#000000" font-weight="bold" font-style="normal" text-decoration="blink" font-family="微软雅黑" text-anchor="middle" font-size="13" x="44.5" y="13.325">+繁殖()</text></g></g><g id="ProcessOnG1013" transform="matrix(1.0,0.0,0.0,1.0,104.75,174.0)" opacity="1.0"><path id="ProcessOnPath1014" d="M0.0 4.0Q0.0 0.0 4.0 0.0L119.5 0.0Q123.5 0.0 123.5 4.0L123.5 75.0Q123.5 79.0 119.5 79.0L4.0 79.0Q0.0 79.0 0.0 75.0Z" stroke="#323232" stroke-width="2.0" stroke-dasharray="none" opacity="1.0" fill="#ffffff"/><path id="ProcessOnPath1015" d="M0.0 30.0L123.5 30.0M0.0 54.5L123.5 54.5" stroke="#323232" stroke-width="2.0" stroke-dasharray="none" opacity="1.0" fill="none"/><path id="ProcessOnPath1016" d="M0.0 0.0L123.5 0.0L123.5 79.0L0.0 79.0Z" stroke="#323232" stroke-width="0.0" stroke-dasharray="none" opacity="1.0" fill="none"/><g id="ProcessOnG1017" transform="matrix(1.0,0.0,0.0,1.0,10.0,6.875)"><text id="ProcessOnText1018" fill="#000000" font-weight="bold" font-style="normal" text-decoration="blink" font-family="微软雅黑" text-anchor="middle" font-size="13" x="51.75" y="13.325">鸟</text></g><g id="ProcessOnG1019" transform="matrix(1.0,0.0,0.0,1.0,10.0,34.125)"><text id="ProcessOnText1020" fill="#000000" font-weight="bold" font-style="normal" text-decoration="blink" font-family="微软雅黑" text-anchor="middle" font-size="13" x="51.75" y="13.325">-羽毛</text></g><g id="ProcessOnG1021" transform="matrix(1.0,0.0,0.0,1.0,10.0,58.625)"><text id="ProcessOnText1022" fill="#000000" font-weight="bold" font-style="normal" text-decoration="blink" font-family="微软雅黑" text-anchor="middle" font-size="13" x="51.75" y="13.325">+飞翔()</text></g></g><g id="ProcessOnG1023"><path id="ProcessOnPath1024" d="M166.5 174.0L166.5 151.5L166.5 151.5L166.5 144.2360679774998" stroke="#323232" stroke-width="2.0" stroke-dasharray="none" fill="none" marker-end="url(#ProcessOnMarker1025)"/></g><g id="ProcessOnG1027" transform="matrix(1.0,0.0,0.0,1.0,169.0,148.0)" opacity="1.0"><path id="ProcessOnPath1028" d="M0.0 0.0L68.0 0.0L68.0 20.0L0.0 20.0Z" stroke="#323232" stroke-width="0.0" stroke-dasharray="none" opacity="1.0" fill="none"/><g id="ProcessOnG1029" transform="matrix(1.0,0.0,0.0,1.0,0.0,1.875)"><text id="ProcessOnText1030" fill="#000000" font-weight="normal" font-style="normal" text-decoration="blink" font-family="微软雅黑" text-anchor="middle" font-size="13" x="34.0" y="13.325">继承关系</text></g></g><g id="ProcessOnG1031" transform="matrix(1.0,0.0,0.0,1.0,291.0,71.0)" opacity="1.0"><path id="ProcessOnPath1032" d="M0.0 4.0Q0.0 0.0 4.0 0.0L136.0 0.0Q140.0 0.0 140.0 4.0L140.0 68.0Q140.0 72.0 136.0 72.0L4.0 72.0Q0.0 72.0 0.0 68.0Z" stroke="#323232" stroke-width="2.0" stroke-dasharray="none" opacity="1.0" fill="#ffffff"/><path id="ProcessOnPath1033" d="M0.0 32.0L140.0 32.0" stroke="#323232" stroke-width="2.0" stroke-dasharray="none" opacity="1.0" fill="none"/><path id="ProcessOnPath1034" d="M0.0 0.0L140.0 0.0L140.0 72.0L0.0 72.0Z" stroke="#323232" stroke-width="0.0" stroke-dasharray="none" opacity="1.0" fill="none"/><g id="ProcessOnG1035" transform="matrix(1.0,0.0,0.0,1.0,10.0,-0.25)"><text id="ProcessOnText1036" fill="#000000" font-weight="bold" font-style="normal" text-decoration="blink" font-family="微软雅黑" text-anchor="middle" font-size="13" x="60.0" y="13.325">&lt;&lt;interface&gt;&gt;</text><text id="ProcessOnText1037" fill="#000000" font-weight="bold" font-style="normal" text-decoration="blink" font-family="微软雅黑" text-anchor="middle" font-size="13" x="60.0" y="29.575">飞翔</text></g><g id="ProcessOnG1038" transform="matrix(1.0,0.0,0.0,1.0,10.0,49.375)"><text id="ProcessOnText1039" fill="#000000" font-weight="bold" font-style="normal" text-decoration="blink" font-family="微软雅黑" text-anchor="middle" font-size="13" x="60.0" y="13.325">+飞()</text></g></g><g id="ProcessOnG1040" transform="matrix(1.0,0.0,0.0,1.0,297.5,194.0)" opacity="1.0"><path id="ProcessOnPath1041" d="M0.0 4.0Q0.0 0.0 4.0 0.0L123.0 0.0Q127.0 0.0 127.0 4.0L127.0 105.0Q127.0 109.0 123.0 109.0L4.0 109.0Q0.0 109.0 0.0 105.0Z" stroke="#323232" stroke-width="2.0" stroke-dasharray="none" opacity="1.0" fill="#ffffff"/><path id="ProcessOnPath1042" d="M0.0 30.0L127.0 30.0M0.0 66.0L127.0 66.0" stroke="#323232" stroke-width="2.0" stroke-dasharray="none" opacity="1.0" fill="none"/><path id="ProcessOnPath1043" d="M0.0 0.0L127.0 0.0L127.0 109.0L0.0 109.0Z" stroke="#323232" stroke-width="0.0" stroke-dasharray="none" opacity="1.0" fill="none"/><g id="ProcessOnG1044" transform="matrix(1.0,0.0,0.0,1.0,10.0,6.875)"><text id="ProcessOnText1045" fill="#000000" font-weight="bold" font-style="normal" text-decoration="blink" font-family="微软雅黑" text-anchor="middle" font-size="13" x="53.5" y="13.325">大雁</text></g><g id="ProcessOnG1046" transform="matrix(1.0,0.0,0.0,1.0,10.0,39.875)"><text id="ProcessOnText1047" fill="#000000" font-weight="bold" font-style="normal" text-decoration="blink" font-family="微软雅黑" text-anchor="middle" font-size="13" x="53.5" y="13.325">-翅膀</text></g><g id="ProcessOnG1048" transform="matrix(1.0,0.0,0.0,1.0,10.0,74.25)"><text id="ProcessOnText1049" fill="#000000" font-weight="bold" font-style="normal" text-decoration="blink" font-family="微软雅黑" text-anchor="middle" font-size="13" x="53.5" y="13.325">+下蛋()</text><text id="ProcessOnText1050" fill="#000000" font-weight="bold" font-style="normal" text-decoration="blink" font-family="微软雅黑" text-anchor="middle" font-size="13" x="53.5" y="29.575">+飞()</text></g></g><g id="ProcessOnG1051"><path id="ProcessOnPath1052" d="M361.0 194.0L361.0 168.5L361.0 168.5L361.0 158.2360679774998" stroke="#323232" stroke-width="2.0" stroke-dasharray="10.0 4.0" fill="none" marker-end="url(#ProcessOnMarker1053)"/></g><g id="ProcessOnG1055" transform="matrix(1.0,0.0,0.0,1.0,345.0,157.0)" opacity="1.0"><path id="ProcessOnPath1056" d="M0.0 0.0L108.0 0.0L108.0 32.0L0.0 32.0Z" stroke="#323232" stroke-width="0.0" stroke-dasharray="none" opacity="1.0" fill="none"/><g id="ProcessOnG1057" transform="matrix(1.0,0.0,0.0,1.0,0.0,7.875)"><text id="ProcessOnText1058" fill="#000000" font-weight="normal" font-style="normal" text-decoration="blink" font-family="微软雅黑" text-anchor="middle" font-size="13" x="54.0" y="13.325">实现接口</text></g></g><g id="ProcessOnG1059" transform="matrix(1.0,0.0,0.0,1.0,481.0,77.0)" opacity="1.0"><path id="ProcessOnPath1060" d="M0.0 4.0Q0.0 0.0 4.0 0.0L117.0 0.0Q121.0 0.0 121.0 4.0L121.0 87.0Q121.0 91.0 117.0 91.0L4.0 91.0Q0.0 91.0 0.0 87.0Z" stroke="#323232" stroke-width="2.0" stroke-dasharray="none" opacity="1.0" fill="#ffffff"/><path id="ProcessOnPath1061" d="M0.0 30.0L121.0 30.0M0.0 66.0L121.0 66.0" stroke="#323232" stroke-width="2.0" stroke-dasharray="none" opacity="1.0" fill="none"/><path id="ProcessOnPath1062" d="M0.0 0.0L121.0 0.0L121.0 91.0L0.0 91.0Z" stroke="#323232" stroke-width="0.0" stroke-dasharray="none" opacity="1.0" fill="none"/><g id="ProcessOnG1063" transform="matrix(1.0,0.0,0.0,1.0,10.0,6.875)"><text id="ProcessOnText1064" fill="#000000" font-weight="bold" font-style="normal" text-decoration="blink" font-family="微软雅黑" text-anchor="middle" font-size="13" x="50.5" y="13.325">企鹅</text></g><g id="ProcessOnG1065" transform="matrix(1.0,0.0,0.0,1.0,10.0,39.875)"><text id="ProcessOnText1066" fill="#000000" font-weight="bold" font-style="normal" text-decoration="blink" font-family="微软雅黑" text-anchor="middle" font-size="13" x="50.5" y="13.325">-气候</text></g><g id="ProcessOnG1067" transform="matrix(1.0,0.0,0.0,1.0,10.0,81.375)"><text id="ProcessOnText1068" fill="#000000" font-weight="bold" font-style="normal" text-decoration="blink" font-family="微软雅黑" text-anchor="middle" font-size="13" x="50.5" y="13.325"></text></g></g><g id="ProcessOnG1069" transform="matrix(1.0,0.0,0.0,1.0,686.0,77.0)" opacity="1.0"><path id="ProcessOnPath1070" d="M0.0 4.0Q0.0 0.0 4.0 0.0L121.0 0.0Q125.0 0.0 125.0 4.0L125.0 87.0Q125.0 91.0 121.0 91.0L4.0 91.0Q0.0 91.0 0.0 87.0Z" stroke="#323232" stroke-width="2.0" stroke-dasharray="none" opacity="1.0" fill="#ffffff"/><path id="ProcessOnPath1071" d="M0.0 30.0L125.0 30.0M0.0 66.0L125.0 66.0" stroke="#323232" stroke-width="2.0" stroke-dasharray="none" opacity="1.0" fill="none"/><path id="ProcessOnPath1072" d="M0.0 0.0L125.0 0.0L125.0 91.0L0.0 91.0Z" stroke="#323232" stroke-width="0.0" stroke-dasharray="none" opacity="1.0" fill="none"/><g id="ProcessOnG1073" transform="matrix(1.0,0.0,0.0,1.0,10.0,6.875)"><text id="ProcessOnText1074" fill="#000000" font-weight="bold" font-style="normal" text-decoration="blink" font-family="微软雅黑" text-anchor="middle" font-size="13" x="52.5" y="13.325">气候</text></g><g id="ProcessOnG1075" transform="matrix(1.0,0.0,0.0,1.0,10.0,39.875)"><text id="ProcessOnText1076" fill="#000000" font-weight="bold" font-style="normal" text-decoration="blink" font-family="微软雅黑" text-anchor="middle" font-size="13" x="52.5" y="13.325"></text></g><g id="ProcessOnG1077" transform="matrix(1.0,0.0,0.0,1.0,10.0,81.375)"><text id="ProcessOnText1078" fill="#000000" font-weight="bold" font-style="normal" text-decoration="blink" font-family="微软雅黑" text-anchor="middle" font-size="13" x="52.5" y="13.325"></text></g></g><g id="ProcessOnG1079"><path id="ProcessOnPath1080" d="M602.0 122.5L644.0 122.5L644.0 122.5L686.0 122.5" stroke="#323232" stroke-width="2.0" stroke-dasharray="none" fill="none" marker-end="url(#ProcessOnMarker1081)"/></g><g id="ProcessOnG1083" transform="matrix(1.0,0.0,0.0,1.0,607.0,129.0)" opacity="1.0"><path id="ProcessOnPath1084" d="M0.0 0.0L69.0 0.0L69.0 35.0L0.0 35.0Z" stroke="#323232" stroke-width="0.0" stroke-dasharray="none" opacity="1.0" fill="none"/><g id="ProcessOnG1085" transform="matrix(1.0,0.0,0.0,1.0,0.0,9.375)"><text id="ProcessOnText1086" fill="#000000" font-weight="normal" font-style="normal" text-decoration="blink" font-family="微软雅黑" text-anchor="middle" font-size="13" x="34.5" y="13.325">关联关系</text></g></g><g id="ProcessOnG1087" transform="matrix(1.0,0.0,0.0,1.0,504.0,204.0)" opacity="1.0"><path id="ProcessOnPath1088" d="M0.0 4.0Q0.0 0.0 4.0 0.0L112.0 0.0Q116.0 0.0 116.0 4.0L116.0 85.0Q116.0 89.0 112.0 89.0L4.0 89.0Q0.0 89.0 0.0 85.0Z" stroke="#323232" stroke-width="2.0" stroke-dasharray="none" opacity="1.0" fill="#ffffff"/><path id="ProcessOnPath1089" d="M0.0 30.0L116.0 30.0M0.0 66.0L116.0 66.0" stroke="#323232" stroke-width="2.0" stroke-dasharray="none" opacity="1.0" fill="none"/><path id="ProcessOnPath1090" d="M0.0 0.0L116.0 0.0L116.0 89.0L0.0 89.0Z" stroke="#323232" stroke-width="0.0" stroke-dasharray="none" opacity="1.0" fill="none"/><g id="ProcessOnG1091" transform="matrix(1.0,0.0,0.0,1.0,10.0,6.875)"><text id="ProcessOnText1092" fill="#000000" font-weight="bold" font-style="normal" text-decoration="blink" font-family="微软雅黑" text-anchor="middle" font-size="13" x="48.0" y="13.325">雁群</text></g><g id="ProcessOnG1093" transform="matrix(1.0,0.0,0.0,1.0,10.0,39.875)"><text id="ProcessOnText1094" fill="#000000" font-weight="bold" font-style="normal" text-decoration="blink" font-family="微软雅黑" text-anchor="middle" font-size="13" x="48.0" y="13.325"></text></g><g id="ProcessOnG1095" transform="matrix(1.0,0.0,0.0,1.0,10.0,81.375)"><text id="ProcessOnText1096" fill="#000000" font-weight="bold" font-style="normal" text-decoration="blink" font-family="微软雅黑" text-anchor="middle" font-size="13" x="48.0" y="13.325"></text></g></g><g id="ProcessOnG1097" transform="matrix(1.0,0.0,0.0,1.0,725.0,204.0)" opacity="1.0"><path id="ProcessOnPath1098" d="M0.0 4.0Q0.0 0.0 4.0 0.0L106.0 0.0Q110.0 0.0 110.0 4.0L110.0 85.0Q110.0 89.0 106.0 89.0L4.0 89.0Q0.0 89.0 0.0 85.0Z" stroke="#323232" stroke-width="2.0" stroke-dasharray="none" opacity="1.0" fill="#ffffff"/><path id="ProcessOnPath1099" d="M0.0 30.0L110.0 30.0M0.0 73.0L110.0 73.0" stroke="#323232" stroke-width="2.0" stroke-dasharray="none" opacity="1.0" fill="none"/><path id="ProcessOnPath1100" d="M0.0 0.0L110.0 0.0L110.0 89.0L0.0 89.0Z" stroke="#323232" stroke-width="0.0" stroke-dasharray="none" opacity="1.0" fill="none"/><g id="ProcessOnG1101" transform="matrix(1.0,0.0,0.0,1.0,10.0,6.875)"><text id="ProcessOnText1102" fill="#000000" font-weight="bold" font-style="normal" text-decoration="blink" font-family="微软雅黑" text-anchor="middle" font-size="13" x="45.0" y="13.325">大雁</text></g><g id="ProcessOnG1103" transform="matrix(1.0,0.0,0.0,1.0,10.0,42.625)"><text id="ProcessOnText1104" fill="#000000" font-weight="bold" font-style="normal" text-decoration="blink" font-family="微软雅黑" text-anchor="middle" font-size="13" x="45.0" y="13.325"></text></g><g id="ProcessOnG1105" transform="matrix(1.0,0.0,0.0,1.0,10.0,84.125)"><text id="ProcessOnText1106" fill="#000000" font-weight="bold" font-style="normal" text-decoration="blink" font-family="微软雅黑" text-anchor="middle" font-size="13" x="45.0" y="13.325"></text></g></g><g id="ProcessOnG1107"><path id="ProcessOnPath1108" d="M638.3047648709625 248.5L672.5 248.5L672.5 248.5L725.0 248.5" stroke="#323232" stroke-width="2.0" stroke-dasharray="none" fill="none" marker-start="url(#ProcessOnMarker1109)" marker-end="url(#ProcessOnMarker1111)"/></g><g id="ProcessOnG1113" transform="matrix(1.0,0.0,0.0,1.0,634.0,248.0)" opacity="1.0"><path id="ProcessOnPath1114" d="M0.0 0.0L77.0 0.0L77.0 51.0L0.0 51.0Z" stroke="#323232" stroke-width="0.0" stroke-dasharray="none" opacity="1.0" fill="none"/><g id="ProcessOnG1115" transform="matrix(1.0,0.0,0.0,1.0,0.0,17.375)"><text id="ProcessOnText1116" fill="#000000" font-weight="normal" font-style="normal" text-decoration="blink" font-family="微软雅黑" text-anchor="middle" font-size="13" x="38.5" y="13.325">聚合关系</text></g></g><g id="ProcessOnG1117" transform="matrix(1.0,0.0,0.0,1.0,88.0,389.0)" opacity="1.0"><path id="ProcessOnPath1118" d="M0.0 4.0Q0.0 0.0 4.0 0.0L94.0 0.0Q98.0 0.0 98.0 4.0L98.0 97.0Q98.0 101.0 94.0 101.0L4.0 101.0Q0.0 101.0 0.0 97.0Z" stroke="#323232" stroke-width="2.0" stroke-dasharray="none" opacity="1.0" fill="#ffffff"/><path id="ProcessOnPath1119" d="M0.0 30.0L98.0 30.0M0.0 71.0L98.0 71.0" stroke="#323232" stroke-width="2.0" stroke-dasharray="none" opacity="1.0" fill="none"/><path id="ProcessOnPath1120" d="M0.0 0.0L98.0 0.0L98.0 101.0L0.0 101.0Z" stroke="#323232" stroke-width="0.0" stroke-dasharray="none" opacity="1.0" fill="none"/><g id="ProcessOnG1121" transform="matrix(1.0,0.0,0.0,1.0,10.0,6.875)"><text id="ProcessOnText1122" fill="#000000" font-weight="bold" font-style="normal" text-decoration="blink" font-family="微软雅黑" text-anchor="middle" font-size="13" x="39.0" y="13.325">鸟</text></g><g id="ProcessOnG1123" transform="matrix(1.0,0.0,0.0,1.0,10.0,39.875)"><text id="ProcessOnText1124" fill="#000000" font-weight="bold" font-style="normal" text-decoration="blink" font-family="微软雅黑" text-anchor="middle" font-size="13" x="39.0" y="13.325"></text></g><g id="ProcessOnG1125" transform="matrix(1.0,0.0,0.0,1.0,10.0,82.875)"><text id="ProcessOnText1126" fill="#000000" font-weight="bold" font-style="normal" text-decoration="blink" font-family="微软雅黑" text-anchor="middle" font-size="13" x="39.0" y="13.325"></text></g></g><g id="ProcessOnG1127" transform="matrix(1.0,0.0,0.0,1.0,305.5,387.5)" opacity="1.0"><path id="ProcessOnPath1128" d="M0.0 4.0Q0.0 0.0 4.0 0.0L136.5 0.0Q140.5 0.0 140.5 4.0L140.5 100.0Q140.5 104.0 136.5 104.0L4.0 104.0Q0.0 104.0 0.0 100.0Z" stroke="#323232" stroke-width="2.0" stroke-dasharray="none" opacity="1.0" fill="#ffffff"/><path id="ProcessOnPath1129" d="M0.0 30.0L140.5 30.0M0.0 73.0L140.5 73.0" stroke="#323232" stroke-width="2.0" stroke-dasharray="none" opacity="1.0" fill="none"/><path id="ProcessOnPath1130" d="M0.0 0.0L140.5 0.0L140.5 104.0L0.0 104.0Z" stroke="#323232" stroke-width="0.0" stroke-dasharray="none" opacity="1.0" fill="none"/><g id="ProcessOnG1131" transform="matrix(1.0,0.0,0.0,1.0,10.0,6.875)"><text id="ProcessOnText1132" fill="#000000" font-weight="bold" font-style="normal" text-decoration="blink" font-family="微软雅黑" text-anchor="middle" font-size="13" x="60.25" y="13.325">翅膀</text></g><g id="ProcessOnG1133" transform="matrix(1.0,0.0,0.0,1.0,10.0,42.625)"><text id="ProcessOnText1134" fill="#000000" font-weight="bold" font-style="normal" text-decoration="blink" font-family="微软雅黑" text-anchor="middle" font-size="13" x="60.25" y="13.325"></text></g><g id="ProcessOnG1135" transform="matrix(1.0,0.0,0.0,1.0,10.0,84.125)"><text id="ProcessOnText1136" fill="#000000" font-weight="bold" font-style="normal" text-decoration="blink" font-family="微软雅黑" text-anchor="middle" font-size="13" x="60.25" y="13.325"></text></g></g><g id="ProcessOnG1137"><path id="ProcessOnPath1138" d="M204.3047648709625 439.5L245.75 439.5L245.75 439.5L305.5 439.5" stroke="#323232" stroke-width="2.0" stroke-dasharray="none" fill="none" marker-start="url(#ProcessOnMarker1139)" marker-end="url(#ProcessOnMarker1141)"/></g><g id="ProcessOnG1143" transform="matrix(1.0,0.0,0.0,1.0,194.5,405.0)" opacity="1.0"><path id="ProcessOnPath1144" d="M0.0 0.0L111.0 0.0L111.0 29.0L0.0 29.0Z" stroke="#323232" stroke-width="0.0" stroke-dasharray="none" opacity="1.0" fill="none"/><g id="ProcessOnG1145" transform="matrix(1.0,0.0,0.0,1.0,0.0,6.375)"><text id="ProcessOnText1146" fill="#000000" font-weight="normal" font-style="normal" text-decoration="blink" font-family="微软雅黑" text-anchor="middle" font-size="13" x="55.5" y="13.325">合成(组合)</text></g></g><g id="ProcessOnG1147" transform="matrix(1.0,0.0,0.0,1.0,190.25,445.0)" opacity="1.0"><path id="ProcessOnPath1148" d="M0.0 0.0L38.0 0.0L38.0 35.0L0.0 35.0Z" stroke="#323232" stroke-width="0.0" stroke-dasharray="none" opacity="1.0" fill="none"/><g id="ProcessOnG1149" transform="matrix(1.0,0.0,0.0,1.0,0.0,6.25)"><text id="ProcessOnText1150" fill="#000000" font-weight="bold" font-style="normal" text-decoration="blink" font-family="微软雅黑" text-anchor="middle" font-size="18" x="19.0" y="18.45">1</text></g></g><g id="ProcessOnG1151" transform="matrix(1.0,0.0,0.0,1.0,265.5,443.0)" opacity="1.0"><path id="ProcessOnPath1152" d="M0.0 0.0L32.0 0.0L32.0 39.0L0.0 39.0Z" stroke="#323232" stroke-width="0.0" stroke-dasharray="none" opacity="1.0" fill="none"/><g id="ProcessOnG1153" transform="matrix(1.0,0.0,0.0,1.0,0.0,9.5)"><text id="ProcessOnText1154" fill="#000000" font-weight="bold" font-style="normal" text-decoration="blink" font-family="微软雅黑" text-anchor="middle" font-size="16" x="16.0" y="16.4">2</text></g></g><g id="ProcessOnG1155" transform="matrix(1.0,0.0,0.0,1.0,504.0,330.0)" opacity="1.0"><path id="ProcessOnPath1156" d="M0.0 4.0Q0.0 0.0 4.0 0.0L100.0 0.0Q104.0 0.0 104.0 4.0L104.0 88.0Q104.0 92.0 100.0 92.0L4.0 92.0Q0.0 92.0 0.0 88.0Z" stroke="#323232" stroke-width="2.0" stroke-dasharray="none" opacity="1.0" fill="#ffffff"/><path id="ProcessOnPath1157" d="M0.0 30.0L104.0 30.0M0.0 66.0L104.0 66.0" stroke="#323232" stroke-width="2.0" stroke-dasharray="none" opacity="1.0" fill="none"/><path id="ProcessOnPath1158" d="M0.0 0.0L104.0 0.0L104.0 92.0L0.0 92.0Z" stroke="#323232" stroke-width="0.0" stroke-dasharray="none" opacity="1.0" fill="none"/><g id="ProcessOnG1159" transform="matrix(1.0,0.0,0.0,1.0,10.0,6.875)"><text id="ProcessOnText1160" fill="#000000" font-weight="bold" font-style="normal" text-decoration="blink" font-family="微软雅黑" text-anchor="middle" font-size="13" x="42.0" y="13.325">氧气</text></g><g id="ProcessOnG1161" transform="matrix(1.0,0.0,0.0,1.0,10.0,39.875)"><text id="ProcessOnText1162" fill="#000000" font-weight="bold" font-style="normal" text-decoration="blink" font-family="微软雅黑" text-anchor="middle" font-size="13" x="42.0" y="13.325"></text></g><g id="ProcessOnG1163" transform="matrix(1.0,0.0,0.0,1.0,10.0,81.375)"><text id="ProcessOnText1164" fill="#000000" font-weight="bold" font-style="normal" text-decoration="blink" font-family="微软雅黑" text-anchor="middle" font-size="13" x="42.0" y="13.325"></text></g></g><g id="ProcessOnG1165" transform="matrix(1.0,0.0,0.0,1.0,501.0,482.0)" opacity="1.0"><path id="ProcessOnPath1166" d="M0.0 4.0Q0.0 0.0 4.0 0.0L103.0 0.0Q107.0 0.0 107.0 4.0L107.0 97.5Q107.0 101.5 103.0 101.5L4.0 101.5Q0.0 101.5 0.0 97.5Z" stroke="#323232" stroke-width="2.0" stroke-dasharray="none" opacity="1.0" fill="#ffffff"/><path id="ProcessOnPath1167" d="M0.0 30.0L107.0 30.0M0.0 73.0L107.0 73.0" stroke="#323232" stroke-width="2.0" stroke-dasharray="none" opacity="1.0" fill="none"/><path id="ProcessOnPath1168" d="M0.0 0.0L107.0 0.0L107.0 101.5L0.0 101.5Z" stroke="#323232" stroke-width="0.0" stroke-dasharray="none" opacity="1.0" fill="none"/><g id="ProcessOnG1169" transform="matrix(1.0,0.0,0.0,1.0,10.0,6.875)"><text id="ProcessOnText1170" fill="#000000" font-weight="bold" font-style="normal" text-decoration="blink" font-family="微软雅黑" text-anchor="middle" font-size="13" x="43.5" y="13.325">水</text></g><g id="ProcessOnG1171" transform="matrix(1.0,0.0,0.0,1.0,10.0,42.625)"><text id="ProcessOnText1172" fill="#000000" font-weight="bold" font-style="normal" text-decoration="blink" font-family="微软雅黑" text-anchor="middle" font-size="13" x="43.5" y="13.325"></text></g><g id="ProcessOnG1173" transform="matrix(1.0,0.0,0.0,1.0,10.0,84.125)"><text id="ProcessOnText1174" fill="#000000" font-weight="bold" font-style="normal" text-decoration="blink" font-family="微软雅黑" text-anchor="middle" font-size="13" x="43.5" y="13.325"></text></g></g><g id="ProcessOnG1175" transform="matrix(1.0,0.0,0.0,1.0,686.0,402.0)" opacity="1.0"><path id="ProcessOnPath1176" d="M0.0 4.0Q0.0 0.0 4.0 0.0L321.0 0.0Q325.0 0.0 325.0 4.0L325.0 100.0Q325.0 104.0 321.0 104.0L4.0 104.0Q0.0 104.0 0.0 100.0Z" stroke="#323232" stroke-width="2.0" stroke-dasharray="none" opacity="1.0" fill="#ffffff"/><path id="ProcessOnPath1177" d="M0.0 30.0L325.0 30.0M0.0 71.0L325.0 71.0" stroke="#323232" stroke-width="2.0" stroke-dasharray="none" opacity="1.0" fill="none"/><path id="ProcessOnPath1178" d="M0.0 0.0L325.0 0.0L325.0 104.0L0.0 104.0Z" stroke="#323232" stroke-width="0.0" stroke-dasharray="none" opacity="1.0" fill="none"/><g id="ProcessOnG1179" transform="matrix(1.0,0.0,0.0,1.0,10.0,6.875)"><text id="ProcessOnText1180" fill="#000000" font-weight="bold" font-style="normal" text-decoration="blink" font-family="微软雅黑" text-anchor="middle" font-size="13" x="152.5" y="13.325">动物</text></g><g id="ProcessOnG1181" transform="matrix(1.0,0.0,0.0,1.0,10.0,39.875)"><text id="ProcessOnText1182" fill="#000000" font-weight="bold" font-style="normal" text-decoration="blink" font-family="微软雅黑" text-anchor="middle" font-size="13" x="152.5" y="13.325"></text></g><g id="ProcessOnG1183" transform="matrix(1.0,0.0,0.0,1.0,10.0,83.875)"><text id="ProcessOnText1184" fill="#000000" font-weight="bold" font-style="normal" text-decoration="blink" font-family="微软雅黑" text-anchor="middle" font-size="13" x="152.5" y="13.325">+新陈代谢(int O2 : 氧气, int water : 水 )</text></g></g><g id="ProcessOnG1185"><path id="ProcessOnPath1186" d="M686.0 454.0L647.0 454.0L647.0 376.0L608.0 376.0" stroke="#323232" stroke-width="2.0" stroke-dasharray="10.0 4.0" fill="none" marker-end="url(#ProcessOnMarker1187)"/></g><g id="ProcessOnG1189"><path id="ProcessOnPath1190" d="M686.0 454.0L647.0 454.0L647.0 532.75L608.0 532.75" stroke="#323232" stroke-width="2.0" stroke-dasharray="10.0 4.0" fill="none" marker-end="url(#ProcessOnMarker1191)"/></g><g id="ProcessOnG1193" transform="matrix(1.0,0.0,0.0,1.0,616.0,537.0)" opacity="1.0"><path id="ProcessOnPath1194" d="M0.0 0.0L135.0 0.0L135.0 23.0L0.0 23.0Z" stroke="#323232" stroke-width="0.0" stroke-dasharray="none" opacity="1.0" fill="none"/><g id="ProcessOnG1195" transform="matrix(1.0,0.0,0.0,1.0,0.0,3.375)"><text id="ProcessOnText1196" fill="#000000" font-weight="normal" font-style="normal" text-decoration="blink" font-family="微软雅黑" text-anchor="middle" font-size="13" x="67.5" y="13.325">依赖关系</text></g></g></g></g></svg>