<svg xmlns="http://www.w3.org/2000/svg" xmlns:xlink="http://www.w3.org/1999/xlink" id="processonSvg1000" viewBox="215.0 35.0 788.0 499.0" width="788.0" height="499.0"><defs id="ProcessOnDefs1001"/><g id="ProcessOnG1002"><path id="ProcessOnPath1003" d="M215.0 35.0H1003.0V534.0H215.0V35.0Z" fill="none"/><g id="ProcessOnG1004"><g id="ProcessOnG1005" transform="matrix(1.0,0.0,0.0,1.0,235.0,55.0)" opacity="1.0"><path id="ProcessOnPath1006" d="M0.0 0.0L748.0 0.0L748.0 459.0L0.0 459.0Z" stroke="#323232" stroke-width="2.0" stroke-dasharray="none" opacity="1.0" fill="#ffe6cc"/></g><g id="ProcessOnG1007" transform="matrix(1.0,0.0,0.0,1.0,283.0,140.0)" opacity="1.0"><path id="ProcessOnPath1008" d="M0.0 4.0Q0.0 0.0 4.0 0.0L236.0 0.0Q240.0 0.0 240.0 4.0L240.0 82.0Q240.0 86.0 236.0 86.0L4.0 86.0Q0.0 86.0 0.0 82.0Z" stroke="#323232" stroke-width="2.0" stroke-dasharray="none" opacity="1.0" fill="#ffff66"/><g id="ProcessOnG1009" transform="matrix(1.0,0.0,0.0,1.0,10.0,26.75)"><text id="ProcessOnText1010" fill="#000000" font-size="13" x="109.0" y="13.325" font-family="微软雅黑" font-weight="normal" font-style="normal" text-decoration="none" family="微软雅黑" text-anchor="middle" size="13">方法区</text><text id="ProcessOnText1011" fill="#000000" font-size="13" x="109.0" y="29.575" font-family="微软雅黑" font-weight="normal" font-style="normal" text-decoration="none" family="微软雅黑" text-anchor="middle" size="13">Method Area</text></g></g><g id="ProcessOnG1012" transform="matrix(1.0,0.0,0.0,1.0,269.0,272.0)" opacity="1.0"><path id="ProcessOnPath1013" d="M0.0 4.0Q0.0 0.0 4.0 0.0L264.0 0.0Q268.0 0.0 268.0 4.0L268.0 107.0Q268.0 111.0 264.0 111.0L4.0 111.0Q0.0 111.0 0.0 107.0Z" stroke="#323232" stroke-width="2.0" stroke-dasharray="none" opacity="1.0" fill="#ffff66"/><g id="ProcessOnG1014" transform="matrix(1.0,0.0,0.0,1.0,10.0,39.25)"><text id="ProcessOnText1015" fill="#000000" font-size="13" x="123.0" y="13.325" font-family="微软雅黑" font-weight="normal" font-style="normal" text-decoration="none" family="微软雅黑" text-anchor="middle" size="13">堆</text><text id="ProcessOnText1016" fill="#000000" font-size="13" x="123.0" y="29.575" font-family="微软雅黑" font-weight="normal" font-style="normal" text-decoration="none" family="微软雅黑" text-anchor="middle" size="13">Heap</text></g></g><g id="ProcessOnG1017" transform="matrix(1.0,0.0,0.0,1.0,666.0,164.0)" opacity="1.0"><path id="ProcessOnPath1018" d="M0.0 4.0Q0.0 0.0 4.0 0.0L96.0 0.0Q100.0 0.0 100.0 4.0L100.0 66.0Q100.0 70.0 96.0 70.0L4.0 70.0Q0.0 70.0 0.0 66.0Z" stroke="#323232" stroke-width="2.0" stroke-dasharray="none" opacity="1.0" fill="#33ff33"/><g id="ProcessOnG1019" transform="matrix(1.0,0.0,0.0,1.0,10.0,18.75)"><text id="ProcessOnText1020" fill="#000000" font-size="13" x="39.0" y="13.325" font-family="微软雅黑" font-weight="normal" font-style="normal" text-decoration="none" family="微软雅黑" text-anchor="middle" size="13">虚拟机栈</text><text id="ProcessOnText1021" fill="#000000" font-size="13" x="39.0" y="29.575" font-family="微软雅黑" font-weight="normal" font-style="normal" text-decoration="none" family="微软雅黑" text-anchor="middle" size="13">VM Stack</text></g></g><g id="ProcessOnG1022" transform="matrix(1.0,0.0,0.0,1.0,829.0,160.0)" opacity="1.0"><path id="ProcessOnPath1023" d="M0.0 4.0Q0.0 0.0 4.0 0.0L91.0 0.0Q95.0 0.0 95.0 4.0L95.0 66.0Q95.0 70.0 91.0 70.0L4.0 70.0Q0.0 70.0 0.0 66.0Z" stroke="#323232" stroke-width="2.0" stroke-dasharray="none" opacity="1.0" fill="#33ff33"/><g id="ProcessOnG1024" transform="matrix(1.0,0.0,0.0,1.0,10.0,2.5)"><text id="ProcessOnText1025" fill="#000000" font-size="13" x="36.5" y="13.325" font-family="微软雅黑" font-weight="normal" font-style="normal" text-decoration="none" family="微软雅黑" text-anchor="middle" size="13">本地方法栈</text><text id="ProcessOnText1026" fill="#000000" font-size="13" x="36.5" y="29.575" font-family="微软雅黑" font-weight="normal" font-style="normal" text-decoration="none" family="微软雅黑" text-anchor="middle" size="13">Native </text><text id="ProcessOnText1027" fill="#000000" font-size="13" x="36.5" y="45.825" font-family="微软雅黑" font-weight="normal" font-style="normal" text-decoration="none" family="微软雅黑" text-anchor="middle" size="13">Method </text><text id="ProcessOnText1028" fill="#000000" font-size="13" x="36.5" y="62.075" font-family="微软雅黑" font-weight="normal" font-style="normal" text-decoration="none" family="微软雅黑" text-anchor="middle" size="13">Stack</text></g></g><g id="ProcessOnG1029" transform="matrix(1.0,0.0,0.0,1.0,660.0,282.0)" opacity="1.0"><path id="ProcessOnPath1030" d="M0.0 4.0Q0.0 0.0 4.0 0.0L270.0 0.0Q274.0 0.0 274.0 4.0L274.0 63.0Q274.0 67.0 270.0 67.0L4.0 67.0Q0.0 67.0 0.0 63.0Z" stroke="#323232" stroke-width="2.0" stroke-dasharray="none" opacity="1.0" fill="#33ff33"/><g id="ProcessOnG1031" transform="matrix(1.0,0.0,0.0,1.0,10.0,17.25)"><text id="ProcessOnText1032" fill="#000000" font-size="13" x="126.0" y="13.325" font-family="微软雅黑" font-weight="normal" font-style="normal" text-decoration="none" family="微软雅黑" text-anchor="middle" size="13">程序计数器</text><text id="ProcessOnText1033" fill="#000000" font-size="13" x="126.0" y="29.575" font-family="微软雅黑" font-weight="normal" font-style="normal" text-decoration="none" family="微软雅黑" text-anchor="middle" size="13">Program Counter Register</text></g></g><g id="ProcessOnG1034" transform="matrix(1.0,0.0,0.0,1.0,455.0,73.0)" opacity="1.0"><path id="ProcessOnPath1035" d="M0.0 0.0L308.0 0.0L308.0 23.0L0.0 23.0Z" stroke="none" stroke-width="0.0" stroke-dasharray="none" opacity="1.0" fill="none"/><g id="ProcessOnG1036" transform="matrix(1.0,0.0,0.0,1.0,0.0,-6.625)"><text id="ProcessOnText1037" fill="#000000" font-size="29" x="153.0" y="29.725" font-family="微软雅黑" font-weight="bold" font-style="normal" text-decoration="none" family="微软雅黑" text-anchor="middle" size="29">运行时数据区</text></g></g><g id="ProcessOnG1038" transform="matrix(1.0,0.0,0.0,1.0,322.0,423.0)" opacity="1.0"><path id="ProcessOnPath1039" d="M0.0 0.0L43.0 0.0L43.0 30.0L0.0 30.0Z" stroke="#323232" stroke-width="2.0" stroke-dasharray="none" opacity="1.0" fill="#ffff33"/></g><g id="ProcessOnG1040" transform="matrix(1.0,0.0,0.0,1.0,322.0,466.0)" opacity="1.0"><path id="ProcessOnPath1041" d="M0.0 0.0L43.0 0.0L43.0 30.0L0.0 30.0Z" stroke="#323232" stroke-width="2.0" stroke-dasharray="none" opacity="1.0" fill="#33ff33"/></g><g id="ProcessOnG1042" transform="matrix(1.0,0.0,0.0,1.0,353.0,425.0)" opacity="1.0"><path id="ProcessOnPath1043" d="M0.0 0.0L198.0 0.0L198.0 26.0L0.0 26.0Z" stroke="none" stroke-width="0.0" stroke-dasharray="none" opacity="1.0" fill="none"/><g id="ProcessOnG1044" transform="matrix(1.0,0.0,0.0,1.0,0.0,3.625)"><text id="ProcessOnText1045" fill="#000000" font-size="15" x="98.0" y="15.375" font-family="微软雅黑" font-weight="bold" font-style="normal" text-decoration="none" family="微软雅黑" text-anchor="middle" size="15">由所有线程共享的数据区</text></g></g><g id="ProcessOnG1046" transform="matrix(1.0,0.0,0.0,1.0,362.0,471.0)" opacity="1.0"><path id="ProcessOnPath1047" d="M0.0 0.0L146.0 0.0L146.0 20.0L0.0 20.0Z" stroke="none" stroke-width="0.0" stroke-dasharray="none" opacity="1.0" fill="none"/><g id="ProcessOnG1048" transform="matrix(1.0,0.0,0.0,1.0,0.0,0.0)"><text id="ProcessOnText1049" fill="#000000" font-size="16" x="72.0" y="16.4" font-family="微软雅黑" font-weight="bold" font-style="normal" text-decoration="none" family="微软雅黑" text-anchor="middle" size="16">线程私有的数据区</text></g></g><g id="ProcessOnG1050"><path id="ProcessOnPath1051" d="M235.0 406.0L609.0 406.0L609.0 406.0L983.0 406.0" stroke="#323232" stroke-width="2.0" stroke-dasharray="10.0 4.0" fill="none"/><g id="ProcessOnG1052" transform="matrix(1.0,0.0,0.0,1.0,609.0,397.875)"><path id="ProcessOnPath1053" d="M0 0H65.0V16.25H0Z" fill="#fff" transform="matrix(1.0,0.0,0.0,1.0,-32.5,0.0)"/><text id="ProcessOnText1054" fill="#000000" font-size="13" x="0.0" y="13.325" font-family="微软雅黑" font-weight="normal" font-style="normal" text-decoration="none" family="微软雅黑" text-anchor="middle" size="13">我是分割线</text></g></g></g></g></svg>