<svg xmlns="http://www.w3.org/2000/svg" xmlns:xlink="http://www.w3.org/1999/xlink" id="processonSvg1000" viewBox="32.50285339355469 76.18750762939453 899.5 460.5" width="899.5" height="460.5"><defs id="ProcessOnDefs1001"><marker id="ProcessOnMarker1027" markerUnits="userSpaceOnUse" orient="auto" markerWidth="16.23606797749979" markerHeight="10.550836550532098" viewBox="-1.0 -1.3763819204711736 16.23606797749979 10.550836550532098" refX="-1.0" refY="3.8990363547948754"><path id="ProcessOnPath1028" d="M12.0 3.8990363547948754L0.0 7.798072709589751V0.0Z" stroke="#323232" stroke-width="2.0" fill="#323232" transform="matrix(1.0,0.0,0.0,1.0,0.0,0.0)"/></marker><marker id="ProcessOnMarker1031" markerUnits="userSpaceOnUse" orient="auto" markerWidth="16.23606797749979" markerHeight="10.550836550532098" viewBox="-1.0 -1.3763819204711736 16.23606797749979 10.550836550532098" refX="-1.0" refY="3.8990363547948754"><path id="ProcessOnPath1032" d="M12.0 3.8990363547948754L0.0 7.798072709589751V0.0Z" stroke="#323232" stroke-width="2.0" fill="#323232" transform="matrix(1.0,0.0,0.0,1.0,0.0,0.0)"/></marker><marker id="ProcessOnMarker1035" markerUnits="userSpaceOnUse" orient="auto" markerWidth="16.23606797749979" markerHeight="10.550836550532098" viewBox="-1.0 -1.3763819204711736 16.23606797749979 10.550836550532098" refX="-1.0" refY="3.8990363547948754"><path id="ProcessOnPath1036" d="M12.0 3.8990363547948754L0.0 7.798072709589751V0.0Z" stroke="#323232" stroke-width="2.0" fill="#323232" transform="matrix(1.0,0.0,0.0,1.0,0.0,0.0)"/></marker><marker id="ProcessOnMarker1053" markerUnits="userSpaceOnUse" orient="auto" markerWidth="16.23606797749979" markerHeight="10.550836550532098" viewBox="-1.0 -1.3763819204711736 16.23606797749979 10.550836550532098" refX="-1.0" refY="3.8990363547948754"><path id="ProcessOnPath1054" d="M12.0 3.8990363547948754L0.0 7.798072709589751V0.0Z" stroke="#323232" stroke-width="2.0" fill="#323232" transform="matrix(1.0,0.0,0.0,1.0,0.0,0.0)"/></marker><marker id="ProcessOnMarker1057" markerUnits="userSpaceOnUse" orient="auto" markerWidth="16.23606797749979" markerHeight="10.550836550532098" viewBox="-1.0 -1.3763819204711736 16.23606797749979 10.550836550532098" refX="-1.0" refY="3.8990363547948754"><path id="ProcessOnPath1058" d="M12.0 3.8990363547948754L0.0 7.798072709589751V0.0Z" stroke="#323232" stroke-width="2.0" fill="#323232" transform="matrix(1.0,0.0,0.0,1.0,0.0,0.0)"/></marker><marker id="ProcessOnMarker1061" markerUnits="userSpaceOnUse" orient="auto" markerWidth="16.23606797749979" markerHeight="10.550836550532098" viewBox="-1.0 -1.3763819204711736 16.23606797749979 10.550836550532098" refX="-1.0" refY="3.8990363547948754"><path id="ProcessOnPath1062" d="M12.0 3.8990363547948754L0.0 7.798072709589751V0.0Z" stroke="#323232" stroke-width="2.0" fill="#323232" transform="matrix(1.0,0.0,0.0,1.0,0.0,0.0)"/></marker><marker id="ProcessOnMarker1065" markerUnits="userSpaceOnUse" orient="auto" markerWidth="16.23606797749979" markerHeight="10.550836550532098" viewBox="-1.0 -1.3763819204711736 16.23606797749979 10.550836550532098" refX="-1.0" refY="3.8990363547948754"><path id="ProcessOnPath1066" d="M12.0 3.8990363547948754L0.0 7.798072709589751V0.0Z" stroke="#323232" stroke-width="2.0" fill="#323232" transform="matrix(1.0,0.0,0.0,1.0,0.0,0.0)"/></marker><marker id="ProcessOnMarker1069" markerUnits="userSpaceOnUse" orient="auto" markerWidth="16.23606797749979" markerHeight="10.550836550532098" viewBox="-1.0 -1.3763819204711736 16.23606797749979 10.550836550532098" refX="-1.0" refY="3.8990363547948754"><path id="ProcessOnPath1070" d="M12.0 3.8990363547948754L0.0 7.798072709589751V0.0Z" stroke="#323232" stroke-width="2.0" fill="#323232" transform="matrix(1.0,0.0,0.0,1.0,0.0,0.0)"/></marker><marker id="ProcessOnMarker1073" markerUnits="userSpaceOnUse" orient="auto" markerWidth="16.23606797749979" markerHeight="10.550836550532098" viewBox="-1.0 -1.3763819204711736 16.23606797749979 10.550836550532098" refX="-1.0" refY="3.8990363547948754"><path id="ProcessOnPath1074" d="M12.0 3.8990363547948754L0.0 7.798072709589751V0.0Z" stroke="#323232" stroke-width="2.0" fill="#323232" transform="matrix(1.0,0.0,0.0,1.0,0.0,0.0)"/></marker><marker id="ProcessOnMarker1077" markerUnits="userSpaceOnUse" orient="auto" markerWidth="16.23606797749979" markerHeight="10.550836550532098" viewBox="-1.0 -1.3763819204711736 16.23606797749979 10.550836550532098" refX="-1.0" refY="3.8990363547948754"><path id="ProcessOnPath1078" d="M12.0 3.8990363547948754L0.0 7.798072709589751V0.0Z" stroke="#323232" stroke-width="2.0" fill="#323232" transform="matrix(1.0,0.0,0.0,1.0,0.0,0.0)"/></marker></defs><g id="ProcessOnG1002"><path id="ProcessOnPath1003" d="M32.50285339355469 76.18750762939453H932.0028533935547V536.6875076293945H32.50285339355469V76.18750762939453Z" fill="none"/><g id="ProcessOnG1004"><g id="ProcessOnG1005" transform="matrix(1.0,0.0,0.0,1.0,416.7528533935547,96.18750762939453)" opacity="1.0"><path id="ProcessOnPath1006" d="M0.0 28.5C0.0 -9.5 117.0 -9.5 117.0 28.5C117.0 66.5 0.0 66.5 0.0 28.5Z" stroke="#323232" stroke-width="2.0" stroke-dasharray="none" opacity="1.0" fill="#ffffff"/><g id="ProcessOnG1007" transform="matrix(1.0,0.0,0.0,1.0,10.0,20.375)"><text id="ProcessOnText1008" fill="#000000" font-weight="normal" font-style="normal" text-decoration="blink" font-family="微软雅黑" text-anchor="middle" font-size="13" x="48.5" y="13.325">NEW</text></g></g><g id="ProcessOnG1009" transform="matrix(1.0,0.0,0.0,1.0,678.0028533935547,433.43750762939453)" opacity="1.0"><path id="ProcessOnPath1010" d="M0.0 27.5C0.0 -9.166666666666666 123.0 -9.166666666666666 123.0 27.5C123.0 64.16666666666667 0.0 64.16666666666667 0.0 27.5Z" stroke="#323232" stroke-width="2.0" stroke-dasharray="none" opacity="1.0" fill="#ffffff"/><g id="ProcessOnG1011" transform="matrix(1.0,0.0,0.0,1.0,10.0,19.375)"><text id="ProcessOnText1012" fill="#000000" font-weight="normal" font-style="normal" text-decoration="blink" font-family="微软雅黑" text-anchor="middle" font-size="13" x="51.5" y="13.325">BLOCKED</text></g></g><g id="ProcessOnG1013" transform="matrix(1.0,0.0,0.0,1.0,52.50285339355469,266.18750762939453)" opacity="1.0"><path id="ProcessOnPath1014" d="M0.0 29.0C0.0 -9.666666666666666 125.0 -9.666666666666666 125.0 29.0C125.0 67.66666666666667 0.0 67.66666666666667 0.0 29.0Z" stroke="#323232" stroke-width="2.0" stroke-dasharray="none" opacity="1.0" fill="#ffffff"/><g id="ProcessOnG1015" transform="matrix(1.0,0.0,0.0,1.0,10.0,20.875)"><text id="ProcessOnText1016" fill="#000000" font-weight="normal" font-style="normal" text-decoration="blink" font-family="微软雅黑" text-anchor="middle" font-size="13" x="52.5" y="13.325">WAITING</text></g></g><g id="ProcessOnG1017" transform="matrix(1.0,0.0,0.0,1.0,777.0028533935547,257.18750762939453)" opacity="1.0"><path id="ProcessOnPath1018" d="M0.0 30.5C0.0 -10.166666666666666 135.0 -10.166666666666666 135.0 30.5C135.0 71.16666666666667 0.0 71.16666666666667 0.0 30.5Z" stroke="#323232" stroke-width="2.0" stroke-dasharray="none" opacity="1.0" fill="#ffffff"/><g id="ProcessOnG1019" transform="matrix(1.0,0.0,0.0,1.0,10.0,22.375)"><text id="ProcessOnText1020" fill="#000000" font-weight="normal" font-style="normal" text-decoration="blink" font-family="微软雅黑" text-anchor="middle" font-size="13" x="57.5" y="13.325">TIMED_WAITING</text></g></g><g id="ProcessOnG1021" transform="matrix(1.0,0.0,0.0,1.0,412.2528533935547,455.18750762939453)" opacity="1.0"><path id="ProcessOnPath1022" d="M0.0 30.75C0.0 -10.25 126.0 -10.25 126.0 30.75C126.0 71.75 0.0 71.75 0.0 30.75Z" stroke="#323232" stroke-width="2.0" stroke-dasharray="none" opacity="1.0" fill="#ffffff"/><g id="ProcessOnG1023" transform="matrix(1.0,0.0,0.0,1.0,10.0,22.625)"><text id="ProcessOnText1024" fill="#000000" font-weight="normal" font-style="normal" text-decoration="blink" font-family="微软雅黑" text-anchor="middle" font-size="13" x="53.0" y="13.325">TERMINATED</text></g></g><g id="ProcessOnG1025"><path id="ProcessOnPath1026" d="M475.2528533935547 153.18750762939453L475.2528533935547 185.68750762939453L475.2528533935547 185.68750762939453L475.2528533935547 202.95143965189473" stroke="#323232" stroke-width="2.0" stroke-dasharray="none" fill="none" marker-end="url(#ProcessOnMarker1027)"/></g><g id="ProcessOnG1029"><path id="ProcessOnPath1030" d="M167.0028533935547 265.18750762939453C237.0028533935547 219.18750762939453 320.0028533935547 221.18750762939453 371.4476946201434 256.5558359726743" stroke="#323232" stroke-width="2.0" stroke-dasharray="none" fill="none" marker-end="url(#ProcessOnMarker1031)"/></g><g id="ProcessOnG1033"><path id="ProcessOnPath1034" d="M388.0028533935547 317.18750762939453C290.0028533935547 368.18750762939453 253.0028533935547 359.18750762939453 179.72371934245407 323.81137394955283" stroke="#323232" stroke-width="2.0" stroke-dasharray="none" fill="none" marker-end="url(#ProcessOnMarker1035)"/></g><g id="ProcessOnG1037" transform="matrix(1.0,0.0,0.0,1.0,387.5028533935547,218.18750762939453)" opacity="1.0"><path id="ProcessOnPath1038" d="M0.0 0.0L175.5 0.0L175.5 146.0L0.0 146.0Z" stroke="#323232" stroke-width="2.0" stroke-dasharray="none" opacity="1.0" fill="#ffffff"/></g><g id="ProcessOnG1039" transform="matrix(1.0,0.0,0.0,1.0,427.6278533935547,271.18750762939453)" opacity="1.0"><path id="ProcessOnPath1040" d="M0.0 13.0C0.0 -4.333333333333333 95.25 -4.333333333333333 95.25 13.0C95.25 30.333333333333332 0.0 30.333333333333332 0.0 13.0Z" stroke="#323232" stroke-width="2.0" stroke-dasharray="none" opacity="1.0" fill="#ffffff"/><g id="ProcessOnG1041" transform="matrix(1.0,0.0,0.0,1.0,10.0,4.875)"><text id="ProcessOnText1042" fill="#000000" font-weight="normal" font-style="normal" text-decoration="blink" font-family="微软雅黑" text-anchor="middle" font-size="13" x="37.625" y="13.325">RUNNING</text></g></g><g id="ProcessOnG1043" transform="matrix(1.0,0.0,0.0,1.0,428.2528533935547,324.18750762939453)" opacity="1.0"><path id="ProcessOnPath1044" d="M0.0 14.0C0.0 -4.666666666666667 94.0 -4.666666666666667 94.0 14.0C94.0 32.666666666666664 0.0 32.666666666666664 0.0 14.0Z" stroke="#323232" stroke-width="2.0" stroke-dasharray="none" opacity="1.0" fill="#ffffff"/><g id="ProcessOnG1045" transform="matrix(1.0,0.0,0.0,1.0,10.0,5.875)"><text id="ProcessOnText1046" fill="#000000" font-weight="normal" font-style="normal" text-decoration="blink" font-family="微软雅黑" text-anchor="middle" font-size="13" x="37.0" y="13.325">READY</text></g></g><g id="ProcessOnG1047" transform="matrix(1.0,0.0,0.0,1.0,414.7528533935547,228.18750762939453)" opacity="1.0"><path id="ProcessOnPath1048" d="M0.0 0.0L121.0 0.0L121.0 33.0L0.0 33.0Z" stroke="#323232" stroke-width="0.0" stroke-dasharray="none" opacity="1.0" fill="none"/><g id="ProcessOnG1049" transform="matrix(1.0,0.0,0.0,1.0,0.0,8.375)"><text id="ProcessOnText1050" fill="#000000" font-weight="normal" font-style="normal" text-decoration="blink" font-family="微软雅黑" text-anchor="middle" font-size="13" x="60.5" y="13.325">RUNNABLE</text></g></g><g id="ProcessOnG1051"><path id="ProcessOnPath1052" d="M499.0028533935547 323.18750762939453L499.0028533935547 311.18750762939453L499.0028533935547 311.18750762939453L499.0028533935547 310.18750762939453" stroke="#323232" stroke-width="2.0" stroke-dasharray="none" fill="none" marker-end="url(#ProcessOnMarker1053)"/></g><g id="ProcessOnG1055"><path id="ProcessOnPath1056" d="M452.0028533935547 297.18750762939453L452.0028533935547 309.18750762939453L452.0028533935547 309.18750762939453L452.0028533935547 310.18750762939453" stroke="#323232" stroke-width="2.0" stroke-dasharray="none" fill="none" marker-end="url(#ProcessOnMarker1057)"/></g><g id="ProcessOnG1059"><path id="ProcessOnPath1060" d="M475.2528533935547 364.18750762939453L475.2528533935547 409.68750762939453L475.2528533935547 409.68750762939453L475.2528533935547 439.95143965189476" stroke="#323232" stroke-width="2.0" stroke-dasharray="none" fill="none" marker-end="url(#ProcessOnMarker1061)"/></g><g id="ProcessOnG1063"><path id="ProcessOnPath1064" d="M475.2528533935547 364.18750762939453C567.0028533935547 377.18750762939453 623.0028533935547 391.18750762939453 666.9316155704856 432.7201555057656" stroke="#323232" stroke-width="2.0" stroke-dasharray="none" fill="none" marker-end="url(#ProcessOnMarker1065)"/></g><g id="ProcessOnG1067"><path id="ProcessOnPath1068" d="M669.0028533935547 458.18750762939453C583.0028533935547 444.18750762939453 539.0028533935547 430.18750762939453 492.6822937837829 383.0543066229601" stroke="#323232" stroke-width="2.0" stroke-dasharray="none" fill="none" marker-end="url(#ProcessOnMarker1069)"/></g><g id="ProcessOnG1071"><path id="ProcessOnPath1072" d="M562.0028533935547 267.18750762939453C650.0028533935547 236.18750762939453 705.0028533935547 233.18750762939453 769.1080005516802 267.52842693694055" stroke="#323232" stroke-width="2.0" stroke-dasharray="none" fill="none" marker-end="url(#ProcessOnMarker1073)"/></g><g id="ProcessOnG1075"><path id="ProcessOnPath1076" d="M778.0028533935547 306.18750762939453C716.0028533935547 324.18750762939453 658.0028533935547 340.18750762939453 576.1694501562374 307.7951188479565" stroke="#323232" stroke-width="2.0" stroke-dasharray="none" fill="none" marker-end="url(#ProcessOnMarker1077)"/></g><g id="ProcessOnG1079" transform="matrix(1.0,0.0,0.0,1.0,483.0028533935547,167.18750762939453)" opacity="1.0"><path id="ProcessOnPath1080" d="M0.0 0.0L89.0 0.0L89.0 30.0L0.0 30.0Z" stroke="#323232" stroke-width="0.0" stroke-dasharray="none" opacity="1.0" fill="none"/><g id="ProcessOnG1081" transform="matrix(1.0,0.0,0.0,1.0,0.0,6.875)"><text id="ProcessOnText1082" fill="#000000" font-weight="normal" font-style="normal" text-decoration="blink" font-family="微软雅黑" text-anchor="middle" font-size="13" x="44.5" y="13.325">thread.start()</text></g></g><g id="ProcessOnG1083" transform="matrix(1.0,0.0,0.0,1.0,168.0028533935547,352.18750762939453)" opacity="1.0"><path id="ProcessOnPath1084" d="M0.0 0.0L123.0 0.0L123.0 59.0L0.0 59.0Z" stroke="#323232" stroke-width="0.0" stroke-dasharray="none" opacity="1.0" fill="none"/><g id="ProcessOnG1085" transform="matrix(1.0,0.0,0.0,1.0,0.0,5.125)"><text id="ProcessOnText1086" fill="#000000" font-weight="normal" font-style="normal" text-decoration="blink" font-family="微软雅黑" text-anchor="middle" font-size="13" x="61.5" y="13.325">Object.wait()</text><text id="ProcessOnText1087" fill="#000000" font-weight="normal" font-style="normal" text-decoration="blink" font-family="微软雅黑" text-anchor="middle" font-size="13" x="61.5" y="29.575">Object.join()</text><text id="ProcessOnText1088" fill="#000000" font-weight="normal" font-style="normal" text-decoration="blink" font-family="微软雅黑" text-anchor="middle" font-size="13" x="61.5" y="45.825">LockSupport.park()</text></g></g><g id="ProcessOnG1089" transform="matrix(1.0,0.0,0.0,1.0,152.0028533935547,164.18750762939453)" opacity="1.0"><path id="ProcessOnPath1090" d="M0.0 0.0L194.0 0.0L194.0 68.0L0.0 68.0Z" stroke="#323232" stroke-width="0.0" stroke-dasharray="none" opacity="1.0" fill="none"/><g id="ProcessOnG1091" transform="matrix(1.0,0.0,0.0,1.0,0.0,9.625)"><text id="ProcessOnText1092" fill="#000000" font-weight="normal" font-style="normal" text-decoration="blink" font-family="微软雅黑" text-anchor="middle" font-size="13" x="97.0" y="13.325">Object.notify()</text><text id="ProcessOnText1093" fill="#000000" font-weight="normal" font-style="normal" text-decoration="blink" font-family="微软雅黑" text-anchor="middle" font-size="13" x="97.0" y="29.575">Object.notifyAll()</text><text id="ProcessOnText1094" fill="#000000" font-weight="normal" font-style="normal" text-decoration="blink" font-family="微软雅黑" text-anchor="middle" font-size="13" x="97.0" y="45.825">LockSupport.unpark(Thread)</text></g></g><g id="ProcessOnG1095" transform="matrix(1.0,0.0,0.0,1.0,652.0028533935547,161.18750762939453)" opacity="1.0"><path id="ProcessOnPath1096" d="M0.0 0.0L182.0 0.0L182.0 82.0L0.0 82.0Z" stroke="#323232" stroke-width="0.0" stroke-dasharray="none" opacity="1.0" fill="none"/><g id="ProcessOnG1097" transform="matrix(1.0,0.0,0.0,1.0,0.0,0.375)"><text id="ProcessOnText1098" fill="#000000" font-weight="normal" font-style="normal" text-decoration="blink" font-family="微软雅黑" text-anchor="middle" font-size="13" x="91.0" y="13.325">Thread.sleep(long)</text><text id="ProcessOnText1099" fill="#000000" font-weight="normal" font-style="normal" text-decoration="blink" font-family="微软雅黑" text-anchor="middle" font-size="13" x="91.0" y="29.575">Object.wait(long)</text><text id="ProcessOnText1100" fill="#000000" font-weight="normal" font-style="normal" text-decoration="blink" font-family="微软雅黑" text-anchor="middle" font-size="13" x="91.0" y="45.825">Thread.join(long)</text><text id="ProcessOnText1101" fill="#000000" font-weight="normal" font-style="normal" text-decoration="blink" font-family="微软雅黑" text-anchor="middle" font-size="13" x="91.0" y="62.075">LockSupport.parkNanos()</text><text id="ProcessOnText1102" fill="#000000" font-weight="normal" font-style="normal" text-decoration="blink" font-family="微软雅黑" text-anchor="middle" font-size="13" x="91.0" y="78.325">LockSupport.parkUntil()</text></g></g><g id="ProcessOnG1103" transform="matrix(1.0,0.0,0.0,1.0,585.0028533935547,324.18750762939453)" opacity="1.0"><path id="ProcessOnPath1104" d="M0.0 0.0L189.0 0.0L189.0 53.0L0.0 53.0Z" stroke="#323232" stroke-width="0.0" stroke-dasharray="none" opacity="1.0" fill="none"/><g id="ProcessOnG1105" transform="matrix(1.0,0.0,0.0,1.0,0.0,2.125)"><text id="ProcessOnText1106" fill="#000000" font-weight="normal" font-style="normal" text-decoration="blink" font-family="微软雅黑" text-anchor="middle" font-size="13" x="94.5" y="13.325">Object.notify()</text><text id="ProcessOnText1107" fill="#000000" font-weight="normal" font-style="normal" text-decoration="blink" font-family="微软雅黑" text-anchor="middle" font-size="13" x="94.5" y="29.575">Object.notifyAll()</text><text id="ProcessOnText1108" fill="#000000" font-weight="normal" font-style="normal" text-decoration="blink" font-family="微软雅黑" text-anchor="middle" font-size="13" x="94.5" y="45.825">LockSupport.unpark(Thread)</text></g></g><g id="ProcessOnG1109" transform="matrix(1.0,0.0,0.0,1.0,652.0028533935547,397.18750762939453)" opacity="1.0"><path id="ProcessOnPath1110" d="M0.0 0.0L195.0 0.0L195.0 32.0L0.0 32.0Z" stroke="#323232" stroke-width="0.0" stroke-dasharray="none" opacity="1.0" fill="none"/><g id="ProcessOnG1111" transform="matrix(1.0,0.0,0.0,1.0,0.0,7.875)"><text id="ProcessOnText1112" fill="#000000" font-weight="normal" font-style="normal" text-decoration="blink" font-family="微软雅黑" text-anchor="middle" font-size="13" x="97.5" y="13.325">等待进入synchronized方法/块</text></g></g><g id="ProcessOnG1113" transform="matrix(1.0,0.0,0.0,1.0,583.0028533935547,455.18750762939453)" opacity="1.0"><path id="ProcessOnPath1114" d="M0.0 0.0L69.0 0.0L69.0 24.0L0.0 24.0Z" stroke="#323232" stroke-width="0.0" stroke-dasharray="none" opacity="1.0" fill="none"/><g id="ProcessOnG1115" transform="matrix(1.0,0.0,0.0,1.0,0.0,3.875)"><text id="ProcessOnText1116" fill="#000000" font-weight="normal" font-style="normal" text-decoration="blink" font-family="微软雅黑" text-anchor="middle" font-size="13" x="34.5" y="13.325">获取到锁</text></g></g></g></g></svg>