<svg xmlns="http://www.w3.org/2000/svg" xmlns:xlink="http://www.w3.org/1999/xlink" id="processonSvg1000" viewBox="61.0 43.0 861.0 545.0" width="861.0" height="545.0"><defs id="ProcessOnDefs1001"><marker id="ProcessOnMarker1059" markerUnits="userSpaceOnUse" orient="auto" markerWidth="16.23606797749979" markerHeight="10.550836550532098" viewBox="-1.0 -1.3763819204711736 16.23606797749979 10.550836550532098" refX="-1.0" refY="3.8990363547948754"><path id="ProcessOnPath1060" d="M12.0 3.8990363547948754L0.0 7.798072709589751V0.0Z" stroke="#323232" stroke-width="2.0" fill="#323232" transform="matrix(1.0,0.0,0.0,1.0,0.0,0.0)"/></marker><marker id="ProcessOnMarker1063" markerUnits="userSpaceOnUse" orient="auto" markerWidth="16.23606797749979" markerHeight="10.550836550532098" viewBox="-1.0 -1.3763819204711736 16.23606797749979 10.550836550532098" refX="-1.0" refY="3.8990363547948754"><path id="ProcessOnPath1064" d="M12.0 3.8990363547948754L0.0 7.798072709589751V0.0Z" stroke="#323232" stroke-width="2.0" fill="#323232" transform="matrix(1.0,0.0,0.0,1.0,0.0,0.0)"/></marker><marker id="ProcessOnMarker1067" markerUnits="userSpaceOnUse" orient="auto" markerWidth="16.23606797749979" markerHeight="10.550836550532098" viewBox="-1.0 -1.3763819204711736 16.23606797749979 10.550836550532098" refX="-1.0" refY="3.8990363547948754"><path id="ProcessOnPath1068" d="M12.0 3.8990363547948754L0.0 7.798072709589751V0.0Z" stroke="#323232" stroke-width="2.0" fill="#fff" transform="matrix(1.0,0.0,0.0,1.0,0.0,0.0)"/></marker><marker id="ProcessOnMarker1071" markerUnits="userSpaceOnUse" orient="auto" markerWidth="20.609529741924973" markerHeight="10.888175666885001" viewBox="-2.3047648709624866 -1.5914908829822711 20.609529741924973 10.888175666885001" refX="16.0" refY="3.8525969504602293"><path id="ProcessOnPath1072" d="M0 3.8525969504602293L8.0 0L16.0 3.8525969504602293L8.0 7.705193900920459Z" stroke="#323232" stroke-width="2.0" fill="#fff"/></marker><marker id="ProcessOnMarker1073" markerUnits="userSpaceOnUse" orient="auto" markerWidth="14.289086868996552" markerHeight="19.055054660878554" viewBox="-0.5877852522924731 -0.8090169943749475 14.289086868996552 19.055054660878554" refX="12.0" refY="8.71851033606433"><path id="ProcessOnPath1074" d="M0 0L12.0 8.71851033606433L0 17.43702067212866" stroke="#323232" stroke-width="2.0" fill="none" transform="matrix(1.0,0.0,0.0,1.0,0.0,0.0)"/></marker></defs><g id="ProcessOnG1002"><path id="ProcessOnPath1003" d="M61.0 43.0H922.0V588.0H61.0V43.0Z" fill="#ffffff"/><g id="ProcessOnG1004"><g id="ProcessOnG1005" transform="matrix(1.0,0.0,0.0,1.0,365.0,63.0)" opacity="1.0"><path id="ProcessOnPath1006" d="M0.0 4.0Q0.0 0.0 4.0 0.0L236.0 0.0Q240.0 0.0 240.0 4.0L240.0 191.0Q240.0 195.0 236.0 195.0L4.0 195.0Q0.0 195.0 0.0 191.0Z" stroke="#323232" stroke-width="2.0" stroke-dasharray="none" opacity="1.0" fill="#ffffff"/><path id="ProcessOnPath1007" d="M0.0 30.0L240.0 30.0M0.0 112.5L240.0 112.5" stroke="#323232" stroke-width="2.0" stroke-dasharray="none" opacity="1.0" fill="none"/><path id="ProcessOnPath1008" d="M0.0 0.0L240.0 0.0L240.0 195.0L0.0 195.0Z" stroke="#323232" stroke-width="0.0" stroke-dasharray="none" opacity="1.0" fill="none"/><g id="ProcessOnG1009" transform="matrix(1.0,0.0,0.0,1.0,10.0,6.875)"><text id="ProcessOnText1010" fill="#000000" font-weight="bold" font-style="normal" text-decoration="blink" font-family="微软雅黑" text-anchor="middle" font-size="13" x="110.0" y="13.325">Company</text></g><g id="ProcessOnG1011" transform="matrix(1.0,0.0,0.0,1.0,10.0,63.125)"><text id="ProcessOnText1012" fill="#000000" font-weight="bold" font-style="normal" text-decoration="blink" font-family="微软雅黑" text-anchor="middle" font-size="13" x="110.0" y="13.325">-name : String</text></g><g id="ProcessOnG1013" transform="matrix(1.0,0.0,0.0,1.0,10.0,121.25)"><text id="ProcessOnText1014" fill="#000000" font-weight="bold" font-style="normal" text-decoration="blink" font-family="微软雅黑" text-anchor="middle" font-size="13" x="110.0" y="13.325">#add(Company c) : void</text><text id="ProcessOnText1015" fill="#000000" font-weight="bold" font-style="normal" text-decoration="blink" font-family="微软雅黑" text-anchor="middle" font-size="13" x="110.0" y="29.575">#remove(Company c) : void</text><text id="ProcessOnText1016" fill="#000000" font-weight="bold" font-style="normal" text-decoration="blink" font-family="微软雅黑" text-anchor="middle" font-size="13" x="110.0" y="45.825">#display(int depth) : void</text><text id="ProcessOnText1017" fill="#000000" font-weight="bold" font-style="normal" text-decoration="blink" font-family="微软雅黑" text-anchor="middle" font-size="13" x="110.0" y="62.075">#lineOfDuty() : void</text></g></g><g id="ProcessOnG1018" transform="matrix(1.0,0.0,0.0,1.0,371.5,361.0)" opacity="1.0"><path id="ProcessOnPath1019" d="M0.0 4.0Q0.0 0.0 4.0 0.0L223.0 0.0Q227.0 0.0 227.0 4.0L227.0 171.0Q227.0 175.0 223.0 175.0L4.0 175.0Q0.0 175.0 0.0 171.0Z" stroke="#323232" stroke-width="2.0" stroke-dasharray="none" opacity="1.0" fill="#ffffff"/><path id="ProcessOnPath1020" d="M0.0 30.0L227.0 30.0M0.0 102.5L227.0 102.5" stroke="#323232" stroke-width="2.0" stroke-dasharray="none" opacity="1.0" fill="none"/><path id="ProcessOnPath1021" d="M0.0 0.0L227.0 0.0L227.0 175.0L0.0 175.0Z" stroke="#323232" stroke-width="0.0" stroke-dasharray="none" opacity="1.0" fill="none"/><g id="ProcessOnG1022" transform="matrix(1.0,0.0,0.0,1.0,10.0,6.875)"><text id="ProcessOnText1023" fill="#000000" font-weight="bold" font-style="normal" text-decoration="blink" font-family="微软雅黑" text-anchor="middle" font-size="13" x="103.5" y="13.325">HRDepartment</text></g><g id="ProcessOnG1024" transform="matrix(1.0,0.0,0.0,1.0,10.0,58.125)"><text id="ProcessOnText1025" fill="#000000" font-weight="bold" font-style="normal" text-decoration="blink" font-family="微软雅黑" text-anchor="middle" font-size="13" x="103.5" y="13.325"></text></g><g id="ProcessOnG1026" transform="matrix(1.0,0.0,0.0,1.0,10.0,106.25)"><text id="ProcessOnText1027" fill="#000000" font-weight="bold" font-style="normal" text-decoration="blink" font-family="微软雅黑" text-anchor="middle" font-size="13" x="103.5" y="13.325">+add(Company c) : void</text><text id="ProcessOnText1028" fill="#000000" font-weight="bold" font-style="normal" text-decoration="blink" font-family="微软雅黑" text-anchor="middle" font-size="13" x="103.5" y="29.575">+remove(Company c) : void</text><text id="ProcessOnText1029" fill="#000000" font-weight="bold" font-style="normal" text-decoration="blink" font-family="微软雅黑" text-anchor="middle" font-size="13" x="103.5" y="45.825">+display(int depth) : void</text><text id="ProcessOnText1030" fill="#000000" font-weight="bold" font-style="normal" text-decoration="blink" font-family="微软雅黑" text-anchor="middle" font-size="13" x="103.5" y="62.075">+lineOfDuty() : void</text></g></g><g id="ProcessOnG1031" transform="matrix(1.0,0.0,0.0,1.0,111.0,361.0)" opacity="1.0"><path id="ProcessOnPath1032" d="M0.0 4.0Q0.0 0.0 4.0 0.0L221.0 0.0Q225.0 0.0 225.0 4.0L225.0 203.0Q225.0 207.0 221.0 207.0L4.0 207.0Q0.0 207.0 0.0 203.0Z" stroke="#323232" stroke-width="2.0" stroke-dasharray="none" opacity="1.0" fill="#ffffff"/><path id="ProcessOnPath1033" d="M0.0 30.0L225.0 30.0M0.0 118.5L225.0 118.5" stroke="#323232" stroke-width="2.0" stroke-dasharray="none" opacity="1.0" fill="none"/><path id="ProcessOnPath1034" d="M0.0 0.0L225.0 0.0L225.0 207.0L0.0 207.0Z" stroke="#323232" stroke-width="0.0" stroke-dasharray="none" opacity="1.0" fill="none"/><g id="ProcessOnG1035" transform="matrix(1.0,0.0,0.0,1.0,10.0,6.875)"><text id="ProcessOnText1036" fill="#000000" font-weight="bold" font-style="normal" text-decoration="blink" font-family="微软雅黑" text-anchor="middle" font-size="13" x="102.5" y="13.325">ConcreteCompany</text></g><g id="ProcessOnG1037" transform="matrix(1.0,0.0,0.0,1.0,10.0,66.125)"><text id="ProcessOnText1038" fill="#000000" font-weight="bold" font-style="normal" text-decoration="blink" font-family="微软雅黑" text-anchor="middle" font-size="13" x="102.5" y="13.325">-children : List&lt;Company&gt;</text></g><g id="ProcessOnG1039" transform="matrix(1.0,0.0,0.0,1.0,10.0,130.25)"><text id="ProcessOnText1040" fill="#000000" font-weight="bold" font-style="normal" text-decoration="blink" font-family="微软雅黑" text-anchor="middle" font-size="13" x="102.5" y="13.325">+add(Company c) : void</text><text id="ProcessOnText1041" fill="#000000" font-weight="bold" font-style="normal" text-decoration="blink" font-family="微软雅黑" text-anchor="middle" font-size="13" x="102.5" y="29.575">+remove(Company c) : void</text><text id="ProcessOnText1042" fill="#000000" font-weight="bold" font-style="normal" text-decoration="blink" font-family="微软雅黑" text-anchor="middle" font-size="13" x="102.5" y="45.825">+display(int depth) : void</text><text id="ProcessOnText1043" fill="#000000" font-weight="bold" font-style="normal" text-decoration="blink" font-family="微软雅黑" text-anchor="middle" font-size="13" x="102.5" y="62.075">+lineOfDuty() : void</text></g></g><g id="ProcessOnG1044" transform="matrix(1.0,0.0,0.0,1.0,663.0,361.0)" opacity="1.0"><path id="ProcessOnPath1045" d="M0.0 4.0Q0.0 0.0 4.0 0.0L235.0 0.0Q239.0 0.0 239.0 4.0L239.0 171.0Q239.0 175.0 235.0 175.0L4.0 175.0Q0.0 175.0 0.0 171.0Z" stroke="#323232" stroke-width="2.0" stroke-dasharray="none" opacity="1.0" fill="#ffffff"/><path id="ProcessOnPath1046" d="M0.0 30.0L239.0 30.0M0.0 102.5L239.0 102.5" stroke="#323232" stroke-width="2.0" stroke-dasharray="none" opacity="1.0" fill="none"/><path id="ProcessOnPath1047" d="M0.0 0.0L239.0 0.0L239.0 175.0L0.0 175.0Z" stroke="#323232" stroke-width="0.0" stroke-dasharray="none" opacity="1.0" fill="none"/><g id="ProcessOnG1048" transform="matrix(1.0,0.0,0.0,1.0,10.0,6.875)"><text id="ProcessOnText1049" fill="#000000" font-weight="bold" font-style="normal" text-decoration="blink" font-family="微软雅黑" text-anchor="middle" font-size="13" x="109.5" y="13.325">FinaceDepartment</text></g><g id="ProcessOnG1050" transform="matrix(1.0,0.0,0.0,1.0,10.0,58.125)"><text id="ProcessOnText1051" fill="#000000" font-weight="bold" font-style="normal" text-decoration="blink" font-family="微软雅黑" text-anchor="middle" font-size="13" x="109.5" y="13.325"></text></g><g id="ProcessOnG1052" transform="matrix(1.0,0.0,0.0,1.0,10.0,106.25)"><text id="ProcessOnText1053" fill="#000000" font-weight="bold" font-style="normal" text-decoration="blink" font-family="微软雅黑" text-anchor="middle" font-size="13" x="109.5" y="13.325">+add(Company c) : void</text><text id="ProcessOnText1054" fill="#000000" font-weight="bold" font-style="normal" text-decoration="blink" font-family="微软雅黑" text-anchor="middle" font-size="13" x="109.5" y="29.575">+remove(Company c) : void</text><text id="ProcessOnText1055" fill="#000000" font-weight="bold" font-style="normal" text-decoration="blink" font-family="微软雅黑" text-anchor="middle" font-size="13" x="109.5" y="45.825">+display(int depth) : void</text><text id="ProcessOnText1056" fill="#000000" font-weight="bold" font-style="normal" text-decoration="blink" font-family="微软雅黑" text-anchor="middle" font-size="13" x="109.5" y="62.075">+lineOfDuty() : void</text></g></g><g id="ProcessOnG1057"><path id="ProcessOnPath1058" d="M223.5 361.0L223.5 309.5L485.0 309.5L485.0 273.2360679774998" stroke="#323232" stroke-width="2.0" stroke-dasharray="none" fill="none" marker-end="url(#ProcessOnMarker1059)"/></g><g id="ProcessOnG1061"><path id="ProcessOnPath1062" d="M485.0 361.0L485.0 309.5L485.0 309.5L485.0 273.2360679774998" stroke="#323232" stroke-width="2.0" stroke-dasharray="none" fill="none" marker-end="url(#ProcessOnMarker1063)"/></g><g id="ProcessOnG1065"><path id="ProcessOnPath1066" d="M782.5 361.0L782.5 309.5L485.0 309.5L485.0 273.2360679774998" stroke="#323232" stroke-width="2.0" stroke-dasharray="none" fill="none" marker-end="url(#ProcessOnMarker1067)"/></g><g id="ProcessOnG1069"><path id="ProcessOnPath1070" d="M92.69523512903751 464.5L81.0 464.5L81.0 160.5L365.0 160.5" stroke="#323232" stroke-width="2.0" stroke-dasharray="none" fill="none" marker-start="url(#ProcessOnMarker1071)" marker-end="url(#ProcessOnMarker1073)"/></g></g></g></svg>