<svg xmlns="http://www.w3.org/2000/svg" xmlns:xlink="http://www.w3.org/1999/xlink" id="processonSvg1000" viewBox="136.0 47.5 830.0 376.5" width="830.0" height="376.5"><defs id="ProcessOnDefs1001"><marker id="ProcessOnMarker1025" markerUnits="userSpaceOnUse" orient="auto" markerWidth="16.23606797749979" markerHeight="10.550836550532098" viewBox="-1.0 -1.3763819204711736 16.23606797749979 10.550836550532098" refX="-1.0" refY="3.8990363547948754"><path id="ProcessOnPath1026" d="M12.0 3.8990363547948754L0.0 7.798072709589751V0.0Z" stroke="#323232" stroke-width="2.0" fill="#323232" transform="matrix(1.0,0.0,0.0,1.0,0.0,0.0)"/></marker><marker id="ProcessOnMarker1059" markerUnits="userSpaceOnUse" orient="auto" markerWidth="16.23606797749979" markerHeight="10.550836550532098" viewBox="-1.0 -1.3763819204711736 16.23606797749979 10.550836550532098" refX="-1.0" refY="3.8990363547948754"><path id="ProcessOnPath1060" d="M12.0 3.8990363547948754L0.0 7.798072709589751V0.0Z" stroke="#323232" stroke-width="2.0" fill="#323232" transform="matrix(1.0,0.0,0.0,1.0,0.0,0.0)"/></marker><marker id="ProcessOnMarker1063" markerUnits="userSpaceOnUse" orient="auto" markerWidth="16.23606797749979" markerHeight="10.550836550532098" viewBox="-1.0 -1.3763819204711736 16.23606797749979 10.550836550532098" refX="-1.0" refY="3.8990363547948754"><path id="ProcessOnPath1064" d="M12.0 3.8990363547948754L0.0 7.798072709589751V0.0Z" stroke="#323232" stroke-width="2.0" fill="#fff" transform="matrix(1.0,0.0,0.0,1.0,0.0,0.0)"/></marker><marker id="ProcessOnMarker1067" markerUnits="userSpaceOnUse" orient="auto" markerWidth="20.609529741924973" markerHeight="10.888175666885001" viewBox="-2.3047648709624866 -1.5914908829822711 20.609529741924973 10.888175666885001" refX="16.0" refY="3.8525969504602293"><path id="ProcessOnPath1068" d="M0 3.8525969504602293L8.0 0L16.0 3.8525969504602293L8.0 7.705193900920459Z" stroke="#323232" stroke-width="2.0" fill="#fff"/></marker><marker id="ProcessOnMarker1069" markerUnits="userSpaceOnUse" orient="auto" markerWidth="14.289086868996552" markerHeight="19.055054660878554" viewBox="-0.5877852522924731 -0.8090169943749475 14.289086868996552 19.055054660878554" refX="12.0" refY="8.71851033606433"><path id="ProcessOnPath1070" d="M0 0L12.0 8.71851033606433L0 17.43702067212866" stroke="#323232" stroke-width="2.0" fill="none" transform="matrix(1.0,0.0,0.0,1.0,0.0,0.0)"/></marker><marker id="ProcessOnMarker1073" markerUnits="userSpaceOnUse" orient="auto" markerWidth="14.289086868996552" markerHeight="19.055054660878554" viewBox="-0.5877852522924731 -0.8090169943749475 14.289086868996552 19.055054660878554" refX="12.0" refY="8.71851033606433"><path id="ProcessOnPath1074" d="M0 0L12.0 8.71851033606433L0 17.43702067212866" stroke="#323232" stroke-width="2.0" fill="none" transform="matrix(1.0,0.0,0.0,1.0,0.0,0.0)"/></marker></defs><g id="ProcessOnG1002"><path id="ProcessOnPath1003" d="M136.0 47.5H966.0V424.0H136.0V47.5Z" fill="#ffffff"/><g id="ProcessOnG1004"><g id="ProcessOnG1005" transform="matrix(1.0,0.0,0.0,1.0,357.0,308.0)" opacity="1.0"><path id="ProcessOnPath1006" d="M0.0 4.0Q0.0 0.0 4.0 0.0L165.0 0.0Q169.0 0.0 169.0 4.0L169.0 92.0Q169.0 96.0 165.0 96.0L4.0 96.0Q0.0 96.0 0.0 92.0Z" stroke="#323232" stroke-width="2.0" stroke-dasharray="none" opacity="1.0" fill="#ffffff"/><path id="ProcessOnPath1007" d="M0.0 30.0L169.0 30.0M0.0 63.0L169.0 63.0" stroke="#323232" stroke-width="2.0" stroke-dasharray="none" opacity="1.0" fill="none"/><path id="ProcessOnPath1008" d="M0.0 0.0L169.0 0.0L169.0 96.0L0.0 96.0Z" stroke="#323232" stroke-width="0.0" stroke-dasharray="none" opacity="1.0" fill="none"/><g id="ProcessOnG1009" transform="matrix(1.0,0.0,0.0,1.0,10.0,6.875)"><text id="ProcessOnText1010" fill="#000000" font-weight="bold" font-style="normal" text-decoration="blink" font-family="微软雅黑" text-anchor="middle" font-size="13" x="74.5" y="13.325">Morning</text></g><g id="ProcessOnG1011" transform="matrix(1.0,0.0,0.0,1.0,10.0,38.375)"><text id="ProcessOnText1012" fill="#000000" font-weight="bold" font-style="normal" text-decoration="blink" font-family="微软雅黑" text-anchor="middle" font-size="13" x="74.5" y="13.325"></text></g><g id="ProcessOnG1013" transform="matrix(1.0,0.0,0.0,1.0,10.0,71.375)"><text id="ProcessOnText1014" fill="#000000" font-weight="bold" font-style="normal" text-decoration="blink" font-family="微软雅黑" text-anchor="middle" font-size="13" x="74.5" y="13.325">+handle() : void</text></g></g><g id="ProcessOnG1015" transform="matrix(1.0,0.0,0.0,1.0,565.0,106.0)" opacity="1.0"><path id="ProcessOnPath1016" d="M0.0 4.0Q0.0 0.0 4.0 0.0L163.0 0.0Q167.0 0.0 167.0 4.0L167.0 75.0Q167.0 79.0 163.0 79.0L4.0 79.0Q0.0 79.0 0.0 75.0Z" stroke="#323232" stroke-width="2.0" stroke-dasharray="none" opacity="1.0" fill="#ffffff"/><path id="ProcessOnPath1017" d="M0.0 30.0L167.0 30.0" stroke="#323232" stroke-width="2.0" stroke-dasharray="none" opacity="1.0" fill="none"/><path id="ProcessOnPath1018" d="M0.0 0.0L167.0 0.0L167.0 79.0L0.0 79.0Z" stroke="#323232" stroke-width="0.0" stroke-dasharray="none" opacity="1.0" fill="none"/><g id="ProcessOnG1019" transform="matrix(1.0,0.0,0.0,1.0,10.0,6.875)"><text id="ProcessOnText1020" fill="#000000" font-weight="bold" font-style="normal" text-decoration="blink" font-family="微软雅黑" text-anchor="middle" font-size="13" x="73.5" y="13.325">State</text></g><g id="ProcessOnG1021" transform="matrix(1.0,0.0,0.0,1.0,10.0,46.375)"><text id="ProcessOnText1022" fill="#000000" font-weight="bold" font-style="normal" text-decoration="blink" font-family="微软雅黑" text-anchor="middle" font-size="13" x="73.5" y="13.325">#handle() : void</text></g></g><g id="ProcessOnG1023"><path id="ProcessOnPath1024" d="M441.5 308.0L441.5 246.5L648.5 246.5L648.5 200.2360679774998" stroke="#323232" stroke-width="2.0" stroke-dasharray="none" fill="none" marker-end="url(#ProcessOnMarker1025)"/></g><g id="ProcessOnG1027" transform="matrix(1.0,0.0,0.0,1.0,777.0,308.0)" opacity="1.0"><path id="ProcessOnPath1028" d="M0.0 4.0Q0.0 0.0 4.0 0.0L165.0 0.0Q169.0 0.0 169.0 4.0L169.0 92.0Q169.0 96.0 165.0 96.0L4.0 96.0Q0.0 96.0 0.0 92.0Z" stroke="#323232" stroke-width="2.0" stroke-dasharray="none" opacity="1.0" fill="#ffffff"/><path id="ProcessOnPath1029" d="M0.0 30.0L169.0 30.0M0.0 63.0L169.0 63.0" stroke="#323232" stroke-width="2.0" stroke-dasharray="none" opacity="1.0" fill="none"/><path id="ProcessOnPath1030" d="M0.0 0.0L169.0 0.0L169.0 96.0L0.0 96.0Z" stroke="#323232" stroke-width="0.0" stroke-dasharray="none" opacity="1.0" fill="none"/><g id="ProcessOnG1031" transform="matrix(1.0,0.0,0.0,1.0,10.0,6.875)"><text id="ProcessOnText1032" fill="#000000" font-weight="bold" font-style="normal" text-decoration="blink" font-family="微软雅黑" text-anchor="middle" font-size="13" x="74.5" y="13.325">Afternoon</text></g><g id="ProcessOnG1033" transform="matrix(1.0,0.0,0.0,1.0,10.0,38.375)"><text id="ProcessOnText1034" fill="#000000" font-weight="bold" font-style="normal" text-decoration="blink" font-family="微软雅黑" text-anchor="middle" font-size="13" x="74.5" y="13.325"></text></g><g id="ProcessOnG1035" transform="matrix(1.0,0.0,0.0,1.0,10.0,71.375)"><text id="ProcessOnText1036" fill="#000000" font-weight="bold" font-style="normal" text-decoration="blink" font-family="微软雅黑" text-anchor="middle" font-size="13" x="74.5" y="13.325">+handle() : void</text></g></g><g id="ProcessOnG1037" transform="matrix(1.0,0.0,0.0,1.0,564.0,308.0)" opacity="1.0"><path id="ProcessOnPath1038" d="M0.0 4.0Q0.0 0.0 4.0 0.0L165.0 0.0Q169.0 0.0 169.0 4.0L169.0 92.0Q169.0 96.0 165.0 96.0L4.0 96.0Q0.0 96.0 0.0 92.0Z" stroke="#323232" stroke-width="2.0" stroke-dasharray="none" opacity="1.0" fill="#ffffff"/><path id="ProcessOnPath1039" d="M0.0 30.0L169.0 30.0M0.0 63.0L169.0 63.0" stroke="#323232" stroke-width="2.0" stroke-dasharray="none" opacity="1.0" fill="none"/><path id="ProcessOnPath1040" d="M0.0 0.0L169.0 0.0L169.0 96.0L0.0 96.0Z" stroke="#323232" stroke-width="0.0" stroke-dasharray="none" opacity="1.0" fill="none"/><g id="ProcessOnG1041" transform="matrix(1.0,0.0,0.0,1.0,10.0,6.875)"><text id="ProcessOnText1042" fill="#000000" font-weight="bold" font-style="normal" text-decoration="blink" font-family="微软雅黑" text-anchor="middle" font-size="13" x="74.5" y="13.325">Noon</text></g><g id="ProcessOnG1043" transform="matrix(1.0,0.0,0.0,1.0,10.0,38.375)"><text id="ProcessOnText1044" fill="#000000" font-weight="bold" font-style="normal" text-decoration="blink" font-family="微软雅黑" text-anchor="middle" font-size="13" x="74.5" y="13.325"></text></g><g id="ProcessOnG1045" transform="matrix(1.0,0.0,0.0,1.0,10.0,71.375)"><text id="ProcessOnText1046" fill="#000000" font-weight="bold" font-style="normal" text-decoration="blink" font-family="微软雅黑" text-anchor="middle" font-size="13" x="74.5" y="13.325">+handle() : void</text></g></g><g id="ProcessOnG1047" transform="matrix(1.0,0.0,0.0,1.0,156.0,97.5)" opacity="1.0"><path id="ProcessOnPath1048" d="M0.0 4.0Q0.0 0.0 4.0 0.0L165.0 0.0Q169.0 0.0 169.0 4.0L169.0 92.0Q169.0 96.0 165.0 96.0L4.0 96.0Q0.0 96.0 0.0 92.0Z" stroke="#323232" stroke-width="2.0" stroke-dasharray="none" opacity="1.0" fill="#ffffff"/><path id="ProcessOnPath1049" d="M0.0 30.0L169.0 30.0M0.0 63.0L169.0 63.0" stroke="#323232" stroke-width="2.0" stroke-dasharray="none" opacity="1.0" fill="none"/><path id="ProcessOnPath1050" d="M0.0 0.0L169.0 0.0L169.0 96.0L0.0 96.0Z" stroke="#323232" stroke-width="0.0" stroke-dasharray="none" opacity="1.0" fill="none"/><g id="ProcessOnG1051" transform="matrix(1.0,0.0,0.0,1.0,10.0,6.875)"><text id="ProcessOnText1052" fill="#000000" font-weight="bold" font-style="normal" text-decoration="blink" font-family="微软雅黑" text-anchor="middle" font-size="13" x="74.5" y="13.325">Context</text></g><g id="ProcessOnG1053" transform="matrix(1.0,0.0,0.0,1.0,10.0,38.375)"><text id="ProcessOnText1054" fill="#000000" font-weight="bold" font-style="normal" text-decoration="blink" font-family="微软雅黑" text-anchor="middle" font-size="13" x="74.5" y="13.325"></text></g><g id="ProcessOnG1055" transform="matrix(1.0,0.0,0.0,1.0,10.0,71.375)"><text id="ProcessOnText1056" fill="#000000" font-weight="bold" font-style="normal" text-decoration="blink" font-family="微软雅黑" text-anchor="middle" font-size="13" x="74.5" y="13.325">+work() : void</text></g></g><g id="ProcessOnG1057"><path id="ProcessOnPath1058" d="M648.5 308.0L648.5 246.5L648.5 246.5L648.5 200.2360679774998" stroke="#323232" stroke-width="2.0" stroke-dasharray="none" fill="none" marker-end="url(#ProcessOnMarker1059)"/></g><g id="ProcessOnG1061"><path id="ProcessOnPath1062" d="M861.5 308.0L861.5 246.5L648.5 246.5L648.5 200.2360679774998" stroke="#323232" stroke-width="2.0" stroke-dasharray="none" fill="none" marker-end="url(#ProcessOnMarker1063)"/></g><g id="ProcessOnG1065"><path id="ProcessOnPath1066" d="M343.30476487096246 145.5L445.0 145.5L445.0 145.5L565.0 145.5" stroke="#323232" stroke-width="2.0" stroke-dasharray="none" fill="none" marker-start="url(#ProcessOnMarker1067)" marker-end="url(#ProcessOnMarker1069)"/></g><g id="ProcessOnG1071"><path id="ProcessOnPath1072" d="M648.5 106.0L648.5 67.5L240.5 67.5L240.5 97.5" stroke="#323232" stroke-width="2.0" stroke-dasharray="10.0 4.0" fill="none" marker-end="url(#ProcessOnMarker1073)"/></g></g></g></svg>