<svg xmlns="http://www.w3.org/2000/svg" xmlns:xlink="http://www.w3.org/1999/xlink" id="processonSvg1000" viewBox="46.0 69.0 858.0 485.0" width="858.0" height="485.0"><defs id="ProcessOnDefs1001"><marker id="ProcessOnMarker1062" markerUnits="userSpaceOnUse" orient="auto" markerWidth="16.23606797749979" markerHeight="10.550836550532098" viewBox="-1.0 -1.3763819204711736 16.23606797749979 10.550836550532098" refX="-1.0" refY="3.8990363547948754"><path id="ProcessOnPath1063" d="M12.0 3.8990363547948754L0.0 7.798072709589751V0.0Z" stroke="#323232" stroke-width="2.0" fill="#fff" transform="matrix(1.0,0.0,0.0,1.0,0.0,0.0)"/></marker><marker id="ProcessOnMarker1066" markerUnits="userSpaceOnUse" orient="auto" markerWidth="16.23606797749979" markerHeight="10.550836550532098" viewBox="-1.0 -1.3763819204711736 16.23606797749979 10.550836550532098" refX="-1.0" refY="3.8990363547948754"><path id="ProcessOnPath1067" d="M12.0 3.8990363547948754L0.0 7.798072709589751V0.0Z" stroke="#323232" stroke-width="2.0" fill="#fff" transform="matrix(1.0,0.0,0.0,1.0,0.0,0.0)"/></marker><marker id="ProcessOnMarker1070" markerUnits="userSpaceOnUse" orient="auto" markerWidth="16.23606797749979" markerHeight="10.550836550532098" viewBox="-1.0 -1.3763819204711736 16.23606797749979 10.550836550532098" refX="-1.0" refY="3.8990363547948754"><path id="ProcessOnPath1071" d="M12.0 3.8990363547948754L0.0 7.798072709589751V0.0Z" stroke="#323232" stroke-width="2.0" fill="#fff" transform="matrix(1.0,0.0,0.0,1.0,0.0,0.0)"/></marker><marker id="ProcessOnMarker1074" markerUnits="userSpaceOnUse" orient="auto" markerWidth="20.609529741924973" markerHeight="10.888175666885001" viewBox="-2.3047648709624866 -1.5914908829822711 20.609529741924973 10.888175666885001" refX="16.0" refY="3.8525969504602293"><path id="ProcessOnPath1075" d="M0 3.8525969504602293L8.0 0L16.0 3.8525969504602293L8.0 7.705193900920459Z" stroke="#323232" stroke-width="2.0" fill="#fff"/></marker><marker id="ProcessOnMarker1076" markerUnits="userSpaceOnUse" orient="auto" markerWidth="14.289086868996552" markerHeight="19.055054660878554" viewBox="-0.5877852522924731 -0.8090169943749475 14.289086868996552 19.055054660878554" refX="12.0" refY="8.71851033606433"><path id="ProcessOnPath1077" d="M0 0L12.0 8.71851033606433L0 17.43702067212866" stroke="#323232" stroke-width="2.0" fill="none" transform="matrix(1.0,0.0,0.0,1.0,0.0,0.0)"/></marker><marker id="ProcessOnMarker1080" markerUnits="userSpaceOnUse" orient="auto" markerWidth="14.289086868996552" markerHeight="19.055054660878554" viewBox="-0.5877852522924731 -0.8090169943749475 14.289086868996552 19.055054660878554" refX="12.0" refY="8.71851033606433"><path id="ProcessOnPath1081" d="M0 0L12.0 8.71851033606433L0 17.43702067212866" stroke="#323232" stroke-width="2.0" fill="none" transform="matrix(1.0,0.0,0.0,1.0,0.0,0.0)"/></marker><marker id="ProcessOnMarker1084" markerUnits="userSpaceOnUse" orient="auto" markerWidth="14.289086868996552" markerHeight="19.055054660878554" viewBox="-0.5877852522924731 -0.8090169943749475 14.289086868996552 19.055054660878554" refX="12.0" refY="8.71851033606433"><path id="ProcessOnPath1085" d="M0 0L12.0 8.71851033606433L0 17.43702067212866" stroke="#323232" stroke-width="2.0" fill="none" transform="matrix(1.0,0.0,0.0,1.0,0.0,0.0)"/></marker></defs><g id="ProcessOnG1002"><path id="ProcessOnPath1003" d="M46.0 69.0H904.0V554.0H46.0V69.0Z" fill="#ffffff"/><g id="ProcessOnG1004"><g id="ProcessOnG1005" transform="matrix(1.0,0.0,0.0,1.0,66.0,328.0)" opacity="1.0"><path id="ProcessOnPath1006" d="M0.0 4.0Q0.0 0.0 4.0 0.0L206.0 0.0Q210.0 0.0 210.0 4.0L210.0 146.0Q210.0 150.0 206.0 150.0L4.0 150.0Q0.0 150.0 0.0 146.0Z" stroke="#323232" stroke-width="2.0" stroke-dasharray="none" opacity="1.0" fill="#ffffff"/><path id="ProcessOnPath1007" d="M0.0 30.0L210.0 30.0M0.0 90.0L210.0 90.0" stroke="#323232" stroke-width="2.0" stroke-dasharray="none" opacity="1.0" fill="none"/><path id="ProcessOnPath1008" d="M0.0 0.0L210.0 0.0L210.0 150.0L0.0 150.0Z" stroke="#323232" stroke-width="0.0" stroke-dasharray="none" opacity="1.0" fill="none"/><g id="ProcessOnG1009" transform="matrix(1.0,0.0,0.0,1.0,10.0,6.875)"><text id="ProcessOnText1010" fill="#000000" font-weight="bold" font-style="normal" text-decoration="blink" font-family="微软雅黑" text-anchor="middle" font-size="13" x="95.0" y="13.325">StockObserver</text></g><g id="ProcessOnG1011" transform="matrix(1.0,0.0,0.0,1.0,10.0,43.75)"><text id="ProcessOnText1012" fill="#000000" font-weight="bold" font-style="normal" text-decoration="blink" font-family="微软雅黑" text-anchor="middle" font-size="13" x="95.0" y="13.325">-name : String</text><text id="ProcessOnText1013" fill="#000000" font-weight="bold" font-style="normal" text-decoration="blink" font-family="微软雅黑" text-anchor="middle" font-size="13" x="95.0" y="29.575">-subject : Subject</text></g><g id="ProcessOnG1014" transform="matrix(1.0,0.0,0.0,1.0,10.0,111.875)"><text id="ProcessOnText1015" fill="#000000" font-weight="bold" font-style="normal" text-decoration="blink" font-family="微软雅黑" text-anchor="middle" font-size="13" x="95.0" y="13.325">+update() : void</text></g></g><g id="ProcessOnG1016" transform="matrix(1.0,0.0,0.0,1.0,160.0,106.0)" opacity="1.0"><path id="ProcessOnPath1017" d="M0.0 4.0Q0.0 0.0 4.0 0.0L154.0 0.0Q158.0 0.0 158.0 4.0L158.0 107.0Q158.0 111.0 154.0 111.0L4.0 111.0Q0.0 111.0 0.0 107.0Z" stroke="#323232" stroke-width="2.0" stroke-dasharray="none" opacity="1.0" fill="#ffffff"/><path id="ProcessOnPath1018" d="M0.0 30.0L158.0 30.0" stroke="#323232" stroke-width="2.0" stroke-dasharray="none" opacity="1.0" fill="none"/><path id="ProcessOnPath1019" d="M0.0 0.0L158.0 0.0L158.0 111.0L0.0 111.0Z" stroke="#323232" stroke-width="0.0" stroke-dasharray="none" opacity="1.0" fill="none"/><g id="ProcessOnG1020" transform="matrix(1.0,0.0,0.0,1.0,10.0,6.875)"><text id="ProcessOnText1021" fill="#000000" font-weight="bold" font-style="normal" text-decoration="blink" font-family="微软雅黑" text-anchor="middle" font-size="13" x="69.0" y="13.325">Observer</text></g><g id="ProcessOnG1022" transform="matrix(1.0,0.0,0.0,1.0,10.0,62.375)"><text id="ProcessOnText1023" fill="#000000" font-weight="bold" font-style="normal" text-decoration="blink" font-family="微软雅黑" text-anchor="middle" font-size="13" x="69.0" y="13.325">+update() : void</text></g></g><g id="ProcessOnG1024" transform="matrix(1.0,0.0,0.0,1.0,315.0,328.0)" opacity="1.0"><path id="ProcessOnPath1025" d="M0.0 4.0Q0.0 0.0 4.0 0.0L206.0 0.0Q210.0 0.0 210.0 4.0L210.0 146.0Q210.0 150.0 206.0 150.0L4.0 150.0Q0.0 150.0 0.0 146.0Z" stroke="#323232" stroke-width="2.0" stroke-dasharray="none" opacity="1.0" fill="#ffffff"/><path id="ProcessOnPath1026" d="M0.0 30.0L210.0 30.0M0.0 90.0L210.0 90.0" stroke="#323232" stroke-width="2.0" stroke-dasharray="none" opacity="1.0" fill="none"/><path id="ProcessOnPath1027" d="M0.0 0.0L210.0 0.0L210.0 150.0L0.0 150.0Z" stroke="#323232" stroke-width="0.0" stroke-dasharray="none" opacity="1.0" fill="none"/><g id="ProcessOnG1028" transform="matrix(1.0,0.0,0.0,1.0,10.0,6.875)"><text id="ProcessOnText1029" fill="#000000" font-weight="bold" font-style="normal" text-decoration="blink" font-family="微软雅黑" text-anchor="middle" font-size="13" x="95.0" y="13.325">FootballObserver</text></g><g id="ProcessOnG1030" transform="matrix(1.0,0.0,0.0,1.0,10.0,43.75)"><text id="ProcessOnText1031" fill="#000000" font-weight="bold" font-style="normal" text-decoration="blink" font-family="微软雅黑" text-anchor="middle" font-size="13" x="95.0" y="13.325">-name : String</text><text id="ProcessOnText1032" fill="#000000" font-weight="bold" font-style="normal" text-decoration="blink" font-family="微软雅黑" text-anchor="middle" font-size="13" x="95.0" y="29.575">-subject : Subject</text></g><g id="ProcessOnG1033" transform="matrix(1.0,0.0,0.0,1.0,10.0,111.875)"><text id="ProcessOnText1034" fill="#000000" font-weight="bold" font-style="normal" text-decoration="blink" font-family="微软雅黑" text-anchor="middle" font-size="13" x="95.0" y="13.325">+update() : void</text></g></g><g id="ProcessOnG1035" transform="matrix(1.0,0.0,0.0,1.0,677.5,332.0)" opacity="1.0"><path id="ProcessOnPath1036" d="M0.0 4.0Q0.0 0.0 4.0 0.0L199.0 0.0Q203.0 0.0 203.0 4.0L203.0 198.0Q203.0 202.0 199.0 202.0L4.0 202.0Q0.0 202.0 0.0 198.0Z" stroke="#323232" stroke-width="2.0" stroke-dasharray="none" opacity="1.0" fill="#ffffff"/><path id="ProcessOnPath1037" d="M0.0 30.0L203.0 30.0M0.0 116.0L203.0 116.0" stroke="#323232" stroke-width="2.0" stroke-dasharray="none" opacity="1.0" fill="none"/><path id="ProcessOnPath1038" d="M0.0 0.0L203.0 0.0L203.0 202.0L0.0 202.0Z" stroke="#323232" stroke-width="0.0" stroke-dasharray="none" opacity="1.0" fill="none"/><g id="ProcessOnG1039" transform="matrix(1.0,0.0,0.0,1.0,10.0,6.875)"><text id="ProcessOnText1040" fill="#000000" font-weight="bold" font-style="normal" text-decoration="blink" font-family="微软雅黑" text-anchor="middle" font-size="13" x="91.5" y="13.325">Secretary</text></g><g id="ProcessOnG1041" transform="matrix(1.0,0.0,0.0,1.0,10.0,56.75)"><text id="ProcessOnText1042" fill="#000000" font-weight="bold" font-style="normal" text-decoration="blink" font-family="微软雅黑" text-anchor="middle" font-size="13" x="91.5" y="13.325">-observers : List</text><text id="ProcessOnText1043" fill="#000000" font-weight="bold" font-style="normal" text-decoration="blink" font-family="微软雅黑" text-anchor="middle" font-size="13" x="91.5" y="29.575">-state : String</text></g><g id="ProcessOnG1044" transform="matrix(1.0,0.0,0.0,1.0,10.0,126.5)"><text id="ProcessOnText1045" fill="#000000" font-weight="bold" font-style="normal" text-decoration="blink" font-family="微软雅黑" text-anchor="middle" font-size="13" x="91.5" y="13.325">+attach(xx) : void</text><text id="ProcessOnText1046" fill="#000000" font-weight="bold" font-style="normal" text-decoration="blink" font-family="微软雅黑" text-anchor="middle" font-size="13" x="91.5" y="29.575">+detach(xx) : void</text><text id="ProcessOnText1047" fill="#000000" font-weight="bold" font-style="normal" text-decoration="blink" font-family="微软雅黑" text-anchor="middle" font-size="13" x="91.5" y="45.825">+notifyALL() : void</text><text id="ProcessOnText1048" fill="#000000" font-weight="bold" font-style="normal" text-decoration="blink" font-family="微软雅黑" text-anchor="middle" font-size="13" x="91.5" y="62.075">+getState() : String</text></g></g><g id="ProcessOnG1049" transform="matrix(1.0,0.0,0.0,1.0,674.0,89.0)" opacity="1.0"><path id="ProcessOnPath1050" d="M0.0 4.0Q0.0 0.0 4.0 0.0L206.0 0.0Q210.0 0.0 210.0 4.0L210.0 146.0Q210.0 150.0 206.0 150.0L4.0 150.0Q0.0 150.0 0.0 146.0Z" stroke="#323232" stroke-width="2.0" stroke-dasharray="none" opacity="1.0" fill="#ffffff"/><path id="ProcessOnPath1051" d="M0.0 30.0L210.0 30.0" stroke="#323232" stroke-width="2.0" stroke-dasharray="none" opacity="1.0" fill="none"/><path id="ProcessOnPath1052" d="M0.0 0.0L210.0 0.0L210.0 150.0L0.0 150.0Z" stroke="#323232" stroke-width="0.0" stroke-dasharray="none" opacity="1.0" fill="none"/><g id="ProcessOnG1053" transform="matrix(1.0,0.0,0.0,1.0,10.0,6.875)"><text id="ProcessOnText1054" fill="#000000" font-weight="bold" font-style="normal" text-decoration="blink" font-family="微软雅黑" text-anchor="middle" font-size="13" x="95.0" y="13.325">Subject</text></g><g id="ProcessOnG1055" transform="matrix(1.0,0.0,0.0,1.0,10.0,57.5)"><text id="ProcessOnText1056" fill="#000000" font-weight="bold" font-style="normal" text-decoration="blink" font-family="微软雅黑" text-anchor="middle" font-size="13" x="95.0" y="13.325">+attach(xx) : void</text><text id="ProcessOnText1057" fill="#000000" font-weight="bold" font-style="normal" text-decoration="blink" font-family="微软雅黑" text-anchor="middle" font-size="13" x="95.0" y="29.575">+detach(xx) : void</text><text id="ProcessOnText1058" fill="#000000" font-weight="bold" font-style="normal" text-decoration="blink" font-family="微软雅黑" text-anchor="middle" font-size="13" x="95.0" y="45.825">+notifyALL() : void</text><text id="ProcessOnText1059" fill="#000000" font-weight="bold" font-style="normal" text-decoration="blink" font-family="微软雅黑" text-anchor="middle" font-size="13" x="95.0" y="62.075">+getState() : String</text></g></g><g id="ProcessOnG1060"><path id="ProcessOnPath1061" d="M171.0 328.0L171.0 272.5L239.0 272.5L239.0 232.2360679774998" stroke="#323232" stroke-width="2.0" stroke-dasharray="10.0 4.0" fill="none" marker-end="url(#ProcessOnMarker1062)"/></g><g id="ProcessOnG1064"><path id="ProcessOnPath1065" d="M420.0 328.0L420.0 272.5L239.0 272.5L239.0 232.2360679774998" stroke="#323232" stroke-width="2.0" stroke-dasharray="10.0 4.0" fill="none" marker-end="url(#ProcessOnMarker1066)"/></g><g id="ProcessOnG1068"><path id="ProcessOnPath1069" d="M779.0 332.0L779.0 285.5L779.0 285.5L779.0 254.2360679774998" stroke="#323232" stroke-width="2.0" stroke-dasharray="10.0 4.0" fill="none" marker-end="url(#ProcessOnMarker1070)"/></g><g id="ProcessOnG1072"><path id="ProcessOnPath1073" d="M659.1952351290375 433.0L579.75 433.0L579.75 161.5L318.0 161.5" stroke="#323232" stroke-width="2.0" stroke-dasharray="none" fill="none" marker-start="url(#ProcessOnMarker1074)" marker-end="url(#ProcessOnMarker1076)"/></g><g id="ProcessOnG1078"><path id="ProcessOnPath1079" d="M171.0 478.0L171.0 508.0L644.0 508.0L644.0 164.0L674.0 164.0" stroke="#323232" stroke-width="2.0" stroke-dasharray="none" fill="none" marker-end="url(#ProcessOnMarker1080)"/></g><g id="ProcessOnG1082"><path id="ProcessOnPath1083" d="M420.0 478.0L420.0 534.0L627.0 534.0L627.0 164.0L674.0 164.0" stroke="#323232" stroke-width="2.0" stroke-dasharray="none" fill="none" marker-end="url(#ProcessOnMarker1084)"/></g></g></g></svg>