<svg xmlns="http://www.w3.org/2000/svg" xmlns:xlink="http://www.w3.org/1999/xlink" id="processonSvg1000" viewBox="96.00285339355469 259.55113792419434 495.0 248.0" width="495.0" height="248.0"><defs id="ProcessOnDefs1001"><marker id="ProcessOnMarker1023" markerUnits="userSpaceOnUse" orient="auto" markerWidth="16.23606797749979" markerHeight="10.550836550532098" viewBox="-1.0 -1.3763819204711736 16.23606797749979 10.550836550532098" refX="-1.0" refY="3.8990363547948754"><path id="ProcessOnPath1024" d="M12.0 3.8990363547948754L0.0 7.798072709589751V0.0Z" stroke="#323232" stroke-width="2.0" fill="#323232" transform="matrix(1.0,0.0,0.0,1.0,0.0,0.0)"/></marker><marker id="ProcessOnMarker1027" markerUnits="userSpaceOnUse" orient="auto" markerWidth="16.23606797749979" markerHeight="10.550836550532098" viewBox="-1.0 -1.3763819204711736 16.23606797749979 10.550836550532098" refX="-1.0" refY="3.8990363547948754"><path id="ProcessOnPath1028" d="M12.0 3.8990363547948754L0.0 7.798072709589751V0.0Z" stroke="#323232" stroke-width="2.0" fill="#323232" transform="matrix(1.0,0.0,0.0,1.0,0.0,0.0)"/></marker><marker id="ProcessOnMarker1031" markerUnits="userSpaceOnUse" orient="auto" markerWidth="16.23606797749979" markerHeight="10.550836550532098" viewBox="-1.0 -1.3763819204711736 16.23606797749979 10.550836550532098" refX="-1.0" refY="3.8990363547948754"><path id="ProcessOnPath1032" d="M12.0 3.8990363547948754L0.0 7.798072709589751V0.0Z" stroke="#323232" stroke-width="2.0" fill="#323232" transform="matrix(1.0,0.0,0.0,1.0,0.0,0.0)"/></marker></defs><g id="ProcessOnG1002"><path id="ProcessOnPath1003" d="M96.00285339355469 259.55113792419434H591.0028533935547V507.55113792419434H96.00285339355469V259.55113792419434Z" fill="none"/><g id="ProcessOnG1004"><g id="ProcessOnG1005" transform="matrix(1.0,0.0,0.0,1.0,116.00285339355469,279.55113792419434)" opacity="1.0"><path id="ProcessOnPath1006" d="M0.0 0.0L100.0 0.0L100.0 70.0L0.0 70.0Z" stroke="#323232" stroke-width="2.0" stroke-dasharray="none" opacity="1.0" fill="#ffffff"/><g id="ProcessOnG1007" transform="matrix(1.0,0.0,0.0,1.0,10.0,26.875)"><text id="ProcessOnText1008" fill="#000000" font-weight="normal" font-style="normal" text-decoration="blink" font-family="微软雅黑" text-anchor="middle" font-size="13" x="40.0" y="13.325">Java代码</text></g></g><g id="ProcessOnG1009" transform="matrix(1.0,0.0,0.0,1.0,289.0028533935547,279.55113792419434)" opacity="1.0"><path id="ProcessOnPath1010" d="M0.0 0.0L100.0 0.0L100.0 70.0L0.0 70.0Z" stroke="#323232" stroke-width="2.0" stroke-dasharray="none" opacity="1.0" fill="#ffe6cc"/><g id="ProcessOnG1011" transform="matrix(1.0,0.0,0.0,1.0,10.0,26.875)"><text id="ProcessOnText1012" fill="#000000" font-weight="normal" font-style="normal" text-decoration="blink" font-family="微软雅黑" text-anchor="middle" font-size="13" x="40.0" y="13.325">Java字节码</text></g></g><g id="ProcessOnG1013" transform="matrix(1.0,0.0,0.0,1.0,289.0028533935547,417.55113792419434)" opacity="1.0"><path id="ProcessOnPath1014" d="M0.0 0.0L100.0 0.0L83.33333333333333 70.0L16.666666666666668 70.0L0.0 0.0Z" stroke="#323232" stroke-width="2.0" stroke-dasharray="none" opacity="1.0" fill="#ff9999"/><g id="ProcessOnG1015" transform="matrix(1.0,0.0,0.0,1.0,10.0,26.875)"><text id="ProcessOnText1016" fill="#000000" font-weight="normal" font-style="normal" text-decoration="blink" font-family="微软雅黑" text-anchor="middle" font-size="13" x="40.0" y="13.325">JVM容器</text></g></g><g id="ProcessOnG1017" transform="matrix(1.0,0.0,0.0,1.0,471.0028533935547,417.55113792419434)" opacity="1.0"><path id="ProcessOnPath1018" d="M0.0 8.333333333333334Q25.0 25.0 50.0 8.333333333333334Q75.0 -8.333333333333334 100.0 8.333333333333334L100.0 61.666666666666664Q75.0 45.0 50.0 61.666666666666664Q25.0 78.33333333333333 0.0 61.666666666666664L0.0 8.333333333333334Z" stroke="#323232" stroke-width="2.0" stroke-dasharray="none" opacity="1.0" fill="#ff6666"/><g id="ProcessOnG1019" transform="matrix(1.0,0.0,0.0,1.0,0.0,26.875)"><text id="ProcessOnText1020" fill="#000000" font-weight="normal" font-style="normal" text-decoration="blink" font-family="微软雅黑" text-anchor="middle" font-size="13" x="50.0" y="13.325">汇编指令</text></g></g><g id="ProcessOnG1021"><path id="ProcessOnPath1022" d="M216.0028533935547 314.55113792419434L252.5028533935547 314.55113792419434L252.5028533935547 314.55113792419434L273.7667854160549 314.55113792419434" stroke="#323232" stroke-width="2.0" stroke-dasharray="none" fill="none" marker-end="url(#ProcessOnMarker1023)"/></g><g id="ProcessOnG1025"><path id="ProcessOnPath1026" d="M339.0028533935547 349.55113792419434L339.0028533935547 383.55113792419434L339.0028533935547 383.55113792419434L339.0028533935547 402.31506994669456" stroke="#323232" stroke-width="2.0" stroke-dasharray="none" fill="none" marker-end="url(#ProcessOnMarker1027)"/></g><g id="ProcessOnG1029"><path id="ProcessOnPath1030" d="M380.6695200602214 452.55113792419434L425.83618672688806 452.55113792419434L425.83618672688806 452.55113792419434L455.7667854160549 452.55113792419434" stroke="#323232" stroke-width="2.0" stroke-dasharray="none" fill="none" marker-end="url(#ProcessOnMarker1031)"/></g><g id="ProcessOnG1033" transform="matrix(1.0,0.0,0.0,1.0,471.0028533935547,387.3693218231201)" opacity="1.0"><path id="ProcessOnPath1034" d="M0.0 0.0L95.0 0.0L95.0 21.18181610107422L0.0 21.18181610107422Z" stroke="#323232" stroke-width="0.0" stroke-dasharray="none" opacity="1.0" fill="none"/><g id="ProcessOnG1035" transform="matrix(1.0,0.0,0.0,1.0,0.0,0.5909080505371094)"><text id="ProcessOnText1036" fill="#000000" font-weight="bold" font-style="normal" text-decoration="blink" font-family="微软雅黑" text-anchor="middle" font-size="16" x="47.5" y="16.4">CPU</text></g></g><g id="ProcessOnG1037" transform="matrix(1.0,0.0,0.0,1.0,208.0028533935547,286.73295402526855)" opacity="1.0"><path id="ProcessOnPath1038" d="M0.0 0.0L81.0 0.0L81.0 34.0L0.0 34.0Z" stroke="#323232" stroke-width="0.0" stroke-dasharray="none" opacity="1.0" fill="none"/><g id="ProcessOnG1039" transform="matrix(1.0,0.0,0.0,1.0,0.0,8.875)"><text id="ProcessOnText1040" fill="#000000" font-weight="normal" font-style="normal" text-decoration="blink" font-family="微软雅黑" text-anchor="middle" font-size="13" x="40.5" y="13.325">编译</text></g></g><g id="ProcessOnG1041" transform="matrix(1.0,0.0,0.0,1.0,284.0028533935547,364.55113792419434)" opacity="1.0"><path id="ProcessOnPath1042" d="M0.0 0.0L72.0 0.0L72.0 44.0L0.0 44.0Z" stroke="#323232" stroke-width="0.0" stroke-dasharray="none" opacity="1.0" fill="none"/><g id="ProcessOnG1043" transform="matrix(1.0,0.0,0.0,1.0,0.0,13.875)"><text id="ProcessOnText1044" fill="#000000" font-weight="normal" font-style="normal" text-decoration="blink" font-family="微软雅黑" text-anchor="middle" font-size="13" x="36.0" y="13.325">加载</text></g></g></g></g></svg>