<svg xmlns="http://www.w3.org/2000/svg" xmlns:xlink="http://www.w3.org/1999/xlink" id="processonSvg1000" viewBox="153.0 62.0 830.0 359.0" width="830.0" height="359.0"><defs id="ProcessOnDefs1001"><marker id="ProcessOnMarker1060" markerUnits="userSpaceOnUse" orient="auto" markerWidth="16.23606797749979" markerHeight="10.550836550532098" viewBox="-1.0 -1.3763819204711736 16.23606797749979 10.550836550532098" refX="-1.0" refY="3.8990363547948754"><path id="ProcessOnPath1061" d="M12.0 3.8990363547948754L0.0 7.798072709589751V0.0Z" stroke="#323232" stroke-width="2.0" fill="#323232" transform="matrix(1.0,0.0,0.0,1.0,0.0,0.0)"/></marker><marker id="ProcessOnMarker1064" markerUnits="userSpaceOnUse" orient="auto" markerWidth="16.23606797749979" markerHeight="10.550836550532098" viewBox="-1.0 -1.3763819204711736 16.23606797749979 10.550836550532098" refX="-1.0" refY="3.8990363547948754"><path id="ProcessOnPath1065" d="M12.0 3.8990363547948754L0.0 7.798072709589751V0.0Z" stroke="#323232" stroke-width="2.0" fill="#fff" transform="matrix(1.0,0.0,0.0,1.0,0.0,0.0)"/></marker><marker id="ProcessOnMarker1068" markerUnits="userSpaceOnUse" orient="auto" markerWidth="14.289086868996552" markerHeight="19.055054660878554" viewBox="-0.5877852522924731 -0.8090169943749475 14.289086868996552 19.055054660878554" refX="12.0" refY="8.71851033606433"><path id="ProcessOnPath1069" d="M0 0L12.0 8.71851033606433L0 17.43702067212866" stroke="#323232" stroke-width="2.0" fill="none" transform="matrix(1.0,0.0,0.0,1.0,0.0,0.0)"/></marker><marker id="ProcessOnMarker1072" markerUnits="userSpaceOnUse" orient="auto" markerWidth="20.609529741924973" markerHeight="10.888175666885001" viewBox="-2.3047648709624866 -1.5914908829822711 20.609529741924973 10.888175666885001" refX="16.0" refY="3.8525969504602293"><path id="ProcessOnPath1073" d="M0 3.8525969504602293L8.0 0L16.0 3.8525969504602293L8.0 7.705193900920459Z" stroke="#323232" stroke-width="2.0" fill="#fff"/></marker><marker id="ProcessOnMarker1074" markerUnits="userSpaceOnUse" orient="auto" markerWidth="14.289086868996552" markerHeight="19.055054660878554" viewBox="-0.5877852522924731 -0.8090169943749475 14.289086868996552 19.055054660878554" refX="12.0" refY="8.71851033606433"><path id="ProcessOnPath1075" d="M0 0L12.0 8.71851033606433L0 17.43702067212866" stroke="#323232" stroke-width="2.0" fill="none" transform="matrix(1.0,0.0,0.0,1.0,0.0,0.0)"/></marker></defs><g id="ProcessOnG1002"><path id="ProcessOnPath1003" d="M153.0 62.0H983.0V421.0H153.0V62.0Z" fill="#ffffff"/><g id="ProcessOnG1004"><g id="ProcessOnG1005" transform="matrix(1.0,0.0,0.0,1.0,173.0,82.0)" opacity="1.0"><path id="ProcessOnPath1006" d="M0.0 4.0Q0.0 0.0 4.0 0.0L140.0 0.0Q144.0 0.0 144.0 4.0L144.0 133.0Q144.0 137.0 140.0 137.0L4.0 137.0Q0.0 137.0 0.0 133.0Z" stroke="#323232" stroke-width="2.0" stroke-dasharray="none" opacity="1.0" fill="#ffffff"/><path id="ProcessOnPath1007" d="M0.0 30.0L144.0 30.0M0.0 83.5L144.0 83.5" stroke="#323232" stroke-width="2.0" stroke-dasharray="none" opacity="1.0" fill="none"/><path id="ProcessOnPath1008" d="M0.0 0.0L144.0 0.0L144.0 137.0L0.0 137.0Z" stroke="#323232" stroke-width="0.0" stroke-dasharray="none" opacity="1.0" fill="none"/><g id="ProcessOnG1009" transform="matrix(1.0,0.0,0.0,1.0,10.0,6.875)"><text id="ProcessOnText1010" fill="#000000" font-weight="bold" font-style="normal" text-decoration="blink" font-family="微软雅黑" text-anchor="middle" font-size="13" x="62.0" y="13.325">Waitress</text></g><g id="ProcessOnG1011" transform="matrix(1.0,0.0,0.0,1.0,10.0,48.625)"><text id="ProcessOnText1012" fill="#000000" font-weight="bold" font-style="normal" text-decoration="blink" font-family="微软雅黑" text-anchor="middle" font-size="13" x="62.0" y="13.325"></text></g><g id="ProcessOnG1013" transform="matrix(1.0,0.0,0.0,1.0,10.0,85.875)"><text id="ProcessOnText1014" fill="#000000" font-weight="bold" font-style="normal" text-decoration="blink" font-family="微软雅黑" text-anchor="middle" font-size="13" x="62.0" y="13.325">+receive()</text><text id="ProcessOnText1015" fill="#000000" font-weight="bold" font-style="normal" text-decoration="blink" font-family="微软雅黑" text-anchor="middle" font-size="13" x="62.0" y="29.575">+cancel()</text><text id="ProcessOnText1016" fill="#000000" font-weight="bold" font-style="normal" text-decoration="blink" font-family="微软雅黑" text-anchor="middle" font-size="13" x="62.0" y="45.825">+transmit()</text></g></g><g id="ProcessOnG1017" transform="matrix(1.0,0.0,0.0,1.0,816.0,97.0)" opacity="1.0"><path id="ProcessOnPath1018" d="M0.0 4.0Q0.0 0.0 4.0 0.0L143.0 0.0Q147.0 0.0 147.0 4.0L147.0 103.0Q147.0 107.0 143.0 107.0L4.0 107.0Q0.0 107.0 0.0 103.0Z" stroke="#323232" stroke-width="2.0" stroke-dasharray="none" opacity="1.0" fill="#ffffff"/><path id="ProcessOnPath1019" d="M0.0 30.0L147.0 30.0M0.0 68.5L147.0 68.5" stroke="#323232" stroke-width="2.0" stroke-dasharray="none" opacity="1.0" fill="none"/><path id="ProcessOnPath1020" d="M0.0 0.0L147.0 0.0L147.0 107.0L0.0 107.0Z" stroke="#323232" stroke-width="0.0" stroke-dasharray="none" opacity="1.0" fill="none"/><g id="ProcessOnG1021" transform="matrix(1.0,0.0,0.0,1.0,10.0,6.875)"><text id="ProcessOnText1022" fill="#000000" font-weight="bold" font-style="normal" text-decoration="blink" font-family="微软雅黑" text-anchor="middle" font-size="13" x="63.5" y="13.325">Chef</text></g><g id="ProcessOnG1023" transform="matrix(1.0,0.0,0.0,1.0,10.0,41.125)"><text id="ProcessOnText1024" fill="#000000" font-weight="bold" font-style="normal" text-decoration="blink" font-family="微软雅黑" text-anchor="middle" font-size="13" x="63.5" y="13.325"></text></g><g id="ProcessOnG1025" transform="matrix(1.0,0.0,0.0,1.0,10.0,71.5)"><text id="ProcessOnText1026" fill="#000000" font-weight="bold" font-style="normal" text-decoration="blink" font-family="微软雅黑" text-anchor="middle" font-size="13" x="63.5" y="13.325">+bakeBeef()</text><text id="ProcessOnText1027" fill="#000000" font-weight="bold" font-style="normal" text-decoration="blink" font-family="微软雅黑" text-anchor="middle" font-size="13" x="63.5" y="29.575">+bakeMutton()</text></g></g><g id="ProcessOnG1028" transform="matrix(1.0,0.0,0.0,1.0,632.0,294.0)" opacity="1.0"><path id="ProcessOnPath1029" d="M0.0 4.0Q0.0 0.0 4.0 0.0L143.0 0.0Q147.0 0.0 147.0 4.0L147.0 103.0Q147.0 107.0 143.0 107.0L4.0 107.0Q0.0 107.0 0.0 103.0Z" stroke="#323232" stroke-width="2.0" stroke-dasharray="none" opacity="1.0" fill="#ffffff"/><path id="ProcessOnPath1030" d="M0.0 30.0L147.0 30.0M0.0 68.5L147.0 68.5" stroke="#323232" stroke-width="2.0" stroke-dasharray="none" opacity="1.0" fill="none"/><path id="ProcessOnPath1031" d="M0.0 0.0L147.0 0.0L147.0 107.0L0.0 107.0Z" stroke="#323232" stroke-width="0.0" stroke-dasharray="none" opacity="1.0" fill="none"/><g id="ProcessOnG1032" transform="matrix(1.0,0.0,0.0,1.0,10.0,6.875)"><text id="ProcessOnText1033" fill="#000000" font-weight="bold" font-style="normal" text-decoration="blink" font-family="微软雅黑" text-anchor="middle" font-size="13" x="63.5" y="13.325">BakeBeef</text></g><g id="ProcessOnG1034" transform="matrix(1.0,0.0,0.0,1.0,10.0,41.125)"><text id="ProcessOnText1035" fill="#000000" font-weight="bold" font-style="normal" text-decoration="blink" font-family="微软雅黑" text-anchor="middle" font-size="13" x="63.5" y="13.325"></text></g><g id="ProcessOnG1036" transform="matrix(1.0,0.0,0.0,1.0,10.0,79.625)"><text id="ProcessOnText1037" fill="#000000" font-weight="bold" font-style="normal" text-decoration="blink" font-family="微软雅黑" text-anchor="middle" font-size="13" x="63.5" y="13.325">+execute()</text></g></g><g id="ProcessOnG1038" transform="matrix(1.0,0.0,0.0,1.0,399.0,294.0)" opacity="1.0"><path id="ProcessOnPath1039" d="M0.0 4.0Q0.0 0.0 4.0 0.0L143.0 0.0Q147.0 0.0 147.0 4.0L147.0 103.0Q147.0 107.0 143.0 107.0L4.0 107.0Q0.0 107.0 0.0 103.0Z" stroke="#323232" stroke-width="2.0" stroke-dasharray="none" opacity="1.0" fill="#ffffff"/><path id="ProcessOnPath1040" d="M0.0 30.0L147.0 30.0M0.0 68.5L147.0 68.5" stroke="#323232" stroke-width="2.0" stroke-dasharray="none" opacity="1.0" fill="none"/><path id="ProcessOnPath1041" d="M0.0 0.0L147.0 0.0L147.0 107.0L0.0 107.0Z" stroke="#323232" stroke-width="0.0" stroke-dasharray="none" opacity="1.0" fill="none"/><g id="ProcessOnG1042" transform="matrix(1.0,0.0,0.0,1.0,10.0,6.875)"><text id="ProcessOnText1043" fill="#000000" font-weight="bold" font-style="normal" text-decoration="blink" font-family="微软雅黑" text-anchor="middle" font-size="13" x="63.5" y="13.325">BakeMutton</text></g><g id="ProcessOnG1044" transform="matrix(1.0,0.0,0.0,1.0,10.0,41.125)"><text id="ProcessOnText1045" fill="#000000" font-weight="bold" font-style="normal" text-decoration="blink" font-family="微软雅黑" text-anchor="middle" font-size="13" x="63.5" y="13.325"></text></g><g id="ProcessOnG1046" transform="matrix(1.0,0.0,0.0,1.0,10.0,79.625)"><text id="ProcessOnText1047" fill="#000000" font-weight="bold" font-style="normal" text-decoration="blink" font-family="微软雅黑" text-anchor="middle" font-size="13" x="63.5" y="13.325">+execute()</text></g></g><g id="ProcessOnG1048" transform="matrix(1.0,0.0,0.0,1.0,513.0,97.0)" opacity="1.0"><path id="ProcessOnPath1049" d="M0.0 4.0Q0.0 0.0 4.0 0.0L143.0 0.0Q147.0 0.0 147.0 4.0L147.0 103.0Q147.0 107.0 143.0 107.0L4.0 107.0Q0.0 107.0 0.0 103.0Z" stroke="#323232" stroke-width="2.0" stroke-dasharray="none" opacity="1.0" fill="#ffffff"/><path id="ProcessOnPath1050" d="M0.0 30.0L147.0 30.0M0.0 68.5L147.0 68.5" stroke="#323232" stroke-width="2.0" stroke-dasharray="none" opacity="1.0" fill="none"/><path id="ProcessOnPath1051" d="M0.0 0.0L147.0 0.0L147.0 107.0L0.0 107.0Z" stroke="#323232" stroke-width="0.0" stroke-dasharray="none" opacity="1.0" fill="none"/><g id="ProcessOnG1052" transform="matrix(1.0,0.0,0.0,1.0,10.0,6.875)"><text id="ProcessOnText1053" fill="#000000" font-weight="bold" font-style="normal" text-decoration="blink" font-family="微软雅黑" text-anchor="middle" font-size="13" x="63.5" y="13.325">Order</text></g><g id="ProcessOnG1054" transform="matrix(1.0,0.0,0.0,1.0,10.0,41.125)"><text id="ProcessOnText1055" fill="#000000" font-weight="bold" font-style="normal" text-decoration="blink" font-family="微软雅黑" text-anchor="middle" font-size="13" x="63.5" y="13.325">#chef : Chef</text></g><g id="ProcessOnG1056" transform="matrix(1.0,0.0,0.0,1.0,10.0,79.625)"><text id="ProcessOnText1057" fill="#000000" font-weight="bold" font-style="normal" text-decoration="blink" font-family="微软雅黑" text-anchor="middle" font-size="13" x="63.5" y="13.325">+execute()</text></g></g><g id="ProcessOnG1058"><path id="ProcessOnPath1059" d="M472.5 294.0L472.5 249.0L586.5 249.0L586.5 219.2360679774998" stroke="#323232" stroke-width="2.0" stroke-dasharray="none" fill="none" marker-end="url(#ProcessOnMarker1060)"/></g><g id="ProcessOnG1062"><path id="ProcessOnPath1063" d="M705.5 294.0L705.5 249.0L586.5 249.0L586.5 219.2360679774998" stroke="#323232" stroke-width="2.0" stroke-dasharray="none" fill="none" marker-end="url(#ProcessOnMarker1064)"/></g><g id="ProcessOnG1066"><path id="ProcessOnPath1067" d="M660.0 150.5L738.0 150.5L738.0 150.5L816.0 150.5" stroke="#323232" stroke-width="2.0" stroke-dasharray="none" fill="none" marker-end="url(#ProcessOnMarker1068)"/></g><g id="ProcessOnG1070"><path id="ProcessOnPath1071" d="M335.30476487096246 150.5L415.0 150.5L415.0 150.5L513.0 150.5" stroke="#323232" stroke-width="2.0" stroke-dasharray="none" fill="none" marker-start="url(#ProcessOnMarker1072)" marker-end="url(#ProcessOnMarker1074)"/></g></g></g></svg>