<svg xmlns="http://www.w3.org/2000/svg" xmlns:xlink="http://www.w3.org/1999/xlink" id="processonSvg1000" viewBox="94.0 92.0 926.0 429.0" width="926.0" height="429.0"><defs id="ProcessOnDefs1001"/><g id="ProcessOnG1002"><path id="ProcessOnPath1003" d="M94.0 92.0H1020.0V521.0H94.0V92.0Z" fill="none"/><g id="ProcessOnG1004"><g id="ProcessOnG1005" transform="matrix(1.0,0.0,0.0,1.0,404.0,116.0)" opacity="1.0"><path id="ProcessOnPath1006" d="M0.0 0.0L207.0 0.0L207.0 38.0L0.0 38.0Z" stroke="#323232" stroke-width="2.0" stroke-dasharray="none" opacity="1.0" fill="#ffffff"/><g id="ProcessOnG1007" transform="matrix(1.0,0.0,0.0,1.0,10.0,8.375)"><text id="ProcessOnText1008" fill="#000000" font-size="17" x="92.5" y="17.425" font-family="微软雅黑" font-weight="bold" font-style="normal" text-decoration="none" family="微软雅黑" text-anchor="middle" size="17">T(N)</text></g></g><g id="ProcessOnG1009" transform="matrix(1.0,0.0,0.0,1.0,373.0,394.0)" opacity="1.0"><path id="ProcessOnPath1010" d="M0.0 0.0L207.0 0.0L207.0 38.0L0.0 38.0Z" stroke="#323232" stroke-width="2.0" stroke-dasharray="none" opacity="1.0" fill="#ffffff"/><g id="ProcessOnG1011" transform="matrix(1.0,0.0,0.0,1.0,10.0,8.375)"><text id="ProcessOnText1012" fill="#000000" font-size="17" x="92.5" y="17.425" font-family="微软雅黑" font-weight="bold" font-style="normal" text-decoration="none" family="微软雅黑" text-anchor="middle" size="17">T(N/4)</text></g></g><g id="ProcessOnG1013" transform="matrix(1.0,0.0,0.0,1.0,114.0,390.0)" opacity="1.0"><path id="ProcessOnPath1014" d="M0.0 0.0L207.0 0.0L207.0 38.0L0.0 38.0Z" stroke="#323232" stroke-width="2.0" stroke-dasharray="none" opacity="1.0" fill="#ffffff"/><g id="ProcessOnG1015" transform="matrix(1.0,0.0,0.0,1.0,10.0,8.375)"><text id="ProcessOnText1016" fill="#000000" font-size="17" x="92.5" y="17.425" font-family="微软雅黑" font-weight="bold" font-style="normal" text-decoration="none" family="微软雅黑" text-anchor="middle" size="17">T(N/4)</text></g></g><g id="ProcessOnG1017" transform="matrix(1.0,0.0,0.0,1.0,253.0,266.0)" opacity="1.0"><path id="ProcessOnPath1018" d="M0.0 0.0L207.0 0.0L207.0 38.0L0.0 38.0Z" stroke="#323232" stroke-width="2.0" stroke-dasharray="none" opacity="1.0" fill="#ffffff"/><g id="ProcessOnG1019" transform="matrix(1.0,0.0,0.0,1.0,10.0,8.375)"><text id="ProcessOnText1020" fill="#000000" font-size="17" x="92.5" y="17.425" font-family="微软雅黑" font-weight="bold" font-style="normal" text-decoration="none" family="微软雅黑" text-anchor="middle" size="17">T(N/2)</text></g></g><g id="ProcessOnG1021" transform="matrix(1.0,0.0,0.0,1.0,564.0,266.0)" opacity="1.0"><path id="ProcessOnPath1022" d="M0.0 0.0L207.0 0.0L207.0 38.0L0.0 38.0Z" stroke="#323232" stroke-width="2.0" stroke-dasharray="none" opacity="1.0" fill="#ffffff"/><g id="ProcessOnG1023" transform="matrix(1.0,0.0,0.0,1.0,10.0,8.375)"><text id="ProcessOnText1024" fill="#000000" font-size="17" x="92.5" y="17.425" font-family="微软雅黑" font-weight="bold" font-style="normal" text-decoration="none" family="微软雅黑" text-anchor="middle" size="17">T(N/2)</text></g></g><g id="ProcessOnG1025"><path id="ProcessOnPath1026" d="M507.5 154.0L356.5 266.0" stroke="#323232" stroke-width="2.0" stroke-dasharray="none" fill="none"/></g><g id="ProcessOnG1027"><path id="ProcessOnPath1028" d="M507.5 154.0L667.5 266.0" stroke="#323232" stroke-width="2.0" stroke-dasharray="none" fill="none"/></g><g id="ProcessOnG1029"><path id="ProcessOnPath1030" d="M356.5 304.0L217.5 390.0" stroke="#323232" stroke-width="2.0" stroke-dasharray="none" fill="none"/></g><g id="ProcessOnG1031"><path id="ProcessOnPath1032" d="M356.5 304.0L476.5 394.0" stroke="#323232" stroke-width="2.0" stroke-dasharray="none" fill="none"/></g><g id="ProcessOnG1033" transform="matrix(1.0,0.0,0.0,1.0,824.0,112.0)" opacity="1.0"><path id="ProcessOnPath1034" d="M0.0 389.0Q3.6 389.0 3.6 380.0L3.6 203.5Q3.6 194.5 22.0 194.5Q3.6 194.5 3.6 185.5L3.6 9.0Q3.6 0.0 0.0 0.0" stroke="#323232" stroke-width="2.0" stroke-dasharray="none" opacity="1.0" fill="none"/><path id="ProcessOnPath1035" d="M0.0 0.0L36.0 0.0L36.0 389.0L0.0 389.0Z" stroke="none" stroke-width="0.0" stroke-dasharray="none" opacity="1.0" fill="none"/></g><g id="ProcessOnG1036" transform="matrix(1.0,0.0,0.0,1.0,853.0,284.5)" opacity="1.0"><path id="ProcessOnPath1037" d="M0.0 0.0L147.0 0.0L147.0 44.0L0.0 44.0Z" stroke="none" stroke-width="0.0" stroke-dasharray="none" opacity="1.0" fill="none"/><g id="ProcessOnG1038" transform="matrix(1.0,0.0,0.0,1.0,0.0,10.125)"><text id="ProcessOnText1039" fill="#000000" font-size="19" x="72.5" y="19.475" font-family="微软雅黑" font-weight="bold" font-style="normal" text-decoration="none" family="微软雅黑" text-anchor="middle" size="19">深度为: lg(N)</text></g></g></g></g></svg>