<svg xmlns="http://www.w3.org/2000/svg" xmlns:xlink="http://www.w3.org/1999/xlink" id="processonSvg1000" viewBox="-71.5 136.0 743.5 975.0" width="743.5" height="975.0"><defs id="ProcessOnDefs1001"/><g id="ProcessOnG1002"><path id="ProcessOnPath1003" d="M-71.5 136.0H672.0V1111.0H-71.5V136.0Z" fill="none"/><g id="ProcessOnG1004"><g id="ProcessOnG1005" transform="matrix(1.0,0.0,0.0,1.0,305.5,950.0)" opacity="1.0"><path id="ProcessOnPath1006" d="M0.0 0.0L96.0 0.0L96.0 141.0L0.0 141.0Z" stroke="#323232" stroke-width="2.0" stroke-dasharray="none" opacity="1.0" fill="#ffffff"/></g><g id="ProcessOnG1007" transform="matrix(1.0,0.0,0.0,1.0,533.0,649.5)" opacity="1.0"><path id="ProcessOnPath1008" d="M0.0 0.0L119.0 0.0L119.0 147.5L0.0 147.5Z" stroke="#323232" stroke-width="2.0" stroke-dasharray="none" opacity="1.0" fill="#ffffff"/></g><g id="ProcessOnG1009" transform="matrix(1.0,0.0,0.0,1.0,136.0,642.0)" opacity="1.0"><path id="ProcessOnPath1010" d="M0.0 0.0L275.0 0.0L275.0 236.0L0.0 236.0Z" stroke="#323232" stroke-width="2.0" stroke-dasharray="none" opacity="1.0" fill="#ffffff"/></g><g id="ProcessOnG1011" transform="matrix(1.0,0.0,0.0,1.0,128.0,225.0)" opacity="1.0"><path id="ProcessOnPath1012" d="M0.0 0.0L514.0 0.0L514.0 325.0L0.0 325.0Z" stroke="#323232" stroke-width="2.0" stroke-dasharray="none" opacity="1.0" fill="#ffffff"/></g><g id="ProcessOnG1013" transform="matrix(1.0,0.0,0.0,1.0,231.0,160.0)" opacity="1.0"><path id="ProcessOnPath1014" d="M0.0 29.0C0.0 -9.666666666666666 61.0 -9.666666666666666 61.0 29.0C61.0 67.66666666666667 0.0 67.66666666666667 0.0 29.0Z" stroke="#323232" stroke-width="2.0" stroke-dasharray="none" opacity="1.0" fill="#ccff99"/><g id="ProcessOnG1015" transform="matrix(1.0,0.0,0.0,1.0,10.0,15.25)"><text id="ProcessOnText1016" fill="#000000" font-size="22" x="19.5" y="22.55" font-family="微软雅黑" font-weight="bold" font-style="normal" text-decoration="none" family="微软雅黑" text-anchor="middle" size="22">4</text></g></g><g id="ProcessOnG1017" transform="matrix(1.0,0.0,0.0,1.0,329.0,156.0)" opacity="1.0"><path id="ProcessOnPath1018" d="M0.0 29.0C0.0 -9.666666666666666 61.0 -9.666666666666666 61.0 29.0C61.0 67.66666666666667 0.0 67.66666666666667 0.0 29.0Z" stroke="#323232" stroke-width="2.0" stroke-dasharray="none" opacity="1.0" fill="#ccff99"/><g id="ProcessOnG1019" transform="matrix(1.0,0.0,0.0,1.0,10.0,15.25)"><text id="ProcessOnText1020" fill="#000000" font-size="22" x="19.5" y="22.55" font-family="微软雅黑" font-weight="bold" font-style="normal" text-decoration="none" family="微软雅黑" text-anchor="middle" size="22">3</text></g></g><g id="ProcessOnG1021" transform="matrix(1.0,0.0,0.0,1.0,441.0,156.0)" opacity="1.0"><path id="ProcessOnPath1022" d="M0.0 29.0C0.0 -9.666666666666666 61.0 -9.666666666666666 61.0 29.0C61.0 67.66666666666667 0.0 67.66666666666667 0.0 29.0Z" stroke="#323232" stroke-width="2.0" stroke-dasharray="none" opacity="1.0" fill="#ccff99"/><g id="ProcessOnG1023" transform="matrix(1.0,0.0,0.0,1.0,10.0,15.25)"><text id="ProcessOnText1024" fill="#000000" font-size="22" x="19.5" y="22.55" font-family="微软雅黑" font-weight="bold" font-style="normal" text-decoration="none" family="微软雅黑" text-anchor="middle" size="22">5</text></g></g><g id="ProcessOnG1025" transform="matrix(1.0,0.0,0.0,1.0,558.0,156.0)" opacity="1.0"><path id="ProcessOnPath1026" d="M0.0 29.0C0.0 -9.666666666666666 61.0 -9.666666666666666 61.0 29.0C61.0 67.66666666666667 0.0 67.66666666666667 0.0 29.0Z" stroke="#323232" stroke-width="2.0" stroke-dasharray="none" opacity="1.0" fill="#ccff99"/><g id="ProcessOnG1027" transform="matrix(1.0,0.0,0.0,1.0,10.0,15.25)"><text id="ProcessOnText1028" fill="#000000" font-size="22" x="19.5" y="22.55" font-family="微软雅黑" font-weight="bold" font-style="normal" text-decoration="none" family="微软雅黑" text-anchor="middle" size="22">2</text></g></g><g id="ProcessOnG1029" transform="matrix(1.0,0.0,0.0,1.0,226.0,246.5)" opacity="1.0"><path id="ProcessOnPath1030" d="M0.0 26.5C0.0 -8.833333333333334 61.0 -8.833333333333334 61.0 26.5C61.0 61.833333333333336 0.0 61.833333333333336 0.0 26.5Z" stroke="#323232" stroke-width="2.0" stroke-dasharray="none" opacity="1.0" fill="#ffffff"/></g><g id="ProcessOnG1031" transform="matrix(1.0,0.0,0.0,1.0,329.0,241.5)" opacity="1.0"><path id="ProcessOnPath1032" d="M0.0 29.0C0.0 -9.666666666666666 61.0 -9.666666666666666 61.0 29.0C61.0 67.66666666666667 0.0 67.66666666666667 0.0 29.0Z" stroke="#323232" stroke-width="2.0" stroke-dasharray="none" opacity="1.0" fill="#ccff99"/><g id="ProcessOnG1033" transform="matrix(1.0,0.0,0.0,1.0,10.0,15.25)"><text id="ProcessOnText1034" fill="#000000" font-size="22" x="19.5" y="22.55" font-family="微软雅黑" font-weight="bold" font-style="normal" text-decoration="none" family="微软雅黑" text-anchor="middle" size="22">3</text></g></g><g id="ProcessOnG1035" transform="matrix(1.0,0.0,0.0,1.0,445.0,244.0)" opacity="1.0"><path id="ProcessOnPath1036" d="M0.0 29.0C0.0 -9.666666666666666 61.0 -9.666666666666666 61.0 29.0C61.0 67.66666666666667 0.0 67.66666666666667 0.0 29.0Z" stroke="#323232" stroke-width="2.0" stroke-dasharray="none" opacity="1.0" fill="#ccff99"/><g id="ProcessOnG1037" transform="matrix(1.0,0.0,0.0,1.0,10.0,15.25)"><text id="ProcessOnText1038" fill="#000000" font-size="22" x="19.5" y="22.55" font-family="微软雅黑" font-weight="bold" font-style="normal" text-decoration="none" family="微软雅黑" text-anchor="middle" size="22">5</text></g></g><g id="ProcessOnG1039" transform="matrix(1.0,0.0,0.0,1.0,562.0,244.0)" opacity="1.0"><path id="ProcessOnPath1040" d="M0.0 29.0C0.0 -9.666666666666666 61.0 -9.666666666666666 61.0 29.0C61.0 67.66666666666667 0.0 67.66666666666667 0.0 29.0Z" stroke="#323232" stroke-width="2.0" stroke-dasharray="none" opacity="1.0" fill="#00cc00"/><g id="ProcessOnG1041" transform="matrix(1.0,0.0,0.0,1.0,10.0,15.25)"><text id="ProcessOnText1042" fill="#000000" font-size="22" x="19.5" y="22.55" font-family="微软雅黑" font-weight="bold" font-style="normal" text-decoration="none" family="微软雅黑" text-anchor="middle" size="22">2</text></g></g><g id="ProcessOnG1043" transform="matrix(1.0,0.0,0.0,1.0,562.0,327.0)" opacity="1.0"><path id="ProcessOnPath1044" d="M0.0 26.5C0.0 -8.833333333333334 61.0 -8.833333333333334 61.0 26.5C61.0 61.833333333333336 0.0 61.833333333333336 0.0 26.5Z" stroke="#323232" stroke-width="2.0" stroke-dasharray="none" opacity="1.0" fill="#ffffff"/></g><g id="ProcessOnG1045" transform="matrix(1.0,0.0,0.0,1.0,329.0,319.5)" opacity="1.0"><path id="ProcessOnPath1046" d="M0.0 29.0C0.0 -9.666666666666666 61.0 -9.666666666666666 61.0 29.0C61.0 67.66666666666667 0.0 67.66666666666667 0.0 29.0Z" stroke="#323232" stroke-width="2.0" stroke-dasharray="none" opacity="1.0" fill="#00cc00"/><g id="ProcessOnG1047" transform="matrix(1.0,0.0,0.0,1.0,10.0,15.25)"><text id="ProcessOnText1048" fill="#000000" font-size="22" x="19.5" y="22.55" font-family="微软雅黑" font-weight="bold" font-style="normal" text-decoration="none" family="微软雅黑" text-anchor="middle" size="22">3</text></g></g><g id="ProcessOnG1049" transform="matrix(1.0,0.0,0.0,1.0,445.0,322.0)" opacity="1.0"><path id="ProcessOnPath1050" d="M0.0 29.0C0.0 -9.666666666666666 61.0 -9.666666666666666 61.0 29.0C61.0 67.66666666666667 0.0 67.66666666666667 0.0 29.0Z" stroke="#323232" stroke-width="2.0" stroke-dasharray="none" opacity="1.0" fill="#ccff99"/><g id="ProcessOnG1051" transform="matrix(1.0,0.0,0.0,1.0,10.0,15.25)"><text id="ProcessOnText1052" fill="#000000" font-size="22" x="19.5" y="22.55" font-family="微软雅黑" font-weight="bold" font-style="normal" text-decoration="none" family="微软雅黑" text-anchor="middle" size="22">5</text></g></g><g id="ProcessOnG1053" transform="matrix(1.0,0.0,0.0,1.0,226.0,322.0)" opacity="1.0"><path id="ProcessOnPath1054" d="M0.0 29.0C0.0 -9.666666666666666 61.0 -9.666666666666666 61.0 29.0C61.0 67.66666666666667 0.0 67.66666666666667 0.0 29.0Z" stroke="#323232" stroke-width="2.0" stroke-dasharray="none" opacity="1.0" fill="#ccff99"/><g id="ProcessOnG1055" transform="matrix(1.0,0.0,0.0,1.0,10.0,15.25)"><text id="ProcessOnText1056" fill="#000000" font-size="22" x="19.5" y="22.55" font-family="微软雅黑" font-weight="bold" font-style="normal" text-decoration="none" family="微软雅黑" text-anchor="middle" size="22">2</text></g></g><g id="ProcessOnG1057" transform="matrix(1.0,0.0,0.0,1.0,445.0,404.0)" opacity="1.0"><path id="ProcessOnPath1058" d="M0.0 26.5C0.0 -8.833333333333334 61.0 -8.833333333333334 61.0 26.5C61.0 61.833333333333336 0.0 61.833333333333336 0.0 26.5Z" stroke="#323232" stroke-width="2.0" stroke-dasharray="none" opacity="1.0" fill="#ffffff"/></g><g id="ProcessOnG1059" transform="matrix(1.0,0.0,0.0,1.0,329.0,396.5)" opacity="1.0"><path id="ProcessOnPath1060" d="M0.0 29.0C0.0 -9.666666666666666 61.0 -9.666666666666666 61.0 29.0C61.0 67.66666666666667 0.0 67.66666666666667 0.0 29.0Z" stroke="#323232" stroke-width="2.0" stroke-dasharray="none" opacity="1.0" fill="#ccff99"/><g id="ProcessOnG1061" transform="matrix(1.0,0.0,0.0,1.0,10.0,15.25)"><text id="ProcessOnText1062" fill="#000000" font-size="22" x="19.5" y="22.55" font-family="微软雅黑" font-weight="bold" font-style="normal" text-decoration="none" family="微软雅黑" text-anchor="middle" size="22">3</text></g></g><g id="ProcessOnG1063" transform="matrix(1.0,0.0,0.0,1.0,562.0,401.5)" opacity="1.0"><path id="ProcessOnPath1064" d="M0.0 29.0C0.0 -9.666666666666666 61.0 -9.666666666666666 61.0 29.0C61.0 67.66666666666667 0.0 67.66666666666667 0.0 29.0Z" stroke="#323232" stroke-width="2.0" stroke-dasharray="none" opacity="1.0" fill="#ccff99"/><g id="ProcessOnG1065" transform="matrix(1.0,0.0,0.0,1.0,10.0,15.25)"><text id="ProcessOnText1066" fill="#000000" font-size="22" x="19.5" y="22.55" font-family="微软雅黑" font-weight="bold" font-style="normal" text-decoration="none" family="微软雅黑" text-anchor="middle" size="22">5</text></g></g><g id="ProcessOnG1067" transform="matrix(1.0,0.0,0.0,1.0,226.0,399.0)" opacity="1.0"><path id="ProcessOnPath1068" d="M0.0 29.0C0.0 -9.666666666666666 61.0 -9.666666666666666 61.0 29.0C61.0 67.66666666666667 0.0 67.66666666666667 0.0 29.0Z" stroke="#323232" stroke-width="2.0" stroke-dasharray="none" opacity="1.0" fill="#ccff99"/><g id="ProcessOnG1069" transform="matrix(1.0,0.0,0.0,1.0,10.0,15.25)"><text id="ProcessOnText1070" fill="#000000" font-size="22" x="19.5" y="22.55" font-family="微软雅黑" font-weight="bold" font-style="normal" text-decoration="none" family="微软雅黑" text-anchor="middle" size="22">2</text></g></g><g id="ProcessOnG1071" transform="matrix(1.0,0.0,0.0,1.0,445.0,474.0)" opacity="1.0"><path id="ProcessOnPath1072" d="M0.0 29.0C0.0 -9.666666666666666 61.0 -9.666666666666666 61.0 29.0C61.0 67.66666666666667 0.0 67.66666666666667 0.0 29.0Z" stroke="#323232" stroke-width="2.0" stroke-dasharray="none" opacity="1.0" fill="#cc0000"/><g id="ProcessOnG1073" transform="matrix(1.0,0.0,0.0,1.0,10.0,15.25)"><text id="ProcessOnText1074" fill="#000000" font-size="22" x="19.5" y="22.55" font-family="微软雅黑" font-weight="bold" font-style="normal" text-decoration="none" family="微软雅黑" text-anchor="middle" size="22">4</text></g></g><g id="ProcessOnG1075" transform="matrix(1.0,0.0,0.0,1.0,329.0,471.5)" opacity="1.0"><path id="ProcessOnPath1076" d="M0.0 29.0C0.0 -9.666666666666666 61.0 -9.666666666666666 61.0 29.0C61.0 67.66666666666667 0.0 67.66666666666667 0.0 29.0Z" stroke="#323232" stroke-width="2.0" stroke-dasharray="none" opacity="1.0" fill="#ccff99"/><g id="ProcessOnG1077" transform="matrix(1.0,0.0,0.0,1.0,10.0,15.25)"><text id="ProcessOnText1078" fill="#000000" font-size="22" x="19.5" y="22.55" font-family="微软雅黑" font-weight="bold" font-style="normal" text-decoration="none" family="微软雅黑" text-anchor="middle" size="22">3</text></g></g><g id="ProcessOnG1079" transform="matrix(1.0,0.0,0.0,1.0,562.0,478.0)" opacity="1.0"><path id="ProcessOnPath1080" d="M0.0 29.0C0.0 -9.666666666666666 61.0 -9.666666666666666 61.0 29.0C61.0 67.66666666666667 0.0 67.66666666666667 0.0 29.0Z" stroke="#323232" stroke-width="2.0" stroke-dasharray="none" opacity="1.0" fill="#ccff99"/><g id="ProcessOnG1081" transform="matrix(1.0,0.0,0.0,1.0,10.0,15.25)"><text id="ProcessOnText1082" fill="#000000" font-size="22" x="19.5" y="22.55" font-family="微软雅黑" font-weight="bold" font-style="normal" text-decoration="none" family="微软雅黑" text-anchor="middle" size="22">5</text></g></g><g id="ProcessOnG1083" transform="matrix(1.0,0.0,0.0,1.0,226.0,474.0)" opacity="1.0"><path id="ProcessOnPath1084" d="M0.0 29.0C0.0 -9.666666666666666 61.0 -9.666666666666666 61.0 29.0C61.0 67.66666666666667 0.0 67.66666666666667 0.0 29.0Z" stroke="#323232" stroke-width="2.0" stroke-dasharray="none" opacity="1.0" fill="#ccff99"/><g id="ProcessOnG1085" transform="matrix(1.0,0.0,0.0,1.0,10.0,15.25)"><text id="ProcessOnText1086" fill="#000000" font-size="22" x="19.5" y="22.55" font-family="微软雅黑" font-weight="bold" font-style="normal" text-decoration="none" family="微软雅黑" text-anchor="middle" size="22">2</text></g></g><g id="ProcessOnG1087" transform="matrix(1.0,0.0,0.0,1.0,139.0,250.0)" opacity="1.0"><path id="ProcessOnPath1088" d="M0.0 0.0L50.0 0.0L50.0 46.0L0.0 46.0Z" stroke="#323232" stroke-width="2.0" stroke-dasharray="none" opacity="1.0" fill="#ffcccc"/><g id="ProcessOnG1089" transform="matrix(1.0,0.0,0.0,1.0,10.0,9.875)"><text id="ProcessOnText1090" fill="#000000" font-size="21" x="14.0" y="21.525" font-family="微软雅黑" font-weight="bold" font-style="normal" text-decoration="none" family="微软雅黑" text-anchor="middle" size="21">4</text></g></g><g id="ProcessOnG1091" transform="matrix(1.0,0.0,0.0,1.0,139.0,322.0)" opacity="1.0"><path id="ProcessOnPath1092" d="M0.0 0.0L50.0 0.0L50.0 46.0L0.0 46.0Z" stroke="#323232" stroke-width="2.0" stroke-dasharray="none" opacity="1.0" fill="#ffcccc"/><g id="ProcessOnG1093" transform="matrix(1.0,0.0,0.0,1.0,10.0,9.875)"><text id="ProcessOnText1094" fill="#000000" font-size="21" x="14.0" y="21.525" font-family="微软雅黑" font-weight="bold" font-style="normal" text-decoration="none" family="微软雅黑" text-anchor="middle" size="21">4</text></g></g><g id="ProcessOnG1095" transform="matrix(1.0,0.0,0.0,1.0,139.0,405.0)" opacity="1.0"><path id="ProcessOnPath1096" d="M0.0 0.0L50.0 0.0L50.0 46.0L0.0 46.0Z" stroke="#323232" stroke-width="2.0" stroke-dasharray="none" opacity="1.0" fill="#ffcccc"/><g id="ProcessOnG1097" transform="matrix(1.0,0.0,0.0,1.0,10.0,9.875)"><text id="ProcessOnText1098" fill="#000000" font-size="21" x="14.0" y="21.525" font-family="微软雅黑" font-weight="bold" font-style="normal" text-decoration="none" family="微软雅黑" text-anchor="middle" size="21">4</text></g></g><g id="ProcessOnG1099" transform="matrix(1.0,0.0,0.0,1.0,9.0,244.0)" opacity="1.0"><path id="ProcessOnPath1100" d="M104.0 0.0Q95.0 0.0 95.0 9.0L95.0 137.0Q95.0 146.0 82.0 146.0Q95.0 146.0 95.0 155.0L95.0 283.0Q95.0 292.0 104.0 292.0" stroke="#323232" stroke-width="2.0" stroke-dasharray="none" opacity="1.0" fill="none"/><path id="ProcessOnPath1101" d="M0.0 0.0L104.0 0.0L104.0 292.0L0.0 292.0Z" stroke="none" stroke-width="0.0" stroke-dasharray="none" opacity="1.0" fill="none"/></g><g id="ProcessOnG1102" transform="matrix(6.123233995736766E-17,1.0,-1.0,6.123233995736766E-17,82.0,277.5)" opacity="1.0"><path id="ProcessOnPath1103" d="M0.0 0.0L225.0 0.0L225.0 42.0L0.0 42.0Z" stroke="none" stroke-width="0.0" stroke-dasharray="none" opacity="1.0" fill="none"/><g id="ProcessOnG1104" transform="matrix(1.0,0.0,0.0,1.0,0.0,9.125)"><text id="ProcessOnText1105" fill="#000000" font-size="19" x="111.5" y="19.475" font-family="微软雅黑" font-weight="bold" font-style="normal" text-decoration="none" family="微软雅黑" text-anchor="middle" size="19">第1次循环</text></g></g><g id="ProcessOnG1106" transform="matrix(1.0,0.0,0.0,1.0,330.0,650.5)" opacity="1.0"><path id="ProcessOnPath1107" d="M0.0 29.0C0.0 -9.666666666666666 61.0 -9.666666666666666 61.0 29.0C61.0 67.66666666666667 0.0 67.66666666666667 0.0 29.0Z" stroke="#323232" stroke-width="2.0" stroke-dasharray="none" opacity="1.0" fill="#ccff99"/><g id="ProcessOnG1108" transform="matrix(1.0,0.0,0.0,1.0,10.0,15.25)"><text id="ProcessOnText1109" fill="#000000" font-size="22" x="19.5" y="22.55" font-family="微软雅黑" font-weight="bold" font-style="normal" text-decoration="none" family="微软雅黑" text-anchor="middle" size="22">3</text></g></g><g id="ProcessOnG1110" transform="matrix(1.0,0.0,0.0,1.0,147.0,734.0)" opacity="1.0"><path id="ProcessOnPath1111" d="M0.0 0.0L50.0 0.0L50.0 46.0L0.0 46.0Z" stroke="#323232" stroke-width="2.0" stroke-dasharray="none" opacity="1.0" fill="#ffcccc"/><g id="ProcessOnG1112" transform="matrix(1.0,0.0,0.0,1.0,10.0,9.875)"><text id="ProcessOnText1113" fill="#000000" font-size="21" x="14.0" y="21.525" font-family="微软雅黑" font-weight="bold" font-style="normal" text-decoration="none" family="微软雅黑" text-anchor="middle" size="21">2</text></g></g><g id="ProcessOnG1114" transform="matrix(1.0,0.0,0.0,1.0,227.0,729.5)" opacity="1.0"><path id="ProcessOnPath1115" d="M0.0 26.5C0.0 -8.833333333333334 61.0 -8.833333333333334 61.0 26.5C61.0 61.833333333333336 0.0 61.833333333333336 0.0 26.5Z" stroke="#323232" stroke-width="2.0" stroke-dasharray="none" opacity="1.0" fill="#ffffff"/></g><g id="ProcessOnG1116" transform="matrix(1.0,0.0,0.0,1.0,330.0,727.0)" opacity="1.0"><path id="ProcessOnPath1117" d="M0.0 29.0C0.0 -9.666666666666666 61.0 -9.666666666666666 61.0 29.0C61.0 67.66666666666667 0.0 67.66666666666667 0.0 29.0Z" stroke="#323232" stroke-width="2.0" stroke-dasharray="none" opacity="1.0" fill="#ccff99"/><g id="ProcessOnG1118" transform="matrix(1.0,0.0,0.0,1.0,10.0,15.25)"><text id="ProcessOnText1119" fill="#000000" font-size="22" x="19.5" y="22.55" font-family="微软雅黑" font-weight="bold" font-style="normal" text-decoration="none" family="微软雅黑" text-anchor="middle" size="22">3</text></g></g><g id="ProcessOnG1120" transform="matrix(1.0,0.0,0.0,1.0,227.0,650.5)" opacity="1.0"><path id="ProcessOnPath1121" d="M0.0 29.0C0.0 -9.666666666666666 61.0 -9.666666666666666 61.0 29.0C61.0 67.66666666666667 0.0 67.66666666666667 0.0 29.0Z" stroke="#323232" stroke-width="2.0" stroke-dasharray="none" opacity="1.0" fill="#ccff99"/><g id="ProcessOnG1122" transform="matrix(1.0,0.0,0.0,1.0,10.0,15.25)"><text id="ProcessOnText1123" fill="#000000" font-size="22" x="19.5" y="22.55" font-family="微软雅黑" font-weight="bold" font-style="normal" text-decoration="none" family="微软雅黑" text-anchor="middle" size="22">2</text></g></g><g id="ProcessOnG1124" transform="matrix(1.0,0.0,0.0,1.0,559.0,657.0)" opacity="1.0"><path id="ProcessOnPath1125" d="M0.0 29.0C0.0 -9.666666666666666 61.0 -9.666666666666666 61.0 29.0C61.0 67.66666666666667 0.0 67.66666666666667 0.0 29.0Z" stroke="#323232" stroke-width="2.0" stroke-dasharray="none" opacity="1.0" fill="#ccff99"/><g id="ProcessOnG1126" transform="matrix(1.0,0.0,0.0,1.0,10.0,15.25)"><text id="ProcessOnText1127" fill="#000000" font-size="22" x="19.5" y="22.55" font-family="微软雅黑" font-weight="bold" font-style="normal" text-decoration="none" family="微软雅黑" text-anchor="middle" size="22">5</text></g></g><g id="ProcessOnG1128" transform="matrix(1.0,0.0,0.0,1.0,562.0,734.0)" opacity="1.0"><path id="ProcessOnPath1129" d="M0.0 29.0C0.0 -9.666666666666666 61.0 -9.666666666666666 61.0 29.0C61.0 67.66666666666667 0.0 67.66666666666667 0.0 29.0Z" stroke="#323232" stroke-width="2.0" stroke-dasharray="none" opacity="1.0" fill="#cc0000"/><g id="ProcessOnG1130" transform="matrix(1.0,0.0,0.0,1.0,10.0,15.25)"><text id="ProcessOnText1131" fill="#000000" font-size="22" x="19.5" y="22.55" font-family="微软雅黑" font-weight="bold" font-style="normal" text-decoration="none" family="微软雅黑" text-anchor="middle" size="22">5</text></g></g><g id="ProcessOnG1132" transform="matrix(1.0,0.0,0.0,1.0,87.0,643.0)" opacity="1.0"><path id="ProcessOnPath1133" d="M26.0 0.0Q23.4 0.0 23.4 9.0L23.4 62.0Q23.4 71.0 4.0 71.0Q23.4 71.0 23.4 80.0L23.4 133.0Q23.4 142.0 26.0 142.0" stroke="#323232" stroke-width="2.0" stroke-dasharray="none" opacity="1.0" fill="none"/><path id="ProcessOnPath1134" d="M0.0 0.0L26.0 0.0L26.0 142.0L0.0 142.0Z" stroke="none" stroke-width="0.0" stroke-dasharray="none" opacity="1.0" fill="none"/></g><g id="ProcessOnG1135" transform="matrix(6.123233995736766E-17,1.0,-1.0,6.123233995736766E-17,85.25,654.0)" opacity="1.0"><path id="ProcessOnPath1136" d="M0.0 0.0L138.5 0.0L138.5 46.5L0.0 46.5Z" stroke="none" stroke-width="0.0" stroke-dasharray="none" opacity="1.0" fill="none"/><g id="ProcessOnG1137" transform="matrix(1.0,0.0,0.0,1.0,0.0,11.375)"><text id="ProcessOnText1138" fill="#000000" font-size="19" x="68.25" y="19.475" font-family="微软雅黑" font-weight="bold" font-style="normal" text-decoration="none" family="微软雅黑" text-anchor="middle" size="19">第2次循环</text></g></g><g id="ProcessOnG1139" transform="matrix(1.0,0.0,0.0,1.0,284.1853472198387,553.6636060684154)" opacity="1.0"><path id="ProcessOnPath1140" d="M10.975630772974533 0.0L22.283856417857386 0.0L22.283856417857386 59.70304431607116L33.25948719083192 59.70304431607116L16.62974359541596 76.33278791148712L0.0 59.70304431607116L10.975630772974533 59.70304431607116L10.975630772974533 0.0Z" stroke="#323232" stroke-width="2.0" stroke-dasharray="none" opacity="1.0" fill="#ffffff"/></g><g id="ProcessOnG1141" transform="matrix(1.0,0.0,0.0,1.0,578.0054023570757,560.3631200191635)" opacity="1.0"><path id="ProcessOnPath1142" d="M9.566434444330042 0.0L19.42276084151857 0.0L19.42276084151857 57.77916231874883L28.98919528584861 57.77916231874883L14.494597642924305 72.27375996167314L0.0 57.77916231874883L9.566434444330042 57.77916231874883L9.566434444330042 0.0Z" stroke="#323232" stroke-width="2.0" stroke-dasharray="none" opacity="1.0" fill="#ffffff"/></g><g id="ProcessOnG1143" transform="matrix(1.0,0.0,0.0,1.0,150.0,583.0)" opacity="1.0"><path id="ProcessOnPath1144" d="M0.0 0.0L110.0 0.0L110.0 27.0L0.0 27.0Z" stroke="none" stroke-width="0.0" stroke-dasharray="none" opacity="1.0" fill="none"/><g id="ProcessOnG1145" transform="matrix(1.0,0.0,0.0,1.0,0.0,-5.25)"><text id="ProcessOnText1146" fill="#000000" font-size="30" x="54.0" y="30.75" font-family="微软雅黑" font-weight="bold" font-style="normal" text-decoration="none" family="微软雅黑" text-anchor="middle" size="30">递归</text></g></g><g id="ProcessOnG1147" transform="matrix(1.0,0.0,0.0,1.0,227.0,803.5)" opacity="1.0"><path id="ProcessOnPath1148" d="M0.0 29.0C0.0 -9.666666666666666 61.0 -9.666666666666666 61.0 29.0C61.0 67.66666666666667 0.0 67.66666666666667 0.0 29.0Z" stroke="#323232" stroke-width="2.0" stroke-dasharray="none" opacity="1.0" fill="#cc0000"/><g id="ProcessOnG1149" transform="matrix(1.0,0.0,0.0,1.0,10.0,15.25)"><text id="ProcessOnText1150" fill="#000000" font-size="22" x="19.5" y="22.55" font-family="微软雅黑" font-weight="bold" font-style="normal" text-decoration="none" family="微软雅黑" text-anchor="middle" size="22">2</text></g></g><g id="ProcessOnG1151" transform="matrix(1.0,0.0,0.0,1.0,330.0,807.0)" opacity="1.0"><path id="ProcessOnPath1152" d="M0.0 29.0C0.0 -9.666666666666666 61.0 -9.666666666666666 61.0 29.0C61.0 67.66666666666667 0.0 67.66666666666667 0.0 29.0Z" stroke="#323232" stroke-width="2.0" stroke-dasharray="none" opacity="1.0" fill="#ccff99"/><g id="ProcessOnG1153" transform="matrix(1.0,0.0,0.0,1.0,10.0,15.25)"><text id="ProcessOnText1154" fill="#000000" font-size="22" x="19.5" y="22.55" font-family="微软雅黑" font-weight="bold" font-style="normal" text-decoration="none" family="微软雅黑" text-anchor="middle" size="22">3</text></g></g><g id="ProcessOnG1155" transform="matrix(1.0,0.0,0.0,1.0,323.0,953.0)" opacity="1.0"><path id="ProcessOnPath1156" d="M0.0 29.0C0.0 -9.666666666666666 61.0 -9.666666666666666 61.0 29.0C61.0 67.66666666666667 0.0 67.66666666666667 0.0 29.0Z" stroke="#323232" stroke-width="2.0" stroke-dasharray="none" opacity="1.0" fill="#ccff99"/><g id="ProcessOnG1157" transform="matrix(1.0,0.0,0.0,1.0,10.0,15.25)"><text id="ProcessOnText1158" fill="#000000" font-size="22" x="19.5" y="22.55" font-family="微软雅黑" font-weight="bold" font-style="normal" text-decoration="none" family="微软雅黑" text-anchor="middle" size="22">3</text></g></g><g id="ProcessOnG1159" transform="matrix(1.0,0.0,0.0,1.0,323.0,1030.0)" opacity="1.0"><path id="ProcessOnPath1160" d="M0.0 29.0C0.0 -9.666666666666666 61.0 -9.666666666666666 61.0 29.0C61.0 67.66666666666667 0.0 67.66666666666667 0.0 29.0Z" stroke="#323232" stroke-width="2.0" stroke-dasharray="none" opacity="1.0" fill="#cc0000"/><g id="ProcessOnG1161" transform="matrix(1.0,0.0,0.0,1.0,10.0,15.25)"><text id="ProcessOnText1162" fill="#000000" font-size="22" x="19.5" y="22.55" font-family="微软雅黑" font-weight="bold" font-style="normal" text-decoration="none" family="微软雅黑" text-anchor="middle" size="22">3</text></g></g><g id="ProcessOnG1163" transform="matrix(1.0,0.0,0.0,1.0,341.0,884.0)" opacity="1.0"><path id="ProcessOnPath1164" d="M9.9 0.0L20.1 0.0L20.1 46.0L30.0 46.0L15.0 61.0L0.0 46.0L9.9 46.0L9.9 0.0Z" stroke="#323232" stroke-width="2.0" stroke-dasharray="none" opacity="1.0" fill="#ffffff"/></g><g id="ProcessOnG1165" transform="matrix(1.0,0.0,0.0,1.0,13.0,948.0)" opacity="1.0"><path id="ProcessOnPath1166" d="M100.0 0.0Q91.0 0.0 91.0 9.0L91.0 61.0Q91.0 70.0 78.0 70.0Q91.0 70.0 91.0 79.0L91.0 131.0Q91.0 140.0 100.0 140.0" stroke="#323232" stroke-width="2.0" stroke-dasharray="none" opacity="1.0" fill="none"/><path id="ProcessOnPath1167" d="M0.0 0.0L100.0 0.0L100.0 140.0L0.0 140.0Z" stroke="none" stroke-width="0.0" stroke-dasharray="none" opacity="1.0" fill="none"/></g><g id="ProcessOnG1168" transform="matrix(6.123233995736766E-17,1.0,-1.0,6.123233995736766E-17,85.25,945.75)" opacity="1.0"><path id="ProcessOnPath1169" d="M0.0 0.0L138.5 0.0L138.5 46.5L0.0 46.5Z" stroke="none" stroke-width="0.0" stroke-dasharray="none" opacity="1.0" fill="none"/><g id="ProcessOnG1170" transform="matrix(1.0,0.0,0.0,1.0,0.0,11.375)"><text id="ProcessOnText1171" fill="#000000" font-size="19" x="68.25" y="19.475" font-family="微软雅黑" font-weight="bold" font-style="normal" text-decoration="none" family="微软雅黑" text-anchor="middle" size="19">第3次循环</text></g></g></g></g></svg>