<svg xmlns="http://www.w3.org/2000/svg" xmlns:xlink="http://www.w3.org/1999/xlink" id="processonSvg1000" viewBox="46.0 66.75 904.0 470.25" width="904.0" height="470.25"><defs id="ProcessOnDefs1001"><marker id="ProcessOnMarker1042" markerUnits="userSpaceOnUse" orient="auto" markerWidth="16.23606797749979" markerHeight="10.550836550532098" viewBox="-1.0 -1.3763819204711736 16.23606797749979 10.550836550532098" refX="-1.0" refY="3.8990363547948754"><path id="ProcessOnPath1043" d="M12.0 3.8990363547948754L0.0 7.798072709589751V0.0Z" stroke="#323232" stroke-width="2.0" fill="#323232" transform="matrix(1.0,0.0,0.0,1.0,0.0,0.0)"/></marker><marker id="ProcessOnMarker1046" markerUnits="userSpaceOnUse" orient="auto" markerWidth="16.23606797749979" markerHeight="10.550836550532098" viewBox="-1.0 -1.3763819204711736 16.23606797749979 10.550836550532098" refX="-1.0" refY="3.8990363547948754"><path id="ProcessOnPath1047" d="M12.0 3.8990363547948754L0.0 7.798072709589751V0.0Z" stroke="#323232" stroke-width="2.0" fill="#fff" transform="matrix(1.0,0.0,0.0,1.0,0.0,0.0)"/></marker><marker id="ProcessOnMarker1060" markerUnits="userSpaceOnUse" orient="auto" markerWidth="14.289086868996552" markerHeight="19.055054660878554" viewBox="-0.5877852522924731 -0.8090169943749475 14.289086868996552 19.055054660878554" refX="12.0" refY="8.71851033606433"><path id="ProcessOnPath1061" d="M0 0L12.0 8.71851033606433L0 17.43702067212866" stroke="#323232" stroke-width="2.0" fill="none" transform="matrix(1.0,0.0,0.0,1.0,0.0,0.0)"/></marker><marker id="ProcessOnMarker1064" markerUnits="userSpaceOnUse" orient="auto" markerWidth="14.289086868996552" markerHeight="19.055054660878554" viewBox="-0.5877852522924731 -0.8090169943749475 14.289086868996552 19.055054660878554" refX="12.0" refY="8.71851033606433"><path id="ProcessOnPath1065" d="M0 0L12.0 8.71851033606433L0 17.43702067212866" stroke="#323232" stroke-width="2.0" fill="none" transform="matrix(1.0,0.0,0.0,1.0,0.0,0.0)"/></marker><marker id="ProcessOnMarker1068" markerUnits="userSpaceOnUse" orient="auto" markerWidth="14.289086868996552" markerHeight="19.055054660878554" viewBox="-0.5877852522924731 -0.8090169943749475 14.289086868996552 19.055054660878554" refX="12.0" refY="8.71851033606433"><path id="ProcessOnPath1069" d="M0 0L12.0 8.71851033606433L0 17.43702067212866" stroke="#323232" stroke-width="2.0" fill="none" transform="matrix(1.0,0.0,0.0,1.0,0.0,0.0)"/></marker></defs><g id="ProcessOnG1002"><path id="ProcessOnPath1003" d="M46.0 66.75H950.0V537.0H46.0V66.75Z" fill="#ffffff"/><g id="ProcessOnG1004"><g id="ProcessOnG1005" transform="matrix(1.0,0.0,0.0,1.0,66.0,304.0)" opacity="1.0"><path id="ProcessOnPath1006" d="M0.0 4.0Q0.0 0.0 4.0 0.0L214.0 0.0Q218.0 0.0 218.0 4.0L218.0 179.0Q218.0 183.0 214.0 183.0L4.0 183.0Q0.0 183.0 0.0 179.0Z" stroke="#323232" stroke-width="2.0" stroke-dasharray="none" opacity="1.0" fill="#ffffff"/><path id="ProcessOnPath1007" d="M0.0 30.0L218.0 30.0M0.0 106.5L218.0 106.5" stroke="#323232" stroke-width="2.0" stroke-dasharray="none" opacity="1.0" fill="none"/><path id="ProcessOnPath1008" d="M0.0 0.0L218.0 0.0L218.0 183.0L0.0 183.0Z" stroke="#323232" stroke-width="0.0" stroke-dasharray="none" opacity="1.0" fill="none"/><g id="ProcessOnG1009" transform="matrix(1.0,0.0,0.0,1.0,10.0,6.875)"><text id="ProcessOnText1010" fill="#000000" font-weight="bold" font-style="normal" text-decoration="blink" font-family="微软雅黑" text-anchor="middle" font-size="13" x="99.0" y="13.325">Proxy</text></g><g id="ProcessOnG1011" transform="matrix(1.0,0.0,0.0,1.0,10.0,60.125)"><text id="ProcessOnText1012" fill="#000000" font-weight="bold" font-style="normal" text-decoration="blink" font-family="微软雅黑" text-anchor="middle" font-size="13" x="99.0" y="13.325">-pursuer : Pursuer</text></g><g id="ProcessOnG1013" transform="matrix(1.0,0.0,0.0,1.0,10.0,120.375)"><text id="ProcessOnText1014" fill="#000000" font-weight="bold" font-style="normal" text-decoration="blink" font-family="微软雅黑" text-anchor="middle" font-size="13" x="99.0" y="13.325">+giveFlowers() : void</text><text id="ProcessOnText1015" fill="#000000" font-weight="bold" font-style="normal" text-decoration="blink" font-family="微软雅黑" text-anchor="middle" font-size="13" x="99.0" y="29.575">+giveTickets() : void</text><text id="ProcessOnText1016" fill="#000000" font-weight="bold" font-style="normal" text-decoration="blink" font-family="微软雅黑" text-anchor="middle" font-size="13" x="99.0" y="45.825">+drinkMoreWater() : void</text></g></g><g id="ProcessOnG1017" transform="matrix(1.0,0.0,0.0,1.0,163.0,88.0)" opacity="1.0"><path id="ProcessOnPath1018" d="M0.0 4.0Q0.0 0.0 4.0 0.0L214.0 0.0Q218.0 0.0 218.0 4.0L218.0 112.0Q218.0 116.0 214.0 116.0L4.0 116.0Q0.0 116.0 0.0 112.0Z" stroke="#323232" stroke-width="2.0" stroke-dasharray="none" opacity="1.0" fill="#ffffff"/><path id="ProcessOnPath1019" d="M0.0 30.0L218.0 30.0" stroke="#323232" stroke-width="2.0" stroke-dasharray="none" opacity="1.0" fill="none"/><path id="ProcessOnPath1020" d="M0.0 0.0L218.0 0.0L218.0 116.0L0.0 116.0Z" stroke="#323232" stroke-width="0.0" stroke-dasharray="none" opacity="1.0" fill="none"/><g id="ProcessOnG1021" transform="matrix(1.0,0.0,0.0,1.0,10.0,-1.25)"><text id="ProcessOnText1022" fill="#000000" font-weight="bold" font-style="normal" text-decoration="blink" font-family="微软雅黑" text-anchor="middle" font-size="13" x="99.0" y="13.325">&lt;&lt;interface&gt;&gt;</text><text id="ProcessOnText1023" fill="#000000" font-weight="bold" font-style="normal" text-decoration="blink" font-family="微软雅黑" text-anchor="middle" font-size="13" x="99.0" y="29.575">Policy</text></g><g id="ProcessOnG1024" transform="matrix(1.0,0.0,0.0,1.0,10.0,48.625)"><text id="ProcessOnText1025" fill="#000000" font-weight="bold" font-style="normal" text-decoration="blink" font-family="微软雅黑" text-anchor="middle" font-size="13" x="99.0" y="13.325">+giveFlowers() : void</text><text id="ProcessOnText1026" fill="#000000" font-weight="bold" font-style="normal" text-decoration="blink" font-family="微软雅黑" text-anchor="middle" font-size="13" x="99.0" y="29.575">+giveTickets() : void</text><text id="ProcessOnText1027" fill="#000000" font-weight="bold" font-style="normal" text-decoration="blink" font-family="微软雅黑" text-anchor="middle" font-size="13" x="99.0" y="45.825">+drinkMoreWater() : void</text></g></g><g id="ProcessOnG1028" transform="matrix(1.0,0.0,0.0,1.0,416.0,304.0)" opacity="1.0"><path id="ProcessOnPath1029" d="M0.0 4.0Q0.0 0.0 4.0 0.0L217.0 0.0Q221.0 0.0 221.0 4.0L221.0 179.0Q221.0 183.0 217.0 183.0L4.0 183.0Q0.0 183.0 0.0 179.0Z" stroke="#323232" stroke-width="2.0" stroke-dasharray="none" opacity="1.0" fill="#ffffff"/><path id="ProcessOnPath1030" d="M0.0 30.0L221.0 30.0M0.0 106.5L221.0 106.5" stroke="#323232" stroke-width="2.0" stroke-dasharray="none" opacity="1.0" fill="none"/><path id="ProcessOnPath1031" d="M0.0 0.0L221.0 0.0L221.0 183.0L0.0 183.0Z" stroke="#323232" stroke-width="0.0" stroke-dasharray="none" opacity="1.0" fill="none"/><g id="ProcessOnG1032" transform="matrix(1.0,0.0,0.0,1.0,10.0,6.875)"><text id="ProcessOnText1033" fill="#000000" font-weight="bold" font-style="normal" text-decoration="blink" font-family="微软雅黑" text-anchor="middle" font-size="13" x="100.5" y="13.325">Pursuer</text></g><g id="ProcessOnG1034" transform="matrix(1.0,0.0,0.0,1.0,10.0,60.125)"><text id="ProcessOnText1035" fill="#000000" font-weight="bold" font-style="normal" text-decoration="blink" font-family="微软雅黑" text-anchor="middle" font-size="13" x="100.5" y="13.325">-girl : SchoolGirl</text></g><g id="ProcessOnG1036" transform="matrix(1.0,0.0,0.0,1.0,10.0,120.375)"><text id="ProcessOnText1037" fill="#000000" font-weight="bold" font-style="normal" text-decoration="blink" font-family="微软雅黑" text-anchor="middle" font-size="13" x="100.5" y="13.325">+giveFlowers() : void</text><text id="ProcessOnText1038" fill="#000000" font-weight="bold" font-style="normal" text-decoration="blink" font-family="微软雅黑" text-anchor="middle" font-size="13" x="100.5" y="29.575">+giveTickets() : void</text><text id="ProcessOnText1039" fill="#000000" font-weight="bold" font-style="normal" text-decoration="blink" font-family="微软雅黑" text-anchor="middle" font-size="13" x="100.5" y="45.825">+drinkMoreWater() : void</text></g></g><g id="ProcessOnG1040"><path id="ProcessOnPath1041" d="M175.0 304.0L175.0 254.0L272.0 254.0L272.0 219.2360679774998" stroke="#323232" stroke-width="2.0" stroke-dasharray="10.0 4.0" fill="none" marker-end="url(#ProcessOnMarker1042)"/></g><g id="ProcessOnG1044"><path id="ProcessOnPath1045" d="M526.5 304.0L526.5 254.0L272.0 254.0L272.0 219.2360679774998" stroke="#323232" stroke-width="2.0" stroke-dasharray="10.0 4.0" fill="none" marker-end="url(#ProcessOnMarker1046)"/></g><g id="ProcessOnG1048" transform="matrix(1.0,0.0,0.0,1.0,764.0,343.5)" opacity="1.0"><path id="ProcessOnPath1049" d="M0.0 4.0Q0.0 0.0 4.0 0.0L162.0 0.0Q166.0 0.0 166.0 4.0L166.0 100.0Q166.0 104.0 162.0 104.0L4.0 104.0Q0.0 104.0 0.0 100.0Z" stroke="#323232" stroke-width="2.0" stroke-dasharray="none" opacity="1.0" fill="#ffffff"/><path id="ProcessOnPath1050" d="M0.0 30.0L166.0 30.0M0.0 66.0L166.0 66.0" stroke="#323232" stroke-width="2.0" stroke-dasharray="none" opacity="1.0" fill="none"/><path id="ProcessOnPath1051" d="M0.0 0.0L166.0 0.0L166.0 104.0L0.0 104.0Z" stroke="#323232" stroke-width="0.0" stroke-dasharray="none" opacity="1.0" fill="none"/><g id="ProcessOnG1052" transform="matrix(1.0,0.0,0.0,1.0,10.0,6.875)"><text id="ProcessOnText1053" fill="#000000" font-weight="bold" font-style="normal" text-decoration="blink" font-family="微软雅黑" text-anchor="middle" font-size="13" x="73.0" y="13.325">SchoolGirl</text></g><g id="ProcessOnG1054" transform="matrix(1.0,0.0,0.0,1.0,10.0,39.875)"><text id="ProcessOnText1055" fill="#000000" font-weight="bold" font-style="normal" text-decoration="blink" font-family="微软雅黑" text-anchor="middle" font-size="13" x="73.0" y="13.325">-name : String</text></g><g id="ProcessOnG1056" transform="matrix(1.0,0.0,0.0,1.0,10.0,81.375)"><text id="ProcessOnText1057" fill="#000000" font-weight="bold" font-style="normal" text-decoration="blink" font-family="微软雅黑" text-anchor="middle" font-size="13" x="73.0" y="13.325"></text></g></g><g id="ProcessOnG1058"><path id="ProcessOnPath1059" d="M284.0 395.5L350.0 395.5L350.0 395.5L416.0 395.5" stroke="#323232" stroke-width="2.0" stroke-dasharray="none" fill="none" marker-end="url(#ProcessOnMarker1060)"/></g><g id="ProcessOnG1062"><path id="ProcessOnPath1063" d="M637.0 395.5L700.5 395.5L700.5 395.5L764.0 395.5" stroke="#323232" stroke-width="2.0" stroke-dasharray="none" fill="none" marker-end="url(#ProcessOnMarker1064)"/></g><g id="ProcessOnG1066"><path id="ProcessOnPath1067" d="M175.0 487.0L175.0 517.0L847.0 517.0L847.0 447.5" stroke="#323232" stroke-width="2.0" stroke-dasharray="10.0 4.0" fill="none" marker-end="url(#ProcessOnMarker1068)"/></g></g></g></svg>