<svg xmlns="http://www.w3.org/2000/svg" xmlns:xlink="http://www.w3.org/1999/xlink" id="processonSvg1000" viewBox="60.0 59.75 615.0 386.25" width="615.0" height="386.25"><defs id="ProcessOnDefs1001"><marker id="ProcessOnMarker1028" markerUnits="userSpaceOnUse" orient="auto" markerWidth="16.23606797749979" markerHeight="10.550836550532098" viewBox="-1.0 -1.3763819204711736 16.23606797749979 10.550836550532098" refX="-1.0" refY="3.8990363547948754"><path id="ProcessOnPath1029" d="M12.0 3.8990363547948754L0.0 7.798072709589751V0.0Z" stroke="#323232" stroke-width="2.0" fill="#fff" transform="matrix(1.0,0.0,0.0,1.0,0.0,0.0)"/></marker><marker id="ProcessOnMarker1053" markerUnits="userSpaceOnUse" orient="auto" markerWidth="16.23606797749979" markerHeight="10.550836550532098" viewBox="-1.0 -1.3763819204711736 16.23606797749979 10.550836550532098" refX="-1.0" refY="3.8990363547948754"><path id="ProcessOnPath1054" d="M12.0 3.8990363547948754L0.0 7.798072709589751V0.0Z" stroke="#323232" stroke-width="2.0" fill="#fff" transform="matrix(1.0,0.0,0.0,1.0,0.0,0.0)"/></marker><marker id="ProcessOnMarker1057" markerUnits="userSpaceOnUse" orient="auto" markerWidth="20.609529741924973" markerHeight="10.888175666885001" viewBox="-2.3047648709624866 -1.5914908829822711 20.609529741924973 10.888175666885001" refX="16.0" refY="3.8525969504602293"><path id="ProcessOnPath1058" d="M0 3.8525969504602293L8.0 0L16.0 3.8525969504602293L8.0 7.705193900920459Z" stroke="#323232" stroke-width="2.0" fill="#fff"/></marker><marker id="ProcessOnMarker1059" markerUnits="userSpaceOnUse" orient="auto" markerWidth="14.289086868996552" markerHeight="19.055054660878554" viewBox="-0.5877852522924731 -0.8090169943749475 14.289086868996552 19.055054660878554" refX="12.0" refY="8.71851033606433"><path id="ProcessOnPath1060" d="M0 0L12.0 8.71851033606433L0 17.43702067212866" stroke="#323232" stroke-width="2.0" fill="none" transform="matrix(1.0,0.0,0.0,1.0,0.0,0.0)"/></marker></defs><g id="ProcessOnG1002"><path id="ProcessOnPath1003" d="M60.0 59.75H675.0V446.0H60.0V59.75Z" fill="#ffffff"/><g id="ProcessOnG1004"><g id="ProcessOnG1005" transform="matrix(1.0,0.0,0.0,1.0,80.0,286.0)" opacity="1.0"><path id="ProcessOnPath1006" d="M0.0 4.0Q0.0 0.0 4.0 0.0L160.0 0.0Q164.0 0.0 164.0 4.0L164.0 136.0Q164.0 140.0 160.0 140.0L4.0 140.0Q0.0 140.0 0.0 136.0Z" stroke="#323232" stroke-width="2.0" stroke-dasharray="none" opacity="1.0" fill="#ffffff"/><path id="ProcessOnPath1007" d="M0.0 30.0L164.0 30.0M0.0 85.0L164.0 85.0" stroke="#323232" stroke-width="2.0" stroke-dasharray="none" opacity="1.0" fill="none"/><path id="ProcessOnPath1008" d="M0.0 0.0L164.0 0.0L164.0 140.0L0.0 140.0Z" stroke="#323232" stroke-width="0.0" stroke-dasharray="none" opacity="1.0" fill="none"/><g id="ProcessOnG1009" transform="matrix(1.0,0.0,0.0,1.0,10.0,6.875)"><text id="ProcessOnText1010" fill="#000000" font-weight="bold" font-style="normal" text-decoration="blink" font-family="微软雅黑" text-anchor="middle" font-size="13" x="72.0" y="13.325">FatBuilder</text></g><g id="ProcessOnG1011" transform="matrix(1.0,0.0,0.0,1.0,10.0,49.375)"><text id="ProcessOnText1012" fill="#000000" font-weight="bold" font-style="normal" text-decoration="blink" font-family="微软雅黑" text-anchor="middle" font-size="13" x="72.0" y="13.325"></text></g><g id="ProcessOnG1013" transform="matrix(1.0,0.0,0.0,1.0,10.0,96.25)"><text id="ProcessOnText1014" fill="#000000" font-weight="bold" font-style="normal" text-decoration="blink" font-family="微软雅黑" text-anchor="middle" font-size="13" x="72.0" y="13.325">+hands() : void</text><text id="ProcessOnText1015" fill="#000000" font-weight="bold" font-style="normal" text-decoration="blink" font-family="微软雅黑" text-anchor="middle" font-size="13" x="72.0" y="29.575">+legs() : void</text></g></g><g id="ProcessOnG1016" transform="matrix(1.0,0.0,0.0,1.0,164.0,81.0)" opacity="1.0"><path id="ProcessOnPath1017" d="M0.0 4.0Q0.0 0.0 4.0 0.0L154.0 0.0Q158.0 0.0 158.0 4.0L158.0 92.0Q158.0 96.0 154.0 96.0L4.0 96.0Q0.0 96.0 0.0 92.0Z" stroke="#323232" stroke-width="2.0" stroke-dasharray="none" opacity="1.0" fill="#ffffff"/><path id="ProcessOnPath1018" d="M0.0 30.0L158.0 30.0" stroke="#323232" stroke-width="2.0" stroke-dasharray="none" opacity="1.0" fill="none"/><path id="ProcessOnPath1019" d="M0.0 0.0L158.0 0.0L158.0 96.0L0.0 96.0Z" stroke="#323232" stroke-width="0.0" stroke-dasharray="none" opacity="1.0" fill="none"/><g id="ProcessOnG1020" transform="matrix(1.0,0.0,0.0,1.0,10.0,-1.25)"><text id="ProcessOnText1021" fill="#000000" font-weight="bold" font-style="normal" text-decoration="blink" font-family="微软雅黑" text-anchor="middle" font-size="13" x="69.0" y="13.325">&lt;&lt;interface&gt;&gt;</text><text id="ProcessOnText1022" fill="#000000" font-weight="bold" font-style="normal" text-decoration="blink" font-family="微软雅黑" text-anchor="middle" font-size="13" x="69.0" y="29.575">Builder</text></g><g id="ProcessOnG1023" transform="matrix(1.0,0.0,0.0,1.0,10.0,46.75)"><text id="ProcessOnText1024" fill="#000000" font-weight="bold" font-style="normal" text-decoration="blink" font-family="微软雅黑" text-anchor="middle" font-size="13" x="69.0" y="13.325">+hands() : void</text><text id="ProcessOnText1025" fill="#000000" font-weight="bold" font-style="normal" text-decoration="blink" font-family="微软雅黑" text-anchor="middle" font-size="13" x="69.0" y="29.575">+legs() : void</text></g></g><g id="ProcessOnG1026"><path id="ProcessOnPath1027" d="M162.0 286.0L162.0 231.5L243.0 231.5L243.0 192.2360679774998" stroke="#323232" stroke-width="2.0" stroke-dasharray="10.0 4.0" fill="none" marker-end="url(#ProcessOnMarker1028)"/></g><g id="ProcessOnG1030" transform="matrix(1.0,0.0,0.0,1.0,312.0,286.0)" opacity="1.0"><path id="ProcessOnPath1031" d="M0.0 4.0Q0.0 0.0 4.0 0.0L155.0 0.0Q159.0 0.0 159.0 4.0L159.0 136.0Q159.0 140.0 155.0 140.0L4.0 140.0Q0.0 140.0 0.0 136.0Z" stroke="#323232" stroke-width="2.0" stroke-dasharray="none" opacity="1.0" fill="#ffffff"/><path id="ProcessOnPath1032" d="M0.0 30.0L159.0 30.0M0.0 85.0L159.0 85.0" stroke="#323232" stroke-width="2.0" stroke-dasharray="none" opacity="1.0" fill="none"/><path id="ProcessOnPath1033" d="M0.0 0.0L159.0 0.0L159.0 140.0L0.0 140.0Z" stroke="#323232" stroke-width="0.0" stroke-dasharray="none" opacity="1.0" fill="none"/><g id="ProcessOnG1034" transform="matrix(1.0,0.0,0.0,1.0,10.0,6.875)"><text id="ProcessOnText1035" fill="#000000" font-weight="bold" font-style="normal" text-decoration="blink" font-family="微软雅黑" text-anchor="middle" font-size="13" x="69.5" y="13.325">ThinBuilder</text></g><g id="ProcessOnG1036" transform="matrix(1.0,0.0,0.0,1.0,10.0,49.375)"><text id="ProcessOnText1037" fill="#000000" font-weight="bold" font-style="normal" text-decoration="blink" font-family="微软雅黑" text-anchor="middle" font-size="13" x="69.5" y="13.325"></text></g><g id="ProcessOnG1038" transform="matrix(1.0,0.0,0.0,1.0,10.0,96.25)"><text id="ProcessOnText1039" fill="#000000" font-weight="bold" font-style="normal" text-decoration="blink" font-family="微软雅黑" text-anchor="middle" font-size="13" x="69.5" y="13.325">+hands() : void</text><text id="ProcessOnText1040" fill="#000000" font-weight="bold" font-style="normal" text-decoration="blink" font-family="微软雅黑" text-anchor="middle" font-size="13" x="69.5" y="29.575">+legs() : void</text></g></g><g id="ProcessOnG1041" transform="matrix(1.0,0.0,0.0,1.0,485.0,81.0)" opacity="1.0"><path id="ProcessOnPath1042" d="M0.0 4.0Q0.0 0.0 4.0 0.0L166.0 0.0Q170.0 0.0 170.0 4.0L170.0 108.0Q170.0 112.0 166.0 112.0L4.0 112.0Q0.0 112.0 0.0 108.0Z" stroke="#323232" stroke-width="2.0" stroke-dasharray="none" opacity="1.0" fill="#ffffff"/><path id="ProcessOnPath1043" d="M0.0 30.0L170.0 30.0M0.0 71.0L170.0 71.0" stroke="#323232" stroke-width="2.0" stroke-dasharray="none" opacity="1.0" fill="none"/><path id="ProcessOnPath1044" d="M0.0 0.0L170.0 0.0L170.0 112.0L0.0 112.0Z" stroke="#323232" stroke-width="0.0" stroke-dasharray="none" opacity="1.0" fill="none"/><g id="ProcessOnG1045" transform="matrix(1.0,0.0,0.0,1.0,10.0,6.875)"><text id="ProcessOnText1046" fill="#000000" font-weight="bold" font-style="normal" text-decoration="blink" font-family="微软雅黑" text-anchor="middle" font-size="13" x="75.0" y="13.325">Director</text></g><g id="ProcessOnG1047" transform="matrix(1.0,0.0,0.0,1.0,10.0,42.375)"><text id="ProcessOnText1048" fill="#000000" font-weight="bold" font-style="normal" text-decoration="blink" font-family="微软雅黑" text-anchor="middle" font-size="13" x="75.0" y="13.325"></text></g><g id="ProcessOnG1049" transform="matrix(1.0,0.0,0.0,1.0,10.0,83.375)"><text id="ProcessOnText1050" fill="#000000" font-weight="bold" font-style="normal" text-decoration="blink" font-family="微软雅黑" text-anchor="middle" font-size="13" x="75.0" y="13.325">+build() : void</text></g></g><g id="ProcessOnG1051"><path id="ProcessOnPath1052" d="M391.5 286.0L391.5 231.5L243.0 231.5L243.0 192.2360679774998" stroke="#323232" stroke-width="2.0" stroke-dasharray="10.0 4.0" fill="none" marker-end="url(#ProcessOnMarker1053)"/></g><g id="ProcessOnG1055"><path id="ProcessOnPath1056" d="M466.69523512903754 137.0L403.5 137.0L403.5 136.74193548387098L322.0 136.74193548387098" stroke="#323232" stroke-width="2.0" stroke-dasharray="none" fill="none" marker-start="url(#ProcessOnMarker1057)" marker-end="url(#ProcessOnMarker1059)"/></g></g></g></svg>