<svg xmlns="http://www.w3.org/2000/svg" xmlns:xlink="http://www.w3.org/1999/xlink" id="processonSvg1000" viewBox="52.0 69.5 947.0 672.5" width="947.0" height="672.5"><defs id="ProcessOnDefs1001"><marker id="ProcessOnMarker1083" markerUnits="userSpaceOnUse" orient="auto" markerWidth="16.23606797749979" markerHeight="10.550836550532098" viewBox="-1.0 -1.3763819204711736 16.23606797749979 10.550836550532098" refX="-1.0" refY="3.8990363547948754"><path id="ProcessOnPath1084" d="M12.0 3.8990363547948754L0.0 7.798072709589751V0.0Z" stroke="#323232" stroke-width="2.0" fill="#323232" transform="matrix(1.0,0.0,0.0,1.0,0.0,0.0)"/></marker><marker id="ProcessOnMarker1087" markerUnits="userSpaceOnUse" orient="auto" markerWidth="16.23606797749979" markerHeight="10.550836550532098" viewBox="-1.0 -1.3763819204711736 16.23606797749979 10.550836550532098" refX="-1.0" refY="3.8990363547948754"><path id="ProcessOnPath1088" d="M12.0 3.8990363547948754L0.0 7.798072709589751V0.0Z" stroke="#323232" stroke-width="2.0" fill="#fff" transform="matrix(1.0,0.0,0.0,1.0,0.0,0.0)"/></marker><marker id="ProcessOnMarker1091" markerUnits="userSpaceOnUse" orient="auto" markerWidth="16.23606797749979" markerHeight="10.550836550532098" viewBox="-1.0 -1.3763819204711736 16.23606797749979 10.550836550532098" refX="-1.0" refY="3.8990363547948754"><path id="ProcessOnPath1092" d="M12.0 3.8990363547948754L0.0 7.798072709589751V0.0Z" stroke="#323232" stroke-width="2.0" fill="#fff" transform="matrix(1.0,0.0,0.0,1.0,0.0,0.0)"/></marker><marker id="ProcessOnMarker1095" markerUnits="userSpaceOnUse" orient="auto" markerWidth="16.23606797749979" markerHeight="10.550836550532098" viewBox="-1.0 -1.3763819204711736 16.23606797749979 10.550836550532098" refX="-1.0" refY="3.8990363547948754"><path id="ProcessOnPath1096" d="M12.0 3.8990363547948754L0.0 7.798072709589751V0.0Z" stroke="#323232" stroke-width="2.0" fill="#fff" transform="matrix(1.0,0.0,0.0,1.0,0.0,0.0)"/></marker><marker id="ProcessOnMarker1099" markerUnits="userSpaceOnUse" orient="auto" markerWidth="14.289086868996552" markerHeight="19.055054660878554" viewBox="-0.5877852522924731 -0.8090169943749475 14.289086868996552 19.055054660878554" refX="12.0" refY="8.71851033606433"><path id="ProcessOnPath1100" d="M0 0L12.0 8.71851033606433L0 17.43702067212866" stroke="#323232" stroke-width="2.0" fill="none" transform="matrix(1.0,0.0,0.0,1.0,0.0,0.0)"/></marker><marker id="ProcessOnMarker1103" markerUnits="userSpaceOnUse" orient="auto" markerWidth="14.289086868996552" markerHeight="19.055054660878554" viewBox="-0.5877852522924731 -0.8090169943749475 14.289086868996552 19.055054660878554" refX="12.0" refY="8.71851033606433"><path id="ProcessOnPath1104" d="M0 0L12.0 8.71851033606433L0 17.43702067212866" stroke="#323232" stroke-width="2.0" fill="none" transform="matrix(1.0,0.0,0.0,1.0,0.0,0.0)"/></marker><marker id="ProcessOnMarker1107" markerUnits="userSpaceOnUse" orient="auto" markerWidth="20.609529741924973" markerHeight="10.888175666885001" viewBox="-2.3047648709624866 -1.5914908829822711 20.609529741924973 10.888175666885001" refX="16.0" refY="3.8525969504602293"><path id="ProcessOnPath1108" d="M0 3.8525969504602293L8.0 0L16.0 3.8525969504602293L8.0 7.705193900920459Z" stroke="#323232" stroke-width="2.0" fill="#fff"/></marker><marker id="ProcessOnMarker1109" markerUnits="userSpaceOnUse" orient="auto" markerWidth="14.289086868996552" markerHeight="19.055054660878554" viewBox="-0.5877852522924731 -0.8090169943749475 14.289086868996552 19.055054660878554" refX="12.0" refY="8.71851033606433"><path id="ProcessOnPath1110" d="M0 0L12.0 8.71851033606433L0 17.43702067212866" stroke="#323232" stroke-width="2.0" fill="none" transform="matrix(1.0,0.0,0.0,1.0,0.0,0.0)"/></marker><marker id="ProcessOnMarker1113" markerUnits="userSpaceOnUse" orient="auto" markerWidth="14.289086868996552" markerHeight="19.055054660878554" viewBox="-0.5877852522924731 -0.8090169943749475 14.289086868996552 19.055054660878554" refX="12.0" refY="8.71851033606433"><path id="ProcessOnPath1114" d="M0 0L12.0 8.71851033606433L0 17.43702067212866" stroke="#323232" stroke-width="2.0" fill="none" transform="matrix(1.0,0.0,0.0,1.0,0.0,0.0)"/></marker></defs><g id="ProcessOnG1002"><path id="ProcessOnPath1003" d="M52.0 69.5H999.0V742.0H52.0V69.5Z" fill="#ffffff"/><g id="ProcessOnG1004"><g id="ProcessOnG1005" transform="matrix(1.0,0.0,0.0,1.0,151.0,308.5)" opacity="1.0"><path id="ProcessOnPath1006" d="M0.0 4.0Q0.0 0.0 4.0 0.0L233.0 0.0Q237.0 0.0 237.0 4.0L237.0 125.0Q237.0 129.0 233.0 129.0L4.0 129.0Q0.0 129.0 0.0 125.0Z" stroke="#323232" stroke-width="2.0" stroke-dasharray="none" opacity="1.0" fill="#ffffff"/><path id="ProcessOnPath1007" d="M0.0 30.0L237.0 30.0M0.0 79.5L237.0 79.5" stroke="#323232" stroke-width="2.0" stroke-dasharray="none" opacity="1.0" fill="none"/><path id="ProcessOnPath1008" d="M0.0 0.0L237.0 0.0L237.0 129.0L0.0 129.0Z" stroke="#323232" stroke-width="0.0" stroke-dasharray="none" opacity="1.0" fill="none"/><g id="ProcessOnG1009" transform="matrix(1.0,0.0,0.0,1.0,10.0,6.875)"><text id="ProcessOnText1010" fill="#000000" font-weight="bold" font-style="normal" text-decoration="blink" font-family="微软雅黑" text-anchor="middle" font-size="13" x="108.5" y="13.325">Person</text></g><g id="ProcessOnG1011" transform="matrix(1.0,0.0,0.0,1.0,10.0,46.625)"><text id="ProcessOnText1012" fill="#000000" font-weight="bold" font-style="normal" text-decoration="blink" font-family="微软雅黑" text-anchor="middle" font-size="13" x="108.5" y="13.325"></text></g><g id="ProcessOnG1013" transform="matrix(1.0,0.0,0.0,1.0,10.0,96.125)"><text id="ProcessOnText1014" fill="#000000" font-weight="bold" font-style="normal" text-decoration="blink" font-family="微软雅黑" text-anchor="middle" font-size="13" x="108.5" y="13.325">+getAttitude(Aspect aspect)</text></g></g><g id="ProcessOnG1015" transform="matrix(1.0,0.0,0.0,1.0,328.0,533.0)" opacity="1.0"><path id="ProcessOnPath1016" d="M0.0 4.0Q0.0 0.0 4.0 0.0L161.0 0.0Q165.0 0.0 165.0 4.0L165.0 122.0Q165.0 126.0 161.0 126.0L4.0 126.0Q0.0 126.0 0.0 122.0Z" stroke="#323232" stroke-width="2.0" stroke-dasharray="none" opacity="1.0" fill="#ffffff"/><path id="ProcessOnPath1017" d="M0.0 30.0L165.0 30.0M0.0 78.0L165.0 78.0" stroke="#323232" stroke-width="2.0" stroke-dasharray="none" opacity="1.0" fill="none"/><path id="ProcessOnPath1018" d="M0.0 0.0L165.0 0.0L165.0 126.0L0.0 126.0Z" stroke="#323232" stroke-width="0.0" stroke-dasharray="none" opacity="1.0" fill="none"/><g id="ProcessOnG1019" transform="matrix(1.0,0.0,0.0,1.0,10.0,6.875)"><text id="ProcessOnText1020" fill="#000000" font-weight="bold" font-style="normal" text-decoration="blink" font-family="微软雅黑" text-anchor="middle" font-size="13" x="72.5" y="13.325">Woman</text></g><g id="ProcessOnG1021" transform="matrix(1.0,0.0,0.0,1.0,10.0,45.875)"><text id="ProcessOnText1022" fill="#000000" font-weight="bold" font-style="normal" text-decoration="blink" font-family="微软雅黑" text-anchor="middle" font-size="13" x="72.5" y="13.325"></text></g><g id="ProcessOnG1023" transform="matrix(1.0,0.0,0.0,1.0,10.0,93.875)"><text id="ProcessOnText1024" fill="#000000" font-weight="bold" font-style="normal" text-decoration="blink" font-family="微软雅黑" text-anchor="middle" font-size="13" x="72.5" y="13.325">+getAttitude</text></g></g><g id="ProcessOnG1025" transform="matrix(1.0,0.0,0.0,1.0,652.0,520.0)" opacity="1.0"><path id="ProcessOnPath1026" d="M0.0 4.0Q0.0 0.0 4.0 0.0L261.0 0.0Q265.0 0.0 265.0 4.0L265.0 132.0Q265.0 136.0 261.0 136.0L4.0 136.0Q0.0 136.0 0.0 132.0Z" stroke="#323232" stroke-width="2.0" stroke-dasharray="none" opacity="1.0" fill="#ffffff"/><path id="ProcessOnPath1027" d="M0.0 30.0L265.0 30.0M0.0 83.0L265.0 83.0" stroke="#323232" stroke-width="2.0" stroke-dasharray="none" opacity="1.0" fill="none"/><path id="ProcessOnPath1028" d="M0.0 0.0L265.0 0.0L265.0 136.0L0.0 136.0Z" stroke="#323232" stroke-width="0.0" stroke-dasharray="none" opacity="1.0" fill="none"/><g id="ProcessOnG1029" transform="matrix(1.0,0.0,0.0,1.0,10.0,6.875)"><text id="ProcessOnText1030" fill="#000000" font-weight="bold" font-style="normal" text-decoration="blink" font-family="微软雅黑" text-anchor="middle" font-size="13" x="122.5" y="13.325">Aspect</text></g><g id="ProcessOnG1031" transform="matrix(1.0,0.0,0.0,1.0,10.0,48.375)"><text id="ProcessOnText1032" fill="#000000" font-weight="bold" font-style="normal" text-decoration="blink" font-family="微软雅黑" text-anchor="middle" font-size="13" x="122.5" y="13.325"></text></g><g id="ProcessOnG1033" transform="matrix(1.0,0.0,0.0,1.0,10.0,85.125)"><text id="ProcessOnText1034" fill="#000000" font-weight="bold" font-style="normal" text-decoration="blink" font-family="微软雅黑" text-anchor="middle" font-size="13" x="122.5" y="13.325">+getManAttitude(Man man)</text><text id="ProcessOnText1035" fill="#000000" font-weight="bold" font-style="normal" text-decoration="blink" font-family="微软雅黑" text-anchor="middle" font-size="13" x="122.5" y="29.575">+getWomanAttitude(Woman woma</text><text id="ProcessOnText1036" fill="#000000" font-weight="bold" font-style="normal" text-decoration="blink" font-family="微软雅黑" text-anchor="middle" font-size="13" x="122.5" y="45.825">n)</text></g></g><g id="ProcessOnG1037" transform="matrix(1.0,0.0,0.0,1.0,72.0,533.0)" opacity="1.0"><path id="ProcessOnPath1038" d="M0.0 4.0Q0.0 0.0 4.0 0.0L161.0 0.0Q165.0 0.0 165.0 4.0L165.0 122.0Q165.0 126.0 161.0 126.0L4.0 126.0Q0.0 126.0 0.0 122.0Z" stroke="#323232" stroke-width="2.0" stroke-dasharray="none" opacity="1.0" fill="#ffffff"/><path id="ProcessOnPath1039" d="M0.0 30.0L165.0 30.0M0.0 78.0L165.0 78.0" stroke="#323232" stroke-width="2.0" stroke-dasharray="none" opacity="1.0" fill="none"/><path id="ProcessOnPath1040" d="M0.0 0.0L165.0 0.0L165.0 126.0L0.0 126.0Z" stroke="#323232" stroke-width="0.0" stroke-dasharray="none" opacity="1.0" fill="none"/><g id="ProcessOnG1041" transform="matrix(1.0,0.0,0.0,1.0,10.0,6.875)"><text id="ProcessOnText1042" fill="#000000" font-weight="bold" font-style="normal" text-decoration="blink" font-family="微软雅黑" text-anchor="middle" font-size="13" x="72.5" y="13.325">Man</text></g><g id="ProcessOnG1043" transform="matrix(1.0,0.0,0.0,1.0,10.0,45.875)"><text id="ProcessOnText1044" fill="#000000" font-weight="bold" font-style="normal" text-decoration="blink" font-family="微软雅黑" text-anchor="middle" font-size="13" x="72.5" y="13.325"></text></g><g id="ProcessOnG1045" transform="matrix(1.0,0.0,0.0,1.0,10.0,93.875)"><text id="ProcessOnText1046" fill="#000000" font-weight="bold" font-style="normal" text-decoration="blink" font-family="微软雅黑" text-anchor="middle" font-size="13" x="72.5" y="13.325">+getAttitude</text></g></g><g id="ProcessOnG1047" transform="matrix(1.0,0.0,0.0,1.0,814.0,297.5)" opacity="1.0"><path id="ProcessOnPath1048" d="M0.0 4.0Q0.0 0.0 4.0 0.0L161.0 0.0Q165.0 0.0 165.0 4.0L165.0 122.0Q165.0 126.0 161.0 126.0L4.0 126.0Q0.0 126.0 0.0 122.0Z" stroke="#323232" stroke-width="2.0" stroke-dasharray="none" opacity="1.0" fill="#ffffff"/><path id="ProcessOnPath1049" d="M0.0 30.0L165.0 30.0M0.0 78.0L165.0 78.0" stroke="#323232" stroke-width="2.0" stroke-dasharray="none" opacity="1.0" fill="none"/><path id="ProcessOnPath1050" d="M0.0 0.0L165.0 0.0L165.0 126.0L0.0 126.0Z" stroke="#323232" stroke-width="0.0" stroke-dasharray="none" opacity="1.0" fill="none"/><g id="ProcessOnG1051" transform="matrix(1.0,0.0,0.0,1.0,10.0,6.875)"><text id="ProcessOnText1052" fill="#000000" font-weight="bold" font-style="normal" text-decoration="blink" font-family="微软雅黑" text-anchor="middle" font-size="13" x="72.5" y="13.325">Love</text></g><g id="ProcessOnG1053" transform="matrix(1.0,0.0,0.0,1.0,10.0,45.875)"><text id="ProcessOnText1054" fill="#000000" font-weight="bold" font-style="normal" text-decoration="blink" font-family="微软雅黑" text-anchor="middle" font-size="13" x="72.5" y="13.325"></text></g><g id="ProcessOnG1055" transform="matrix(1.0,0.0,0.0,1.0,10.0,85.75)"><text id="ProcessOnText1056" fill="#000000" font-weight="bold" font-style="normal" text-decoration="blink" font-family="微软雅黑" text-anchor="middle" font-size="13" x="72.5" y="13.325">+getManAttitude</text><text id="ProcessOnText1057" fill="#000000" font-weight="bold" font-style="normal" text-decoration="blink" font-family="微软雅黑" text-anchor="middle" font-size="13" x="72.5" y="29.575">+getWomanAttitude</text></g></g><g id="ProcessOnG1058" transform="matrix(1.0,0.0,0.0,1.0,417.0,89.5)" opacity="1.0"><path id="ProcessOnPath1059" d="M0.0 4.0Q0.0 0.0 4.0 0.0L218.0 0.0Q222.0 0.0 222.0 4.0L222.0 147.0Q222.0 151.0 218.0 151.0L4.0 151.0Q0.0 151.0 0.0 147.0Z" stroke="#323232" stroke-width="2.0" stroke-dasharray="none" opacity="1.0" fill="#ffffff"/><path id="ProcessOnPath1060" d="M0.0 30.0L222.0 30.0M0.0 90.5L222.0 90.5" stroke="#323232" stroke-width="2.0" stroke-dasharray="none" opacity="1.0" fill="none"/><path id="ProcessOnPath1061" d="M0.0 0.0L222.0 0.0L222.0 151.0L0.0 151.0Z" stroke="#323232" stroke-width="0.0" stroke-dasharray="none" opacity="1.0" fill="none"/><g id="ProcessOnG1062" transform="matrix(1.0,0.0,0.0,1.0,10.0,6.875)"><text id="ProcessOnText1063" fill="#000000" font-weight="bold" font-style="normal" text-decoration="blink" font-family="微软雅黑" text-anchor="middle" font-size="13" x="101.0" y="13.325">ObjectStructure</text></g><g id="ProcessOnG1064" transform="matrix(1.0,0.0,0.0,1.0,10.0,52.125)"><text id="ProcessOnText1065" fill="#000000" font-weight="bold" font-style="normal" text-decoration="blink" font-family="微软雅黑" text-anchor="middle" font-size="13" x="101.0" y="13.325">-elements : List&lt;Person&gt;</text></g><g id="ProcessOnG1066" transform="matrix(1.0,0.0,0.0,1.0,10.0,96.375)"><text id="ProcessOnText1067" fill="#000000" font-weight="bold" font-style="normal" text-decoration="blink" font-family="微软雅黑" text-anchor="middle" font-size="13" x="101.0" y="13.325">+attach(Person p)</text><text id="ProcessOnText1068" fill="#000000" font-weight="bold" font-style="normal" text-decoration="blink" font-family="微软雅黑" text-anchor="middle" font-size="13" x="101.0" y="29.575">+detach(Person p)</text><text id="ProcessOnText1069" fill="#000000" font-weight="bold" font-style="normal" text-decoration="blink" font-family="微软雅黑" text-anchor="middle" font-size="13" x="101.0" y="45.825">+display(Aspect aspect)</text></g></g><g id="ProcessOnG1070" transform="matrix(1.0,0.0,0.0,1.0,565.0,297.5)" opacity="1.0"><path id="ProcessOnPath1071" d="M0.0 4.0Q0.0 0.0 4.0 0.0L161.0 0.0Q165.0 0.0 165.0 4.0L165.0 122.0Q165.0 126.0 161.0 126.0L4.0 126.0Q0.0 126.0 0.0 122.0Z" stroke="#323232" stroke-width="2.0" stroke-dasharray="none" opacity="1.0" fill="#ffffff"/><path id="ProcessOnPath1072" d="M0.0 30.0L165.0 30.0M0.0 78.0L165.0 78.0" stroke="#323232" stroke-width="2.0" stroke-dasharray="none" opacity="1.0" fill="none"/><path id="ProcessOnPath1073" d="M0.0 0.0L165.0 0.0L165.0 126.0L0.0 126.0Z" stroke="#323232" stroke-width="0.0" stroke-dasharray="none" opacity="1.0" fill="none"/><g id="ProcessOnG1074" transform="matrix(1.0,0.0,0.0,1.0,10.0,6.875)"><text id="ProcessOnText1075" fill="#000000" font-weight="bold" font-style="normal" text-decoration="blink" font-family="微软雅黑" text-anchor="middle" font-size="13" x="72.5" y="13.325">Success</text></g><g id="ProcessOnG1076" transform="matrix(1.0,0.0,0.0,1.0,10.0,45.875)"><text id="ProcessOnText1077" fill="#000000" font-weight="bold" font-style="normal" text-decoration="blink" font-family="微软雅黑" text-anchor="middle" font-size="13" x="72.5" y="13.325"></text></g><g id="ProcessOnG1078" transform="matrix(1.0,0.0,0.0,1.0,10.0,85.75)"><text id="ProcessOnText1079" fill="#000000" font-weight="bold" font-style="normal" text-decoration="blink" font-family="微软雅黑" text-anchor="middle" font-size="13" x="72.5" y="13.325">+getManAttitude</text><text id="ProcessOnText1080" fill="#000000" font-weight="bold" font-style="normal" text-decoration="blink" font-family="微软雅黑" text-anchor="middle" font-size="13" x="72.5" y="29.575">+getWomanAttitude</text></g></g><g id="ProcessOnG1081"><path id="ProcessOnPath1082" d="M154.5 533.0L154.5 485.25L269.5 485.25L269.5 452.7360679774998" stroke="#323232" stroke-width="2.0" stroke-dasharray="none" fill="none" marker-end="url(#ProcessOnMarker1083)"/></g><g id="ProcessOnG1085"><path id="ProcessOnPath1086" d="M410.5 533.0L410.5 485.25L269.5 485.25L269.5 452.7360679774998" stroke="#323232" stroke-width="2.0" stroke-dasharray="none" fill="none" marker-end="url(#ProcessOnMarker1087)"/></g><g id="ProcessOnG1089"><path id="ProcessOnPath1090" d="M647.5 423.5L647.5 471.75L784.5 471.75L784.5 504.7639320225002" stroke="#323232" stroke-width="2.0" stroke-dasharray="none" fill="none" marker-end="url(#ProcessOnMarker1091)"/></g><g id="ProcessOnG1093"><path id="ProcessOnPath1094" d="M896.5 423.5L896.5 471.75L784.5 471.75L784.5 504.7639320225002" stroke="#323232" stroke-width="2.0" stroke-dasharray="none" fill="none" marker-end="url(#ProcessOnMarker1095)"/></g><g id="ProcessOnG1097"><path id="ProcessOnPath1098" d="M784.5 656.0L784.5 722.0L154.5 722.0L154.5 659.0" stroke="#323232" stroke-width="2.0" stroke-dasharray="10.0 4.0" fill="none" marker-end="url(#ProcessOnMarker1099)"/></g><g id="ProcessOnG1101"><path id="ProcessOnPath1102" d="M784.5 656.0L784.5 689.0L410.5 689.0L410.5 659.0" stroke="#323232" stroke-width="2.0" stroke-dasharray="10.0 4.0" fill="none" marker-end="url(#ProcessOnMarker1103)"/></g><g id="ProcessOnG1105"><path id="ProcessOnPath1106" d="M398.69523512903754 165.0L269.5 165.0L269.5 308.5" stroke="#323232" stroke-width="2.0" stroke-dasharray="none" fill="none" marker-start="url(#ProcessOnMarker1107)" marker-end="url(#ProcessOnMarker1109)"/></g><g id="ProcessOnG1111"><path id="ProcessOnPath1112" d="M528.0 240.5L528.0 588.0L652.0 588.0" stroke="#323232" stroke-width="2.0" stroke-dasharray="10.0 4.0" fill="none" marker-end="url(#ProcessOnMarker1113)"/></g></g></g></svg>