<svg xmlns="http://www.w3.org/2000/svg" xmlns:xlink="http://www.w3.org/1999/xlink" id="processonSvg1000" viewBox="124.0 7.0 571.0 391.0" width="571.0" height="391.0"><defs id="ProcessOnDefs1001"/><g id="ProcessOnG1002"><path id="ProcessOnPath1003" d="M124.0 7.0H695.0V398.0H124.0V7.0Z" fill="none"/><g id="ProcessOnG1004"><g id="ProcessOnG1005" transform="matrix(1.0,0.0,0.0,1.0,425.0,27.0)" opacity="1.0"><path id="ProcessOnPath1006" d="M0.0 29.0C0.0 -9.666666666666666 61.0 -9.666666666666666 61.0 29.0C61.0 67.66666666666667 0.0 67.66666666666667 0.0 29.0Z" stroke="#323232" stroke-width="2.0" stroke-dasharray="none" opacity="1.0" fill="#ccff99"/><g id="ProcessOnG1007" transform="matrix(1.0,0.0,0.0,1.0,10.0,15.25)"><text id="ProcessOnText1008" fill="#000000" font-size="22" x="19.5" y="22.55" font-family="微软雅黑" font-weight="bold" font-style="normal" text-decoration="none" family="微软雅黑" text-anchor="middle" size="22">0</text></g></g><g id="ProcessOnG1009" transform="matrix(1.0,0.0,0.0,1.0,301.0,128.0)" opacity="1.0"><path id="ProcessOnPath1010" d="M0.0 29.0C0.0 -9.666666666666666 61.0 -9.666666666666666 61.0 29.0C61.0 67.66666666666667 0.0 67.66666666666667 0.0 29.0Z" stroke="#323232" stroke-width="2.0" stroke-dasharray="none" opacity="1.0" fill="#ccff99"/><g id="ProcessOnG1011" transform="matrix(1.0,0.0,0.0,1.0,10.0,15.25)"><text id="ProcessOnText1012" fill="#000000" font-size="22" x="19.5" y="22.55" font-family="微软雅黑" font-weight="bold" font-style="normal" text-decoration="none" family="微软雅黑" text-anchor="middle" size="22">1</text></g></g><g id="ProcessOnG1013" transform="matrix(1.0,0.0,0.0,1.0,545.0,115.0)" opacity="1.0"><path id="ProcessOnPath1014" d="M0.0 29.0C0.0 -9.666666666666666 61.0 -9.666666666666666 61.0 29.0C61.0 67.66666666666667 0.0 67.66666666666667 0.0 29.0Z" stroke="#323232" stroke-width="2.0" stroke-dasharray="none" opacity="1.0" fill="#ccff99"/><g id="ProcessOnG1015" transform="matrix(1.0,0.0,0.0,1.0,10.0,15.25)"><text id="ProcessOnText1016" fill="#000000" font-size="22" x="19.5" y="22.55" font-family="微软雅黑" font-weight="bold" font-style="normal" text-decoration="none" family="微软雅黑" text-anchor="middle" size="22">2</text></g></g><g id="ProcessOnG1017" transform="matrix(1.0,0.0,0.0,1.0,480.0,225.0)" opacity="1.0"><path id="ProcessOnPath1018" d="M0.0 29.0C0.0 -9.666666666666666 61.0 -9.666666666666666 61.0 29.0C61.0 67.66666666666667 0.0 67.66666666666667 0.0 29.0Z" stroke="#323232" stroke-width="2.0" stroke-dasharray="none" opacity="1.0" fill="#ccff99"/><g id="ProcessOnG1019" transform="matrix(1.0,0.0,0.0,1.0,10.0,15.25)"><text id="ProcessOnText1020" fill="#000000" font-size="22" x="19.5" y="22.55" font-family="微软雅黑" font-weight="bold" font-style="normal" text-decoration="none" family="微软雅黑" text-anchor="middle" size="22">5</text></g></g><g id="ProcessOnG1021" transform="matrix(1.0,0.0,0.0,1.0,364.0,225.0)" opacity="1.0"><path id="ProcessOnPath1022" d="M0.0 29.0C0.0 -9.666666666666666 61.0 -9.666666666666666 61.0 29.0C61.0 67.66666666666667 0.0 67.66666666666667 0.0 29.0Z" stroke="#323232" stroke-width="2.0" stroke-dasharray="none" opacity="1.0" fill="#ccff99"/><g id="ProcessOnG1023" transform="matrix(1.0,0.0,0.0,1.0,10.0,15.25)"><text id="ProcessOnText1024" fill="#000000" font-size="22" x="19.5" y="22.55" font-family="微软雅黑" font-weight="bold" font-style="normal" text-decoration="none" family="微软雅黑" text-anchor="middle" size="22">4</text></g></g><g id="ProcessOnG1025" transform="matrix(1.0,0.0,0.0,1.0,614.0,225.0)" opacity="1.0"><path id="ProcessOnPath1026" d="M0.0 29.0C0.0 -9.666666666666666 61.0 -9.666666666666666 61.0 29.0C61.0 67.66666666666667 0.0 67.66666666666667 0.0 29.0Z" stroke="#323232" stroke-width="2.0" stroke-dasharray="none" opacity="1.0" fill="#ccff99"/><g id="ProcessOnG1027" transform="matrix(1.0,0.0,0.0,1.0,10.0,15.25)"><text id="ProcessOnText1028" fill="#000000" font-size="22" x="19.5" y="22.55" font-family="微软雅黑" font-weight="bold" font-style="normal" text-decoration="none" family="微软雅黑" text-anchor="middle" size="22">6</text></g></g><g id="ProcessOnG1029" transform="matrix(1.0,0.0,0.0,1.0,227.0,225.0)" opacity="1.0"><path id="ProcessOnPath1030" d="M0.0 29.0C0.0 -9.666666666666666 61.0 -9.666666666666666 61.0 29.0C61.0 67.66666666666667 0.0 67.66666666666667 0.0 29.0Z" stroke="#323232" stroke-width="2.0" stroke-dasharray="none" opacity="1.0" fill="#ccff99"/><g id="ProcessOnG1031" transform="matrix(1.0,0.0,0.0,1.0,10.0,15.25)"><text id="ProcessOnText1032" fill="#000000" font-size="22" x="19.5" y="22.55" font-family="微软雅黑" font-weight="bold" font-style="normal" text-decoration="none" family="微软雅黑" text-anchor="middle" size="22">3</text></g></g><g id="ProcessOnG1033" transform="matrix(1.0,0.0,0.0,1.0,144.0,320.0)" opacity="1.0"><path id="ProcessOnPath1034" d="M0.0 29.0C0.0 -9.666666666666666 61.0 -9.666666666666666 61.0 29.0C61.0 67.66666666666667 0.0 67.66666666666667 0.0 29.0Z" stroke="#323232" stroke-width="2.0" stroke-dasharray="none" opacity="1.0" fill="#ccff99"/><g id="ProcessOnG1035" transform="matrix(1.0,0.0,0.0,1.0,10.0,15.25)"><text id="ProcessOnText1036" fill="#000000" font-size="22" x="19.5" y="22.55" font-family="微软雅黑" font-weight="bold" font-style="normal" text-decoration="none" family="微软雅黑" text-anchor="middle" size="22">7</text></g></g><g id="ProcessOnG1037"><path id="ProcessOnPath1038" d="M428.34415450925655 68.04167216781511C395.0 98.0 384.0 110.0 355.46791111376206 138.28557521937307" stroke="#323232" stroke-width="2.0" stroke-dasharray="none" fill="none"/></g><g id="ProcessOnG1039"><path id="ProcessOnPath1040" d="M312.2943057454042 179.72339182284404C297.9326047006211 200.23402654337713 289.4938188630278 209.58512550091183 275.13211781824475 230.09576022144495" stroke="#323232" stroke-width="2.0" stroke-dasharray="none" fill="none"/></g><g id="ProcessOnG1041"><path id="ProcessOnPath1042" d="M233.09576022144495 272.13211781824475C216.0 297.0 213.0 306.0 196.540949804966 328.8716027615546" stroke="#323232" stroke-width="2.0" stroke-dasharray="none" fill="none"/></g><g id="ProcessOnG1043"><path id="ProcessOnPath1044" d="M356.72339182284406 172.7056942545958C372.0 203.0 375.0 211.0 385.3680805733027 226.75877048314362" stroke="#323232" stroke-width="2.0" stroke-dasharray="none" fill="none"/></g><g id="ProcessOnG1045"><path id="ProcessOnPath1046" d="M482.53589838486226 69.0C516.0 92.0 530.0 101.0 557.2943057454041 120.27660817715596" stroke="#323232" stroke-width="2.0" stroke-dasharray="none" fill="none"/></g><g id="ProcessOnG1047"><path id="ProcessOnPath1048" d="M555.5711504387461 165.93582222752408C542.0 196.0 536.6715143878107 203.25937046353212 524.8869086912965 228.53153893518325" stroke="#323232" stroke-width="2.0" stroke-dasharray="none" fill="none"/></g><g id="ProcessOnG1049"><path id="ProcessOnPath1050" d="M600.7233918228441 160.7056942545958C621.0 193.0 628.0 199.0 644.5 225.0" stroke="#323232" stroke-width="2.0" stroke-dasharray="none" fill="none"/></g></g></g></svg>